URWGroteskGPL-ExtraLight.ufo
<glyph name="exclam" format="2">
  <advance width="225"/>
  <unicode hex="0021"/>
  <outline>
    <contour>
      <point x="86.0585" y="667" type="line"/>
      <point x="86.0585" y="503.16" type="line"/>
      <point x="98.0244" y="202.016" type="line" name="hr01"/>
      <point x="126.495" y="202.016" type="line"/>
      <point x="138.461" y="503.16" type="line"/>
      <point x="138.461" y="667" type="line"/>
    </contour>
    <contour>
      <point x="112.26" y="73.3823" type="curve" smooth="yes"/>
      <point x="87.7197" y="73.3823"/>
      <point x="67.4108" y="53.9527" name="hr02"/>
      <point x="67.4108" y="30.4753" type="curve" smooth="yes"/>
      <point x="67.4108" y="6.06247"/>
      <point x="87.804" y="-13.4678"/>
      <point x="113.296" y="-13.4678" type="curve" smooth="yes"/>
      <point x="137.836" y="-13.4678" name="hr03"/>
      <point x="158.144" y="6.06247"/>
      <point x="158.144" y="30.4753" type="curve" smooth="yes"/>
      <point x="158.144" y="53.9527"/>
      <point x="137.751" y="73.3823"/>
    </contour>
  </outline>
</glyph>
<glyph name="quotedbl" format="2">
  <advance width="312"/>
  <unicode hex="0022"/>
  <outline>
    <contour>
      <point x="114" y="400" type="line"/>
      <point x="123" y="667" type="line"/>
      <point x="56" y="667" type="line"/>
      <point x="65" y="400" type="line"/>
    </contour>
    <contour>
      <point x="247" y="400" type="line"/>
      <point x="256" y="667" type="line"/>
      <point x="189" y="667" type="line"/>
      <point x="198" y="400" type="line"/>
    </contour>
  </outline>
</glyph>
<glyph name="numbersign" format="2">
  <advance width="422"/>
  <unicode hex="0023"/>
  <outline>
    <contour>
      <point x="24.7982" y="202.88" type="line"/>
      <point x="16.4452" y="163.685" type="line"/>
      <point x="92.1028" y="163.685" type="line"/>
      <point x="56.8794" y="0" type="line" name="hr01"/>
      <point x="83.6658" y="0" type="line"/>
      <point x="116.817" y="163.685" type="line"/>
      <point x="238.082" y="163.685" type="line"/>
      <point x="203.895" y="0" type="line"/>
      <point x="229.739" y="0" type="line"/>
      <point x="262.891" y="163.685" type="line"/>
      <point x="338.463" y="163.685" type="line"/>
      <point x="346.174" y="202.88" type="line"/>
      <point x="270.487" y="202.88" type="line"/>
      <point x="328.141" y="490.019" type="line"/>
      <point x="402.756" y="490.019" type="line"/>
      <point x="410.307" y="527.142" type="line"/>
      <point x="335.657" y="527.142" type="line"/>
      <point x="364.664" y="667" type="line" name="hr02"/>
      <point x="341.793" y="667" type="line"/>
      <point x="311.75" y="527.142" type="line"/>
      <point x="191.545" y="527.142" type="line"/>
      <point x="221.588" y="667" type="line"/>
      <point x="197.859" y="667" type="line"/>
      <point x="168.852" y="527.142" type="line"/>
      <point x="91.0356" y="527.142" type="line"/>
      <point x="82.856" y="490.019" type="line"/>
      <point x="161.534" y="490.019" type="line"/>
      <point x="99.3578" y="202.88" type="line"/>
    </contour>
    <contour>
      <point x="126.486" y="202.88" type="line"/>
      <point x="184.14" y="490.019" type="line"/>
      <point x="305.36" y="490.019" type="line"/>
      <point x="246.575" y="202.88" type="line"/>
    </contour>
  </outline>
</glyph>
<glyph name="dollar" format="2">
  <advance width="535"/>
  <unicode hex="0024"/>
  <outline>
    <contour>
      <point x="242.6" y="742.627" type="line"/>
      <point x="242.6" y="672.498" type="line"/>
      <point x="148.325" y="659.03"/>
      <point x="82.0225" y="589.841"/>
      <point x="82.0225" y="503.919" type="curve" smooth="yes"/>
      <point x="82.0225" y="427.707"/>
      <point x="127.606" y="374.003"/>
      <point x="242.6" y="314.952" type="curve"/>
      <point x="242.6" y="34.4686" type="line"/>
      <point x="181.923" y="37.9032"/>
      <point x="133.524" y="74.9746"/>
      <point x="111.753" y="130.601" type="curve"/>
      <point x="55.8049" y="87.0858" type="line"/>
      <point x="91.0406" y="25.5005"/>
      <point x="156.09" y="-6.34116"/>
      <point x="242.6" y="-7.37104" type="curve"/>
      <point x="242.6" y="-109.814" type="line"/>
      <point x="270.138" y="-109.814" type="line"/>
      <point x="270.138" y="-6.68568" type="line"/>
      <point x="326.723" y="2.36785"/>
      <point x="355.596" y="13.4343"/>
      <point x="382.618" y="35.6312" type="curve" smooth="yes"/>
      <point x="423.876" y="69.0305"/>
      <point x="450.399" y="123.431"/>
      <point x="450.399" y="175.513" type="curve" smooth="yes"/>
      <point x="450.399" y="250.548"/>
      <point x="404.816" y="300.401"/>
      <point x="270.138" y="372.92" type="curve"/>
      <point x="270.138" y="632.108" type="line"/>
      <point x="323.475" y="626.047"/>
      <point x="353.867" y="603.137"/>
      <point x="374.549" y="552.924" type="curve"/>
      <point x="423.602" y="592.921" type="line"/>
      <point x="389.862" y="645.434"/>
      <point x="340.115" y="671.476"/>
      <point x="270.138" y="673.504" type="curve"/>
      <point x="270.138" y="742.627" type="line"/>
    </contour>
    <contour>
      <point x="242.6" y="388.145" type="line"/>
      <point x="170.669" y="426.072"/>
      <point x="145.821" y="458.801"/>
      <point x="145.821" y="514.279" type="curve" smooth="yes"/>
      <point x="145.821" y="570.966"/>
      <point x="183.748" y="617.154"/>
      <point x="242.6" y="631.54" type="curve"/>
    </contour>
    <contour>
      <point x="270.138" y="301.145" type="line"/>
      <point x="341.93" y="265.879"/>
      <point x="383.493" y="216.894"/>
      <point x="383.493" y="166.189" type="curve" smooth="yes"/>
      <point x="383.493" y="102.1"/>
      <point x="340.67" y="51.9803"/>
      <point x="270.138" y="35.6068" type="curve"/>
    </contour>
  </outline>
</glyph>
<glyph name="percent" format="2">
  <advance width="752"/>
  <unicode hex="0025"/>
  <outline>
    <contour>
      <point x="236" y="672" type="curve" smooth="yes"/>
      <point x="144" y="672"/>
      <point x="91" y="615"/>
      <point x="91" y="516" type="curve" smooth="yes"/>
      <point x="91" y="409"/>
      <point x="142" y="352"/>
      <point x="236" y="352" type="curve" smooth="yes"/>
      <point x="330" y="352"/>
      <point x="381" y="409"/>
      <point x="381" y="513" type="curve" smooth="yes"/>
      <point x="381" y="615"/>
      <point x="329" y="672"/>
    </contour>
    <contour>
      <point x="236" y="640" type="curve" smooth="yes"/>
      <point x="295" y="640"/>
      <point x="321" y="601"/>
      <point x="321" y="512" type="curve" smooth="yes"/>
      <point x="321" y="423"/>
      <point x="295" y="384"/>
      <point x="237" y="384" type="curve" smooth="yes"/>
      <point x="178" y="384"/>
      <point x="153" y="423"/>
      <point x="153" y="513" type="curve" smooth="yes"/>
      <point x="153" y="600"/>
      <point x="179" y="640"/>
    </contour>
    <contour>
      <point x="635" y="703" type="line"/>
      <point x="599" y="710" type="line"/>
      <point x="75" y="-98" type="line"/>
      <point x="113" y="-103" type="line"/>
    </contour>
    <contour>
      <point x="514" y="317" type="curve" smooth="yes"/>
      <point x="422" y="317"/>
      <point x="369" y="260"/>
      <point x="369" y="161" type="curve" smooth="yes"/>
      <point x="369" y="54" name="hr01"/>
      <point x="420" y="-3"/>
      <point x="514" y="-3" type="curve" smooth="yes"/>
      <point x="607" y="-3"/>
      <point x="659" y="55"/>
      <point x="659" y="158" type="curve" smooth="yes"/>
      <point x="659" y="260"/>
      <point x="607" y="317"/>
    </contour>
    <contour>
      <point x="514" y="285" type="curve" smooth="yes"/>
      <point x="573" y="285"/>
      <point x="599" y="246"/>
      <point x="599" y="157" type="curve" smooth="yes"/>
      <point x="599" y="68"/>
      <point x="573" y="29"/>
      <point x="515" y="29" type="curve" smooth="yes"/>
      <point x="456" y="29"/>
      <point x="431" y="68"/>
      <point x="431" y="158" type="curve" smooth="yes"/>
      <point x="431" y="245"/>
      <point x="457" y="285"/>
    </contour>
  </outline>
</glyph>
<glyph name="ampersand" format="2">
  <advance width="645"/>
  <unicode hex="0026"/>
  <outline>
    <contour>
      <point x="521.043" y="327.198" type="line"/>
      <point x="521.135" y="320.55" type="line" smooth="yes"/>
      <point x="521.135" y="261.817"/>
      <point x="504.361" y="211.476"/>
      <point x="464.822" y="147.975" type="curve"/>
      <point x="394.515" y="202.406"/>
      <point x="329.016" y="272.818"/>
      <point x="272.958" y="353.402" type="curve"/>
      <point x="399.895" y="415.794"/>
      <point x="445.075" y="468.329"/>
      <point x="445.075" y="550.538" type="curve" smooth="yes"/>
      <point x="445.075" y="627.358"/>
      <point x="389.097" y="680.468"/>
      <point x="308.024" y="680.468" type="curve" smooth="yes"/>
      <point x="207.171" y="680.468"/>
      <point x="134.714" y="612.949"/>
      <point x="134.714" y="518.423" type="curve" smooth="yes"/>
      <point x="134.714" y="472.69"/>
      <point x="152.017" y="429.564"/>
      <point x="195.853" y="361.504" type="curve"/>
      <point x="96.2637" y="318.204"/>
      <point x="50.7991" y="263.976"/>
      <point x="50.7991" y="185.873" type="curve" smooth="yes"/>
      <point x="50.7991" y="72.5222"/>
      <point x="140.736" y="-13.4678"/>
      <point x="259.333" y="-13.4678" type="curve" smooth="yes"/>
      <point x="331.583" y="-13.4678"/>
      <point x="380.175" y="7.78336"/>
      <point x="466.242" y="78.9746" type="curve"/>
      <point x="517.478" y="40.8202"/>
      <point x="536.078" y="29.9845"/>
      <point x="597.28" y="2.13021" type="curve"/>
      <point x="638.525" y="57.6232" type="line"/>
      <point x="571.744" y="76.79"/>
      <point x="555.153" y="85.8053"/>
      <point x="501.996" y="121.243" type="curve"/>
      <point x="553.758" y="197.301"/>
      <point x="573.817" y="250.47"/>
      <point x="580.845" y="327.198" type="curve"/>
    </contour>
    <contour>
      <point x="238.618" y="393.513" type="line" smooth="yes"/>
      <point x="205.223" y="441.99"/>
      <point x="192.296" y="477.034"/>
      <point x="192.296" y="519.459" type="curve" smooth="yes"/>
      <point x="192.296" y="592.807"/>
      <point x="236.785" y="644.381"/>
      <point x="301.808" y="644.381" type="curve" smooth="yes"/>
      <point x="358.732" y="644.381"/>
      <point x="394.745" y="605.479"/>
      <point x="394.745" y="545.358" type="curve" smooth="yes"/>
      <point x="394.745" y="455.197"/>
      <point x="314.238" y="417.822"/>
      <point x="243.73" y="386.093" type="curve"/>
    </contour>
    <contour>
      <point x="228.159" y="320.259" type="line" smooth="yes"/>
      <point x="276.038" y="253.025"/>
      <point x="362.381" y="160.584"/>
      <point x="431.724" y="106.019" type="curve"/>
      <point x="372.128" y="48.9059"/>
      <point x="328.139" y="27.7991"/>
      <point x="271.765" y="27.7991" type="curve" smooth="yes"/>
      <point x="188.152" y="27.7991"/>
      <point x="111.489" y="93.4806"/>
      <point x="111.489" y="179.657" type="curve" smooth="yes"/>
      <point x="111.489" y="255.359"/>
      <point x="160.16" y="298.248"/>
      <point x="222.963" y="327.556" type="curve"/>
    </contour>
  </outline>
</glyph>
<glyph name="quotesingle" format="2">
  <advance width="179"/>
  <unicode hex="0027"/>
  <outline>
    <contour>
      <point x="113" y="400" type="line"/>
      <point x="123" y="667" type="line"/>
      <point x="56" y="667" type="line"/>
      <point x="65" y="400" type="line"/>
    </contour>
  </outline>
</glyph>
<glyph name="parenleft" format="2">
  <advance width="244"/>
  <unicode hex="0028"/>
  <outline>
    <contour>
      <point x="196.707" y="701.187" type="line"/>
      <point x="148.991" y="652.192"/>
      <point x="128.674" y="619.824"/>
      <point x="106.037" y="563.736" type="curve" smooth="yes"/>
      <point x="69.2117" y="470.65"/>
      <point x="50.7991" y="359.233"/>
      <point x="50.7991" y="236.636" type="curve" smooth="yes"/>
      <point x="50.7991" y="114.039"/>
      <point x="69.2117" y="2.62163"/>
      <point x="106.011" y="-90.3882" type="curve" smooth="yes"/>
      <point x="128.674" y="-146.553"/>
      <point x="148.991" y="-178.92"/>
      <point x="196.707" y="-227.916" type="curve"/>
      <point x="216.384" y="-227.916" type="line"/>
      <point x="121.363" y="-111.477"/>
      <point x="105.273" y="93.5595"/>
      <point x="105.273" y="236.636" type="curve" smooth="yes"/>
      <point x="105.273" y="379.327"/>
      <point x="121.887" y="584.897"/>
      <point x="216.419" y="701.187" type="curve"/>
    </contour>
  </outline>
</glyph>
<glyph name="parenright" format="2">
  <advance width="254"/>
  <unicode hex="0029"/>
  <outline>
    <contour>
      <point x="54" y="-220" type="line"/>
      <point x="102" y="-175"/>
      <point x="125" y="-142"/>
      <point x="148" y="-83" type="curve" smooth="yes"/>
      <point x="184" y="10"/>
      <point x="202" y="118"/>
      <point x="202" y="241" type="curve" smooth="yes"/>
      <point x="202" y="367"/>
      <point x="183" y="477"/>
      <point x="146" y="567" type="curve" smooth="yes"/>
      <point x="124" y="622"/>
      <point x="102" y="654"/>
      <point x="55" y="699" type="curve"/>
      <point x="26" y="702" type="line"/>
      <point x="71" y="651"/>
      <point x="88" y="622"/>
      <point x="106" y="561" type="curve" smooth="yes"/>
      <point x="133" y="472"/>
      <point x="145" y="375"/>
      <point x="145" y="249" type="curve" smooth="yes"/>
      <point x="145" y="121"/>
      <point x="133" y="19"/>
      <point x="107" y="-74" type="curve" smooth="yes"/>
      <point x="88" y="-140"/>
      <point x="72" y="-170"/>
      <point x="25" y="-222" type="curve"/>
    </contour>
  </outline>
</glyph>
<glyph name="asterisk" format="2">
  <advance width="404"/>
  <unicode hex="002A"/>
  <outline>
    <contour>
      <point x="202" y="473" type="line"/>
      <point x="303" y="368" type="line"/>
      <point x="314" y="379" type="line"/>
      <point x="233" y="504" type="line"/>
      <point x="372" y="562" type="line"/>
      <point x="366" y="581" type="line"/>
      <point x="223" y="541" type="line"/>
      <point x="211" y="698" type="line"/>
      <point x="194" y="698" type="line"/>
      <point x="181" y="541" type="line"/>
      <point x="38" y="581" type="line"/>
      <point x="32" y="562" type="line"/>
      <point x="171" y="504" type="line"/>
      <point x="87" y="379" type="line"/>
      <point x="101" y="368" type="line"/>
    </contour>
  </outline>
</glyph>
<glyph name="plus" format="2">
  <advance width="496"/>
  <unicode hex="002B"/>
  <outline>
    <contour>
      <point x="8" y="359" type="line"/>
      <point x="8" y="323" type="line"/>
      <point x="227" y="323" type="line"/>
      <point x="227" y="100" type="line"/>
      <point x="266" y="100" type="line"/>
      <point x="266" y="323" type="line"/>
      <point x="489" y="323" type="line"/>
      <point x="489" y="359" type="line"/>
      <point x="266" y="359" type="line"/>
      <point x="266" y="584" type="line"/>
      <point x="227" y="584" type="line"/>
      <point x="227" y="359" type="line"/>
    </contour>
  </outline>
</glyph>
<glyph name="comma" format="2">
  <advance width="207"/>
  <unicode hex="002C"/>
  <outline>
    <contour>
      <point x="136.533" y="86.8501" type="line"/>
      <point x="77.9145" y="86.8501" type="line"/>
      <point x="77.9145" y="25.2954" type="line" smooth="yes"/>
      <point x="77.9145" y="5.6517"/>
      <point x="71.1934" y="-17.0074"/>
      <point x="53.4087" y="-62.9511" type="curve" smooth="yes"/>
      <point x="22.4354" y="-142.966" type="line"/>
      <point x="46.4741" y="-142.966" type="line"/>
      <point x="136.533" y="-7.87751" type="line"/>
    </contour>
  </outline>
</glyph>
<glyph name="period" format="2">
  <advance width="212"/>
  <unicode hex="002E"/>
  <outline>
    <contour>
      <point x="106" y="74" type="curve" smooth="yes"/>
      <point x="83" y="74"/>
      <point x="63" y="54"/>
      <point x="63" y="31" type="curve" smooth="yes"/>
      <point x="63" y="7"/>
      <point x="83" y="-13"/>
      <point x="107" y="-13" type="curve" smooth="yes"/>
      <point x="130" y="-13"/>
      <point x="150" y="7"/>
      <point x="150" y="31" type="curve" smooth="yes"/>
      <point x="150" y="54"/>
      <point x="130" y="74"/>
    </contour>
  </outline>
</glyph>
<glyph name="slash" format="2">
  <advance width="382"/>
  <unicode hex="002F"/>
  <outline>
    <contour>
      <point x="367" y="703" type="line"/>
      <point x="340" y="711" type="line"/>
      <point x="-48" y="-227" type="line"/>
      <point x="-22" y="-232" type="line"/>
    </contour>
  </outline>
</glyph>
<glyph name="zero" format="2">
  <advance width="540"/>
  <unicode hex="0030"/>
  <outline>
    <contour>
      <point x="273.837" y="680.468" type="curve" smooth="yes"/>
      <point x="126.956" y="680.468"/>
      <point x="44.5832" y="554.266"/>
      <point x="44.5832" y="330.91" type="curve" smooth="yes"/>
      <point x="44.5832" y="114.673"/>
      <point x="128.892" y="-13.4678"/>
      <point x="270.729" y="-13.4678" type="curve" smooth="yes"/>
      <point x="412.538" y="-13.4678"/>
      <point x="495.839" y="114.699"/>
      <point x="495.839" y="332.982" type="curve" smooth="yes"/>
      <point x="495.839" y="550.286"/>
      <point x="412.588" y="680.468"/>
    </contour>
    <contour>
      <point x="272.801" y="639.201" type="curve" smooth="yes"/>
      <point x="373.521" y="639.201"/>
      <point x="429.969" y="529.221"/>
      <point x="429.969" y="332.982" type="curve" smooth="yes"/>
      <point x="429.969" y="135.638"/>
      <point x="373.571" y="27.7991"/>
      <point x="270.729" y="27.7991" type="curve" smooth="yes"/>
      <point x="128.081" y="27.7991"/>
      <point x="110.453" y="226.569"/>
      <point x="110.453" y="330.91" type="curve" smooth="yes"/>
      <point x="110.453" y="438.633"/>
      <point x="125.935" y="639.201"/>
    </contour>
  </outline>
</glyph>
<glyph name="one" format="2">
  <advance width="533"/>
  <unicode hex="0031"/>
  <outline>
    <contour>
      <point x="363.341" y="667" type="line"/>
      <point x="332.277" y="667" type="line"/>
      <point x="291.596" y="592.73"/>
      <point x="249.244" y="568.482"/>
      <point x="125.498" y="557.045" type="curve"/>
      <point x="125.498" y="540.17" type="line"/>
      <point x="300.579" y="547.422" type="line"/>
      <point x="300.579" y="0" type="line"/>
      <point x="363.341" y="0" type="line"/>
    </contour>
  </outline>
</glyph>
<glyph name="two" format="2">
  <advance width="529"/>
  <unicode hex="0032"/>
  <outline>
    <contour>
      <point x="442" y="45" type="line"/>
      <point x="153" y="45" type="line"/>
      <point x="365" y="308"/>
      <point x="421" y="406"/>
      <point x="421" y="518" type="curve" smooth="yes"/>
      <point x="421" y="620"/>
      <point x="361" y="681"/>
      <point x="262" y="681" type="curve" smooth="yes"/>
      <point x="175" y="681"/>
      <point x="122" y="638"/>
      <point x="92" y="543" type="curve"/>
      <point x="141" y="503" type="line"/>
      <point x="145" y="548"/>
      <point x="152" y="569"/>
      <point x="169" y="592" type="curve" smooth="yes"/>
      <point x="190" y="620"/>
      <point x="220" y="634"/>
      <point x="258" y="634" type="curve" smooth="yes"/>
      <point x="326" y="634"/>
      <point x="363" y="591"/>
      <point x="363" y="512" type="curve" smooth="yes"/>
      <point x="363" y="449"/>
      <point x="345" y="392"/>
      <point x="302" y="317" type="curve" smooth="yes"/>
      <point x="261" y="245"/>
      <point x="248" y="227"/>
      <point x="126" y="81" type="curve"/>
      <point x="112" y="66"/>
      <point x="100" y="52"/>
      <point x="90" y="38" type="curve"/>
      <point x="90" y="0" type="line"/>
      <point x="442" y="0" type="line"/>
    </contour>
  </outline>
</glyph>
<glyph name="three" format="2">
  <advance width="529"/>
  <unicode hex="0033"/>
  <outline>
    <contour>
      <point x="175" y="338" type="line"/>
      <point x="198" y="340"/>
      <point x="220" y="341"/>
      <point x="235" y="341" type="curve" smooth="yes"/>
      <point x="319" y="341"/>
      <point x="366" y="289"/>
      <point x="366" y="197" type="curve" smooth="yes"/>
      <point x="366" y="96"/>
      <point x="314" y="34"/>
      <point x="229" y="34" type="curve" smooth="yes"/>
      <point x="172" y="34"/>
      <point x="132" y="59"/>
      <point x="90" y="120" type="curve"/>
      <point x="47" y="77" type="line"/>
      <point x="96" y="17"/>
      <point x="155" y="-13"/>
      <point x="226" y="-13" type="curve" smooth="yes"/>
      <point x="342" y="-13"/>
      <point x="424" y="76"/>
      <point x="424" y="203" type="curve" smooth="yes"/>
      <point x="424" y="259"/>
      <point x="406" y="305"/>
      <point x="371" y="338" type="curve" smooth="yes"/>
      <point x="346" y="362"/>
      <point x="324" y="372"/>
      <point x="279" y="379" type="curve"/>
      <point x="348" y="416"/>
      <point x="380" y="465" name="hr01"/>
      <point x="380" y="534" type="curve" smooth="yes"/>
      <point x="380" y="621"/>
      <point x="323" y="680"/>
      <point x="239" y="680" type="curve" smooth="yes"/>
      <point x="175" y="680"/>
      <point x="135" y="656"/>
      <point x="93" y="592" type="curve"/>
      <point x="138" y="558" type="line"/>
      <point x="160" y="612"/>
      <point x="190" y="637"/>
      <point x="234" y="637" type="curve" smooth="yes"/>
      <point x="290" y="637"/>
      <point x="322" y="599"/>
      <point x="322" y="533" type="curve" smooth="yes"/>
      <point x="322" y="479"/>
      <point x="305" y="442"/>
      <point x="267" y="417" type="curve" smooth="yes"/>
      <point x="245" y="403"/>
      <point x="229" y="399"/>
      <point x="175" y="394" type="curve"/>
    </contour>
  </outline>
</glyph>
<glyph name="four" format="2">
  <advance width="529"/>
  <unicode hex="0034"/>
  <outline>
    <contour>
      <point x="385" y="667" type="line"/>
      <point x="319" y="667" type="line"/>
      <point x="43" y="198" type="line"/>
      <point x="43" y="153" type="line"/>
      <point x="335" y="153" type="line"/>
      <point x="335" y="0" type="line"/>
      <point x="385" y="0" type="line"/>
      <point x="385" y="153" type="line"/>
      <point x="478" y="153" type="line"/>
      <point x="478" y="198" type="line"/>
      <point x="385" y="198" type="line"/>
    </contour>
    <contour>
      <point x="335" y="599" type="line"/>
      <point x="335" y="198" type="line"/>
      <point x="99" y="198" type="line"/>
    </contour>
  </outline>
</glyph>
<glyph name="five" format="2">
  <advance width="535"/>
  <unicode hex="0035"/>
  <outline>
    <contour>
      <point x="445.255" y="667" type="line"/>
      <point x="156.056" y="667" type="line"/>
      <point x="108.215" y="344.806" type="line"/>
      <point x="158.375" y="322.153" type="line"/>
      <point x="192.457" y="365.222"/>
      <point x="220.8" y="379.169"/>
      <point x="267.801" y="379.169" type="curve" smooth="yes"/>
      <point x="352.7" y="379.169"/>
      <point x="406.321" y="315.465"/>
      <point x="406.321" y="214.88" type="curve" smooth="yes"/>
      <point x="406.321" y="106.395"/>
      <point x="335.811" y="27.7991"/>
      <point x="237.757" y="27.7991" type="curve" smooth="yes"/>
      <point x="179.57" y="27.7991"/>
      <point x="134.453" y="60.1619"/>
      <point x="104.351" y="120.916" type="curve"/>
      <point x="55.724" y="88.7477" type="line"/>
      <point x="101.721" y="16.4276"/>
      <point x="157.154" y="-13.4678"/>
      <point x="240.865" y="-13.4678" type="curve" smooth="yes"/>
      <point x="381.667" y="-13.4678"/>
      <point x="472.191" y="86.4804"/>
      <point x="472.191" y="225.24" type="curve" smooth="yes"/>
      <point x="472.191" y="341.382"/>
      <point x="395.492" y="420.436"/>
      <point x="284.377" y="420.436" type="curve" smooth="yes"/>
      <point x="241.057" y="420.436"/>
      <point x="209.302" y="406.424"/>
      <point x="158.858" y="365.789" type="curve"/>
      <point x="202.587" y="625.733" type="line"/>
      <point x="445.255" y="625.733" type="line"/>
    </contour>
  </outline>
</glyph>
<glyph name="six" format="2">
  <advance width="539"/>
  <unicode hex="0036"/>
  <outline>
    <contour>
      <point x="447.543" y="640.751" type="line"/>
      <point x="410.403" y="670.836"/>
      <point x="381.418" y="680.468"/>
      <point x="336.032" y="680.468" type="curve" smooth="yes"/>
      <point x="176.347" y="680.468"/>
      <point x="71.5547" y="521.546"/>
      <point x="71.5547" y="280.147" type="curve" smooth="yes"/>
      <point x="71.5547" y="93.0298"/>
      <point x="146.632" y="-13.4678"/>
      <point x="278.017" y="-13.4678" type="curve" smooth="yes"/>
      <point x="392.328" y="-13.4678"/>
      <point x="474.119" y="77.8515"/>
      <point x="474.119" y="204.52" type="curve" smooth="yes"/>
      <point x="474.119" y="325.616"/>
      <point x="406.535" y="401.789"/>
      <point x="299.772" y="401.789" type="curve" smooth="yes"/>
      <point x="238.41" y="401.789"/>
      <point x="191.272" y="374.709"/>
      <point x="131.955" y="307.655" type="curve"/>
      <point x="141.209" y="429.268"/>
      <point x="153.467" y="484.462" name="hr01"/>
      <point x="180.059" y="534.455" type="curve" smooth="yes"/>
      <point x="216.444" y="601.713"/>
      <point x="270.355" y="639.201"/>
      <point x="331.888" y="639.201" type="curve" smooth="yes"/>
      <point x="372.757" y="639.201"/>
      <point x="399.03" y="627.342"/>
      <point x="422.261" y="596.337" type="curve"/>
    </contour>
    <contour>
      <point x="279.053" y="360.522" type="curve" smooth="yes"/>
      <point x="363.311" y="360.522"/>
      <point x="408.249" y="302.434"/>
      <point x="408.249" y="195.196" type="curve" smooth="yes"/>
      <point x="408.249" y="92.5261"/>
      <point x="355.651" y="27.7991"/>
      <point x="272.837" y="27.7991" type="curve" smooth="yes"/>
      <point x="190.023" y="27.7991"/>
      <point x="137.425" y="94.6639"/>
      <point x="137.425" y="198.304" type="curve" smooth="yes"/>
      <point x="137.425" y="298.991"/>
      <point x="190.953" y="360.522"/>
    </contour>
  </outline>
</glyph>
<glyph name="seven" format="2">
  <advance width="537"/>
  <unicode hex="0037"/>
  <outline>
    <contour>
      <point x="461.723" y="667" type="line"/>
      <point x="85.0585" y="667" type="line"/>
      <point x="85.0585" y="625.733" type="line"/>
      <point x="405.639" y="625.733" type="line"/>
      <point x="125.924" y="0" type="line"/>
      <point x="186.045" y="0" type="line"/>
      <point x="461.723" y="619.766" type="line"/>
    </contour>
  </outline>
</glyph>
<glyph name="eight" format="2">
  <advance width="538"/>
  <unicode hex="0038"/>
  <outline>
    <contour>
      <point x="175.992" y="362.201" type="line" smooth="yes"/>
      <point x="97.1416" y="331.537"/>
      <point x="68.4468" y="274.12" name="hr01"/>
      <point x="68.4468" y="188.981" type="curve" smooth="yes"/>
      <point x="68.4468" y="63.9189"/>
      <point x="144.185" y="-13.4678"/>
      <point x="268.693" y="-13.4678" type="curve" smooth="yes"/>
      <point x="393.727" y="-13.4678"/>
      <point x="469.975" y="62.9661"/>
      <point x="469.975" y="188.981" type="curve" smooth="yes"/>
      <point x="469.975" y="240.786"/>
      <point x="455.281" y="288.721"/>
      <point x="428.831" y="320.068" type="curve" smooth="yes"/>
      <point x="413.954" y="337.735"/>
      <point x="393.368" y="350.247"/>
      <point x="341.155" y="371.132" type="curve"/>
      <point x="412.09" y="413.938"/>
      <point x="445.111" y="461.229"/>
      <point x="445.111" y="518.423" type="curve" smooth="yes"/>
      <point x="445.111" y="617.772"/>
      <point x="376.504" y="680.468" name="hr02"/>
      <point x="268.693" y="680.468" type="curve" smooth="yes"/>
      <point x="161.896" y="680.468"/>
      <point x="93.3103" y="617.772"/>
      <point x="93.3103" y="518.423" type="curve" smooth="yes"/>
      <point x="93.3103" y="461.263"/>
      <point x="127.577" y="413.811"/>
      <point x="198.559" y="370.977" type="curve"/>
    </contour>
    <contour>
      <point x="269.729" y="639.201" type="curve" smooth="yes"/>
      <point x="343.354" y="639.201"/>
      <point x="387.529" y="591.108"/>
      <point x="387.529" y="513.243" type="curve" smooth="yes"/>
      <point x="387.529" y="433.157"/>
      <point x="343.425" y="386.249"/>
      <point x="267.657" y="386.249" type="curve" smooth="yes"/>
      <point x="195.104" y="386.249"/>
      <point x="150.893" y="434.301"/>
      <point x="150.893" y="513.243" type="curve" smooth="yes"/>
      <point x="150.893" y="592.253"/>
      <point x="195.032" y="639.201"/>
    </contour>
    <contour>
      <point x="271.801" y="344.982" type="curve" smooth="yes"/>
      <point x="356.906" y="344.982"/>
      <point x="406.177" y="286.685"/>
      <point x="406.177" y="186.909" type="curve" smooth="yes"/>
      <point x="406.177" y="84.944"/>
      <point x="355.848" y="27.7991"/>
      <point x="269.729" y="27.7991" type="curve" smooth="yes"/>
      <point x="182.544" y="27.7991"/>
      <point x="132.245" y="84.9746"/>
      <point x="132.245" y="185.873" type="curve" smooth="yes"/>
      <point x="132.245" y="288.958"/>
      <point x="181.369" y="344.982"/>
    </contour>
  </outline>
</glyph>
<glyph name="nine" format="2">
  <advance width="538"/>
  <unicode hex="0039"/>
  <outline>
    <contour>
      <point x="79.1966" y="3.35374" type="line"/>
      <point x="106.762" y="-8.65897"/>
      <point x="134.086" y="-13.4678"/>
      <point x="174.419" y="-13.4678" type="curve" smooth="yes"/>
      <point x="353.564" y="-13.4678"/>
      <point x="460.651" y="136.378"/>
      <point x="460.651" y="384.781" type="curve" smooth="yes"/>
      <point x="460.651" y="587.879"/>
      <point x="399.586" y="680.468"/>
      <point x="266.621" y="680.468" type="curve" smooth="yes"/>
      <point x="142.239" y="680.468"/>
      <point x="63.2669" y="592.929"/>
      <point x="63.2669" y="455.228" type="curve" smooth="yes"/>
      <point x="63.2669" y="346.267"/>
      <point x="120.263" y="255.888"/>
      <point x="237.613" y="255.888" type="curve" smooth="yes"/>
      <point x="295.933" y="255.888"/>
      <point x="343.708" y="283.6"/>
      <point x="403.092" y="349.583" type="curve"/>
      <point x="385.943" y="213.711"/>
      <point x="368.997" y="159.331"/>
      <point x="328.436" y="107.029" type="curve" smooth="yes"/>
      <point x="289.921" y="57.5104"/>
      <point x="231.018" y="27.7991"/>
      <point x="170.275" y="27.7991" type="curve" smooth="yes"/>
      <point x="138.048" y="27.7991"/>
      <point x="116.645" y="33.9468"/>
      <point x="92.033" y="49.9699" type="curve"/>
    </contour>
    <contour>
      <point x="264.549" y="639.201" type="curve" smooth="yes"/>
      <point x="365.479" y="639.201"/>
      <point x="394.781" y="550.981"/>
      <point x="394.781" y="464.552" type="curve" smooth="yes"/>
      <point x="394.781" y="362.997"/>
      <point x="340.075" y="297.154"/>
      <point x="255.225" y="297.154" type="curve" smooth="yes"/>
      <point x="171.857" y="297.154"/>
      <point x="130.173" y="354.042"/>
      <point x="130.173" y="465.588" type="curve" smooth="yes"/>
      <point x="130.173" y="577.991"/>
      <point x="177.205" y="639.201"/>
    </contour>
  </outline>
</glyph>
<glyph name="colon" format="2">
  <advance width="211"/>
  <unicode hex="003A"/>
  <outline>
    <contour>
      <point x="106.044" y="73.3823" type="curve" smooth="yes"/>
      <point x="80.5522" y="73.3823"/>
      <point x="60.1589" y="53.9527"/>
      <point x="60.1589" y="30.4753" type="curve" smooth="yes"/>
      <point x="60.1589" y="6.06247"/>
      <point x="80.5522" y="-13.4678"/>
      <point x="106.044" y="-13.4678" type="curve" smooth="yes"/>
      <point x="130.584" y="-13.4678"/>
      <point x="150.893" y="6.06247"/>
      <point x="150.893" y="30.4753" type="curve" smooth="yes"/>
      <point x="150.893" y="53.9527"/>
      <point x="130.584" y="73.3823"/>
    </contour>
    <contour>
      <point x="106.044" y="418.364" type="curve" smooth="yes"/>
      <point x="80.5522" y="418.364"/>
      <point x="60.1589" y="398.935"/>
      <point x="60.1589" y="375.457" type="curve" smooth="yes"/>
      <point x="60.1589" y="351.044"/>
      <point x="80.5522" y="331.514"/>
      <point x="106.044" y="331.514" type="curve" smooth="yes"/>
      <point x="130.584" y="331.514"/>
      <point x="150.893" y="351.044"/>
      <point x="150.893" y="375.457" type="curve" smooth="yes"/>
      <point x="150.893" y="398.935"/>
      <point x="130.584" y="418.364"/>
    </contour>
  </outline>
</glyph>
<glyph name="semicolon" format="2">
  <advance width="207"/>
  <unicode hex="003B"/>
  <outline>
    <contour>
      <point x="129.281" y="86.8501" type="line"/>
      <point x="70.6627" y="86.8501" type="line"/>
      <point x="70.6627" y="25.2954" type="line" smooth="yes"/>
      <point x="70.6627" y="5.6517"/>
      <point x="63.9415" y="-17.0074"/>
      <point x="46.1568" y="-62.9511" type="curve" smooth="yes"/>
      <point x="15.1835" y="-142.966" type="line"/>
      <point x="39.2222" y="-142.966" type="line"/>
      <point x="129.281" y="-7.87751" type="line"/>
    </contour>
    <contour>
      <point x="97.8998" y="439.084" type="curve" smooth="yes"/>
      <point x="72.4082" y="439.084"/>
      <point x="52.015" y="419.654"/>
      <point x="52.015" y="396.177" type="curve" smooth="yes"/>
      <point x="52.015" y="371.764"/>
      <point x="72.4082" y="352.234"/>
      <point x="97.8998" y="352.234" type="curve" smooth="yes"/>
      <point x="122.44" y="352.234"/>
      <point x="142.749" y="371.764"/>
      <point x="142.749" y="396.177" type="curve" smooth="yes"/>
      <point x="142.749" y="419.654"/>
      <point x="122.44" y="439.084"/>
    </contour>
  </outline>
</glyph>
<glyph name="less" format="2">
  <advance width="505"/>
  <unicode hex="003C"/>
  <outline>
    <contour>
      <point x="14.5037" y="337.38" type="line"/>
      <point x="469.16" y="150.88" type="line"/>
      <point x="487.976" y="172.463" type="line"/>
      <point x="49.3616" y="346.415" type="line"/>
      <point x="490.422" y="522.41" type="line"/>
      <point x="479.44" y="539.599" type="line"/>
      <point x="14.5037" y="356.443" type="line"/>
    </contour>
  </outline>
</glyph>
<glyph name="equal" format="2">
  <advance width="519"/>
  <unicode hex="003D"/>
  <outline>
    <contour>
      <point x="12" y="425" type="line"/>
      <point x="12" y="389" type="line"/>
      <point x="507" y="389" type="line"/>
      <point x="507" y="425" type="line"/>
    </contour>
    <contour>
      <point x="12" y="294" type="line"/>
      <point x="12" y="259" type="line"/>
      <point x="507" y="259" type="line"/>
      <point x="507" y="294" type="line"/>
    </contour>
  </outline>
</glyph>
<glyph name="greater" format="2">
  <advance width="502"/>
  <unicode hex="003E"/>
  <outline>
    <contour>
      <point x="491" y="355" type="line"/>
      <point x="29" y="538" type="line"/>
      <point x="11" y="509" type="line"/>
      <point x="435" y="339" type="line"/>
      <point x="11" y="172" type="line"/>
      <point x="40" y="139" type="line"/>
      <point x="491" y="325" type="line"/>
    </contour>
  </outline>
</glyph>
<glyph name="question" format="2">
  <advance width="325"/>
  <unicode hex="003F"/>
  <outline>
    <contour>
      <point x="69.4548" y="560.382" type="line"/>
      <point x="83.0613" y="608.77"/>
      <point x="112.364" y="632.985"/>
      <point x="156.879" y="632.985" type="curve" smooth="yes"/>
      <point x="208.285" y="632.985"/>
      <point x="245.672" y="595.91"/>
      <point x="245.672" y="543.286" type="curve" smooth="yes"/>
      <point x="245.672" y="495.59"/>
      <point x="225.211" y="459.21"/>
      <point x="164.906" y="399.982" type="curve" smooth="yes"/>
      <point x="103.052" y="341.121"/>
      <point x="85.0945" y="307.973"/>
      <point x="85.0945" y="259.427" type="curve" smooth="yes"/>
      <point x="85.0945" y="229.083"/>
      <point x="92.2307" y="208.008"/>
      <point x="113.256" y="183.369" type="curve"/>
      <point x="164.618" y="183.369" type="line"/>
      <point x="146.616" y="210.68"/>
      <point x="138.533" y="238.166"/>
      <point x="138.533" y="267.715" type="curve" smooth="yes"/>
      <point x="138.533" y="298.36"/>
      <point x="152.858" y="326.759"/>
      <point x="183.652" y="359.738" type="curve" smooth="yes"/>
      <point x="252.025" y="434.328"/>
      <point x="252.025" y="434.328"/>
      <point x="265.668" y="454.792" type="curve"/>
      <point x="285.274" y="482.24"/>
      <point x="297.038" y="520.928"/>
      <point x="297.038" y="551.574" type="curve" smooth="yes"/>
      <point x="297.038" y="629.154"/>
      <point x="240.761" y="680.468"/>
      <point x="165.167" y="680.468" type="curve" smooth="yes"/>
      <point x="91.7811" y="680.468"/>
      <point x="46.6807" y="651.621"/>
      <point x="20.1193" y="583.945" type="curve"/>
    </contour>
    <contour>
      <point x="142.375" y="73.3823" type="curve" smooth="yes"/>
      <point x="117.835" y="73.3823"/>
      <point x="97.5262" y="53.9527" name="hr01"/>
      <point x="97.5262" y="30.4753" type="curve" smooth="yes"/>
      <point x="97.5262" y="6.06247"/>
      <point x="117.919" y="-13.4678"/>
      <point x="143.411" y="-13.4678" type="curve" smooth="yes"/>
      <point x="167.951" y="-13.4678"/>
      <point x="188.26" y="6.06247"/>
      <point x="188.26" y="30.4753" type="curve" smooth="yes"/>
      <point x="188.26" y="53.9527"/>
      <point x="167.867" y="73.3823"/>
    </contour>
  </outline>
</glyph>
<glyph name="at" format="2">
  <advance width="740"/>
  <unicode hex="0040"/>
  <outline>
    <contour>
      <point x="501.468" y="474.057" type="line"/>
      <point x="485.535" y="400.184" type="line"/>
      <point x="452.538" y="453.804"/>
      <point x="410.038" y="485.426"/>
      <point x="373.873" y="485.426" type="curve" smooth="yes"/>
      <point x="286.311" y="485.426"/>
      <point x="208.266" y="396.836"/>
      <point x="208.266" y="296.936" type="curve" smooth="yes"/>
      <point x="208.266" y="218.567" name="hr01"/>
      <point x="260.153" y="161.157"/>
      <point x="331.498" y="161.157" type="curve" smooth="yes"/>
      <point x="377.395" y="161.157"/>
      <point x="431.637" y="196.634"/>
      <point x="474.717" y="254.918" type="curve"/>
      <point x="486.411" y="202.943"/>
      <point x="515.601" y="170.458"/>
      <point x="547.506" y="170.458" type="curve" smooth="yes"/>
      <point x="630.959" y="170.458"/>
      <point x="705.878" y="274.591"/>
      <point x="705.878" y="393.054" type="curve" smooth="yes"/>
      <point x="705.878" y="557.031"/>
      <point x="577.372" y="672.495"/>
      <point x="393.51" y="672.495" type="curve" smooth="yes"/>
      <point x="196.718" y="672.495"/>
      <point x="36.7002" y="515.271"/>
      <point x="36.7002" y="320.707" type="curve" smooth="yes"/>
      <point x="36.7002" y="232.225"/>
      <point x="75.318" y="141.135"/>
      <point x="137.447" y="82.0244" type="curve"/>
      <point x="200.2" y="25.1545"/>
      <point x="282.799" y="-5.24146"/>
      <point x="389.376" y="-5.24146" type="curve" smooth="yes"/>
      <point x="454.453" y="-5.24146"/>
      <point x="519.363" y="3.15218"/>
      <point x="574.701" y="18.6989" type="curve"/>
      <point x="565.954" y="53.1715" type="line"/>
      <point x="506.96" y="35.8545"/>
      <point x="451.839" y="26.5396"/>
      <point x="391.443" y="26.5396" type="curve" smooth="yes"/>
      <point x="293.01" y="26.5396"/>
      <point x="225.83" y="52.0086"/>
      <point x="169.356" y="109.591" type="curve" smooth="yes"/>
      <point x="119.285" y="161.838"/>
      <point x="89.8955" y="239.908"/>
      <point x="89.8955" y="320.707" type="curve" smooth="yes"/>
      <point x="89.8955" y="500.402"/>
      <point x="227.405" y="641.747"/>
      <point x="402.812" y="641.747" type="curve" smooth="yes"/>
      <point x="563.347" y="641.747"/>
      <point x="668.186" y="542.525"/>
      <point x="668.186" y="392.021" type="curve" smooth="yes"/>
      <point x="668.186" y="296.411"/>
      <point x="609.1" y="193.971"/>
      <point x="554.74" y="193.971" type="curve" smooth="yes"/>
      <point x="526.384" y="193.971"/>
      <point x="508.474" y="216.305"/>
      <point x="508.474" y="253.528" type="curve" smooth="yes"/>
      <point x="508.474" y="261.835"/>
      <point x="510.643" y="282.293"/>
      <point x="516.034" y="305.974" type="curve" smooth="yes"/>
      <point x="552.574" y="474.057" type="line"/>
    </contour>
    <contour>
      <point x="388.342" y="440.209" type="curve" smooth="yes"/>
      <point x="440.166" y="440.209"/>
      <point x="475.95" y="399.663"/>
      <point x="475.95" y="341.378" type="curve" smooth="yes"/>
      <point x="475.95" y="269.944"/>
      <point x="421.59" y="203.273"/>
      <point x="362.504" y="203.273" type="curve" smooth="yes"/>
      <point x="309.566" y="203.273"/>
      <point x="273.863" y="243.724"/>
      <point x="273.863" y="303.137" type="curve" smooth="yes"/>
      <point x="273.863" y="375.845"/>
      <point x="328.152" y="440.209"/>
    </contour>
  </outline>
</glyph>
<glyph name="A" format="2">
  <advance width="590"/>
  <unicode hex="0041"/>
  <outline>
    <contour>
      <point x="327.738" y="667" type="line"/>
      <point x="263.735" y="667" type="line"/>
      <point x="-2.26514" y="0" type="line"/>
      <point x="64.397" y="0" type="line"/>
      <point x="147.276" y="223.772" type="line"/>
      <point x="440.99" y="223.772" type="line"/>
      <point x="526.976" y="0" type="line"/>
      <point x="593.738" y="0" type="line"/>
    </contour>
    <contour>
      <point x="423.296" y="267.111" type="line"/>
      <point x="165.245" y="267.111" type="line"/>
      <point x="292.503" y="606.466" type="line"/>
    </contour>
  </outline>
</glyph>
<glyph name="B" format="2">
  <advance width="539"/>
  <unicode hex="0042"/>
  <outline>
    <contour>
      <point x="93.3463" y="0" type="line"/>
      <point x="263.549" y="0" type="line" smooth="yes"/>
      <point x="318.948" y="0"/>
      <point x="368.731" y="11.7131" name="hr01"/>
      <point x="398.972" y="31.2213" type="curve" smooth="yes"/>
      <point x="452.034" y="65.6136"/>
      <point x="483.479" y="126.083"/>
      <point x="483.479" y="193.124" type="curve" smooth="yes"/>
      <point x="483.479" y="297.464"/>
      <point x="421.389" y="331.617"/>
      <point x="335.479" y="364.809" type="curve"/>
      <point x="413.089" y="410.89"/>
      <point x="448.255" y="459.268"/>
      <point x="448.255" y="519.459" type="curve" smooth="yes"/>
      <point x="448.255" y="571.864"/>
      <point x="424.044" y="616.895"/>
      <point x="381.575" y="643.905" type="curve" smooth="yes"/>
      <point x="351.744" y="662.189"/>
      <point x="325.846" y="667"/>
      <point x="245.937" y="667" type="curve" smooth="yes"/>
      <point x="93.3463" y="667" type="line"/>
    </contour>
    <contour>
      <point x="156.108" y="377.961" type="line"/>
      <point x="156.108" y="625.733" type="line"/>
      <point x="245.937" y="625.733" type="line" smooth="yes"/>
      <point x="324.604" y="625.733"/>
      <point x="379.277" y="598.065"/>
      <point x="379.277" y="510.135" type="curve" smooth="yes"/>
      <point x="379.277" y="406.513"/>
      <point x="310.86" y="377.961"/>
      <point x="219.002" y="377.961" type="curve" smooth="yes"/>
    </contour>
    <contour>
      <point x="156.108" y="41.2669" type="line"/>
      <point x="156.108" y="336.694" type="line"/>
      <point x="236.613" y="336.694" type="line" smooth="yes"/>
      <point x="287.595" y="336.694"/>
      <point x="313.468" y="333.344"/>
      <point x="336.844" y="323.332" type="curve" smooth="yes"/>
      <point x="385.295" y="303.05"/>
      <point x="413.465" y="255.531"/>
      <point x="413.465" y="192.088" type="curve" smooth="yes"/>
      <point x="413.465" y="88.8815"/>
      <point x="340.877" y="41.2669"/>
      <point x="244.901" y="41.2669" type="curve" smooth="yes"/>
    </contour>
  </outline>
</glyph>
<glyph name="C" format="2">
  <advance width="634"/>
  <unicode hex="0043"/>
  <outline>
    <contour>
      <point x="623.439" y="582.603" type="line"/>
      <point x="561.835" y="654.526"/>
      <point x="482.814" y="680.468"/>
      <point x="388.831" y="680.468" type="curve" smooth="yes"/>
      <point x="184.603" y="680.468"/>
      <point x="50.7991" y="540.189"/>
      <point x="50.7991" y="326.766" type="curve" smooth="yes"/>
      <point x="50.7991" y="111.056"/>
      <point x="174.514" y="-13.4678"/>
      <point x="387.795" y="-13.4678" type="curve" smooth="yes"/>
      <point x="482.254" y="-13.4678"/>
      <point x="561.525" y="12.0763"/>
      <point x="623.511" y="84.4786" type="curve"/>
      <point x="580.488" y="126.018" type="line"/>
      <point x="537.788" y="54.7054"/>
      <point x="473.012" y="27.7991"/>
      <point x="389.867" y="27.7991" type="curve" smooth="yes"/>
      <point x="312.929" y="27.7991"/>
      <point x="234.385" y="59.3781"/>
      <point x="189.81" y="108.289" type="curve" smooth="yes"/>
      <point x="146.687" y="154.646"/>
      <point x="120.813" y="237.501"/>
      <point x="120.813" y="327.802" type="curve" smooth="yes"/>
      <point x="120.813" y="517.443"/>
      <point x="225.206" y="639.201"/>
      <point x="389.867" y="639.201" type="curve" smooth="yes"/>
      <point x="477.795" y="639.201"/>
      <point x="538.135" y="606.983"/>
      <point x="580.397" y="541.788" type="curve"/>
    </contour>
  </outline>
</glyph>
<glyph name="D" format="2">
  <advance width="672"/>
  <unicode hex="0044"/>
  <outline>
    <contour>
      <point x="99" y="667" type="line"/>
      <point x="99" y="0" type="line"/>
      <point x="288" y="0" type="line" smooth="yes"/>
      <point x="362" y="0"/>
      <point x="430" y="15"/>
      <point x="475" y="43" type="curve" smooth="yes"/>
      <point x="565" y="97"/>
      <point x="618" y="209"/>
      <point x="618" y="342" type="curve" smooth="yes"/>
      <point x="618" y="458"/>
      <point x="579" y="559"/>
      <point x="515" y="611" type="curve" smooth="yes"/>
      <point x="464" y="652"/>
      <point x="404" y="667"/>
      <point x="285" y="667" type="curve" smooth="yes"/>
    </contour>
    <contour>
      <point x="152" y="623" type="line"/>
      <point x="302" y="623" type="line" smooth="yes"/>
      <point x="385" y="623"/>
      <point x="435" y="611"/>
      <point x="469" y="584" type="curve" smooth="yes"/>
      <point x="528" y="537"/>
      <point x="560" y="451"/>
      <point x="560" y="341" type="curve" smooth="yes"/>
      <point x="560" y="233"/>
      <point x="531" y="150"/>
      <point x="475" y="99" type="curve" smooth="yes"/>
      <point x="437" y="65"/>
      <point x="372" y="44"/>
      <point x="302" y="44" type="curve" smooth="yes"/>
      <point x="152" y="44" type="line"/>
    </contour>
  </outline>
</glyph>
<glyph name="E" format="2">
  <advance width="483"/>
  <unicode hex="0045"/>
  <outline>
    <contour>
      <point x="156.108" y="361.385" type="line"/>
      <point x="156.108" y="625.733" type="line"/>
      <point x="410.96" y="625.733" type="line"/>
      <point x="410.96" y="667" type="line"/>
      <point x="93.3463" y="667" type="line"/>
      <point x="93.3463" y="0" type="line"/>
      <point x="448.255" y="0" type="line"/>
      <point x="448.255" y="41.2669" type="line"/>
      <point x="156.108" y="41.2669" type="line"/>
      <point x="156.108" y="320.118" type="line"/>
      <point x="410.96" y="320.118" type="line"/>
      <point x="410.96" y="361.385" type="line"/>
    </contour>
  </outline>
</glyph>
<glyph name="F" format="2">
  <advance width="426"/>
  <unicode hex="0046"/>
  <outline>
    <contour>
      <point x="156.108" y="357.241" type="line"/>
      <point x="156.108" y="625.733" type="line"/>
      <point x="405.78" y="625.733" type="line"/>
      <point x="405.78" y="667" type="line"/>
      <point x="93.3463" y="667" type="line"/>
      <point x="93.3463" y="0" type="line"/>
      <point x="156.108" y="0" type="line"/>
      <point x="156.108" y="315.975" type="line"/>
      <point x="380.917" y="315.975" type="line"/>
      <point x="380.917" y="357.241" type="line"/>
    </contour>
  </outline>
</glyph>
<glyph name="G" format="2">
  <advance width="675"/>
  <unicode hex="0047"/>
  <outline>
    <contour>
      <point x="358.486" y="308.55" type="line"/>
      <point x="358.486" y="267.283" type="line"/>
      <point x="551.178" y="267.283" type="line"/>
      <point x="551.178" y="59.3952" type="line"/>
      <point x="497.348" y="35.9907"/>
      <point x="457.44" y="27.7991"/>
      <point x="398.155" y="27.7991" type="curve" smooth="yes"/>
      <point x="211.24" y="27.7991"/>
      <point x="120.813" y="148.238"/>
      <point x="120.813" y="326.766" type="curve" smooth="yes"/>
      <point x="120.813" y="517.459"/>
      <point x="226.298" y="639.201"/>
      <point x="388.831" y="639.201" type="curve" smooth="yes"/>
      <point x="473.786" y="639.201"/>
      <point x="536.921" y="608.871"/>
      <point x="580.754" y="536.281" type="curve"/>
      <point x="626.446" y="575.98" type="line"/>
      <point x="565.906" y="650.481"/>
      <point x="483.149" y="680.468"/>
      <point x="387.795" y="680.468" type="curve" smooth="yes"/>
      <point x="184.591" y="680.468"/>
      <point x="50.7991" y="539.174"/>
      <point x="50.7991" y="325.73" type="curve" smooth="yes"/>
      <point x="50.7991" y="105.111"/>
      <point x="178.816" y="-13.4678"/>
      <point x="394.011" y="-13.4678" type="curve" smooth="yes"/>
      <point x="476.6" y="-13.4678"/>
      <point x="534.259" y="-0.897623"/>
      <point x="613.941" y="34.6301" type="curve"/>
      <point x="613.941" y="308.55" type="line"/>
    </contour>
  </outline>
</glyph>
<glyph name="H" format="2">
  <advance width="692"/>
  <unicode hex="0048"/>
  <outline>
    <contour>
      <point x="597.437" y="667" type="line"/>
      <point x="534.675" y="667" type="line"/>
      <point x="534.675" y="359.313" type="line"/>
      <point x="156.108" y="359.313" type="line"/>
      <point x="156.108" y="667" type="line"/>
      <point x="93.3463" y="667" type="line"/>
      <point x="93.3463" y="0" type="line"/>
      <point x="156.108" y="0" type="line"/>
      <point x="156.108" y="318.046" type="line"/>
      <point x="534.675" y="318.046" type="line"/>
      <point x="534.675" y="0" type="line"/>
      <point x="597.437" y="0" type="line"/>
    </contour>
  </outline>
</glyph>
<glyph name="I" format="2">
  <advance width="251"/>
  <unicode hex="0049"/>
  <outline>
    <contour>
      <point x="156.108" y="667" type="line"/>
      <point x="93.3463" y="667" type="line"/>
      <point x="93.3463" y="0" type="line"/>
      <point x="156.108" y="0" type="line"/>
    </contour>
  </outline>
</glyph>
<glyph name="J" format="2">
  <advance width="356"/>
  <unicode hex="004A"/>
  <outline>
    <contour>
      <point x="269.03" y="667" type="line"/>
      <point x="206.268" y="667" type="line"/>
      <point x="206.268" y="195.196" type="line" smooth="yes"/>
      <point x="206.268" y="118.586"/>
      <point x="200.468" y="31.943"/>
      <point x="99.8638" y="31.943" type="curve" smooth="yes"/>
      <point x="52.6215" y="31.943"/>
      <point x="22.2258" y="50.5548"/>
      <point x="-1.6886" y="92.6256" type="curve"/>
      <point x="-44.9676" y="59.6162" type="line"/>
      <point x="-28.9162" y="35.835"/>
      <point x="-18.0706" y="24.8822"/>
      <point x="-1.98932" y="13.2679" type="curve"/>
      <point x="-2.37396" y="13.5834" type="line"/>
      <point x="22.745" y="-2.84054"/>
      <point x="64.0952" y="-13.4678"/>
      <point x="102.972" y="-13.4678" type="curve" smooth="yes"/>
      <point x="159.149" y="-13.4678"/>
      <point x="208.028" y="9.64535"/>
      <point x="237.882" y="50.0933" type="curve" smooth="yes"/>
      <point x="262.217" y="82.2148"/>
      <point x="269.03" y="116.789"/>
      <point x="269.03" y="196.232" type="curve" smooth="yes"/>
    </contour>
  </outline>
</glyph>
<glyph name="K" format="2">
  <advance width="539"/>
  <unicode hex="004B"/>
  <outline>
    <contour>
      <point x="156.108" y="667" type="line"/>
      <point x="93.3463" y="667" type="line"/>
      <point x="93.3463" y="0" type="line"/>
      <point x="156.108" y="0" type="line"/>
      <point x="156.108" y="353.562" type="line"/>
      <point x="486.965" y="0" type="line"/>
      <point x="568.763" y="0" type="line"/>
      <point x="232.825" y="357.999" type="line"/>
      <point x="532.855" y="667" type="line"/>
      <point x="467.189" y="667" type="line"/>
      <point x="156.108" y="345.081" type="line"/>
    </contour>
  </outline>
</glyph>
<glyph name="L" format="2">
  <advance width="426"/>
  <unicode hex="004C"/>
  <outline>
    <contour>
      <point x="152" y="667" type="line"/>
      <point x="99" y="667" type="line"/>
      <point x="99" y="0" type="line"/>
      <point x="427" y="0" type="line"/>
      <point x="427" y="44" type="line"/>
      <point x="152" y="44" type="line"/>
    </contour>
  </outline>
</glyph>
<glyph name="M" format="2">
  <advance width="861"/>
  <unicode hex="004D"/>
  <outline>
    <contour>
      <point x="766.302" y="667" type="line"/>
      <point x="699.421" y="667" type="line"/>
      <point x="430.359" y="79.09" type="line"/>
      <point x="160.239" y="667" type="line"/>
      <point x="93.3463" y="667" type="line"/>
      <point x="93.3463" y="0" type="line"/>
      <point x="153" y="0" type="line"/>
      <point x="153" y="507.905" type="line"/>
      <point x="170.432" y="512.466" type="line"/>
      <point x="406.218" y="0" type="line"/>
      <point x="453.429" y="0" type="line"/>
      <point x="531.09" y="168.574"/>
      <point x="611.619" y="344.056"/>
      <point x="689.216" y="512.466" type="curve"/>
      <point x="706.648" y="507.905" type="line"/>
      <point x="706.648" y="0" type="line"/>
      <point x="766.302" y="0" type="line"/>
    </contour>
  </outline>
</glyph>
<glyph name="N" format="2">
  <advance width="717"/>
  <unicode hex="004E"/>
  <outline>
    <contour>
      <point x="618" y="667" type="line"/>
      <point x="568" y="667" type="line"/>
      <point x="568" y="84" type="line"/>
      <point x="151" y="667" type="line"/>
      <point x="99" y="667" type="line"/>
      <point x="99" y="0" type="line"/>
      <point x="149" y="0" type="line"/>
      <point x="149" y="586" type="line"/>
      <point x="568" y="0" type="line"/>
      <point x="618" y="0" type="line"/>
    </contour>
  </outline>
</glyph>
<glyph name="O" format="2">
  <advance width="725"/>
  <unicode hex="004F"/>
  <outline>
    <contour>
      <point x="363" y="680" type="curve" smooth="yes"/>
      <point x="170" y="680"/>
      <point x="53" y="551"/>
      <point x="53" y="339" type="curve" smooth="yes"/>
      <point x="53" y="115"/>
      <point x="166" y="-13"/>
      <point x="363" y="-13" type="curve" smooth="yes"/>
      <point x="557" y="-13"/>
      <point x="672" y="116"/>
      <point x="672" y="334" type="curve" smooth="yes"/>
      <point x="672" y="551"/>
      <point x="557" y="680"/>
    </contour>
    <contour>
      <point x="363" y="637" type="curve" smooth="yes"/>
      <point x="427" y="637"/>
      <point x="492" y="613"/>
      <point x="532" y="575" type="curve" smooth="yes"/>
      <point x="583" y="525"/>
      <point x="613" y="437"/>
      <point x="613" y="334" type="curve" smooth="yes"/>
      <point x="613" y="230"/>
      <point x="584" y="142"/>
      <point x="532" y="92" type="curve" smooth="yes"/>
      <point x="492" y="54"/>
      <point x="427" y="30"/>
      <point x="363" y="30" type="curve" smooth="yes"/>
      <point x="203" y="30"/>
      <point x="112" y="142"/>
      <point x="112" y="338" type="curve" smooth="yes"/>
      <point x="112" y="437"/>
      <point x="143" y="527"/>
      <point x="193" y="575" type="curve" smooth="yes"/>
      <point x="234" y="614"/>
      <point x="297" y="637"/>
    </contour>
  </outline>
</glyph>
<glyph name="P" format="2">
  <advance width="474"/>
  <unicode hex="0050"/>
  <outline>
    <contour>
      <point x="93.3463" y="0" type="line"/>
      <point x="156.108" y="0" type="line"/>
      <point x="156.108" y="310.795" type="line"/>
      <point x="231.434" y="310.795" type="line" smooth="yes"/>
      <point x="352.968" y="310.795"/>
      <point x="459.651" y="362.738"/>
      <point x="459.651" y="500.811" type="curve" smooth="yes"/>
      <point x="459.651" y="555.803"/>
      <point x="438.23" y="604.198"/>
      <point x="400.441" y="634.212" type="curve"/>
      <point x="368.617" y="658.321"/>
      <point x="331.826" y="667"/>
      <point x="252.153" y="667" type="curve" smooth="yes"/>
      <point x="93.3463" y="667" type="line"/>
    </contour>
    <contour>
      <point x="156.108" y="352.061" type="line"/>
      <point x="156.108" y="625.733" type="line"/>
      <point x="254.225" y="625.733" type="line" smooth="yes"/>
      <point x="341.033" y="625.733"/>
      <point x="389.637" y="590.689"/>
      <point x="389.637" y="496.667" type="curve" smooth="yes"/>
      <point x="389.637" y="401.77"/>
      <point x="335.428" y="352.061"/>
      <point x="231.434" y="352.061" type="curve" smooth="yes"/>
    </contour>
  </outline>
</glyph>
<glyph name="Q" format="2">
  <advance width="731"/>
  <unicode hex="0051"/>
  <outline>
    <contour>
      <point x="824.683" y="-112.729" type="line"/>
      <point x="444.181" y="-12.1986" type="line"/>
      <point x="527.629" y="20.5843"/>
      <point x="562.774" y="39.6893"/>
      <point x="591.264" y="66.2136" type="curve" smooth="yes"/>
      <point x="655.418" y="125.356"/>
      <point x="687.495" y="214.591"/>
      <point x="687.495" y="330.91" type="curve" smooth="yes"/>
      <point x="687.495" y="536.531"/>
      <point x="584.113" y="680.468"/>
      <point x="369.147" y="680.468" type="curve" smooth="yes"/>
      <point x="156.597" y="680.468"/>
      <point x="50.7991" y="538.345"/>
      <point x="50.7991" y="334.018" type="curve" smooth="yes"/>
      <point x="50.7991" y="128.757"/>
      <point x="151.416" y="5.55216"/>
      <point x="333.534" y="-12.5589" type="curve"/>
      <point x="781.129" y="-156.282" type="line"/>
    </contour>
    <contour>
      <point x="369.147" y="639.201" type="curve" smooth="yes"/>
      <point x="523.546" y="639.201"/>
      <point x="617.481" y="523.83"/>
      <point x="617.481" y="332.982" type="curve" smooth="yes"/>
      <point x="617.481" y="143.186"/>
      <point x="523.546" y="27.7991"/>
      <point x="369.147" y="27.7991" type="curve" smooth="yes"/>
      <point x="212.589" y="27.7991"/>
      <point x="120.813" y="142.03"/>
      <point x="120.813" y="338.162" type="curve" smooth="yes"/>
      <point x="120.813" y="523.749"/>
      <point x="215.828" y="639.201"/>
    </contour>
  </outline>
</glyph>
<glyph name="R" format="2">
  <advance width="534"/>
  <unicode hex="0052"/>
  <outline>
    <contour>
      <point x="99" y="0" type="line"/>
      <point x="152" y="0" type="line"/>
      <point x="152" y="319" type="line"/>
      <point x="232" y="319" type="line"/>
      <point x="451" y="0" type="line"/>
      <point x="519" y="0" type="line"/>
      <point x="294" y="323" type="line"/>
      <point x="331" y="331"/>
      <point x="350" y="340"/>
      <point x="373" y="360" type="curve" smooth="yes"/>
      <point x="413" y="394"/>
      <point x="438" y="451"/>
      <point x="438" y="508" type="curve" smooth="yes"/>
      <point x="438" y="574"/>
      <point x="406" y="630"/>
      <point x="355" y="651" type="curve" smooth="yes"/>
      <point x="329" y="662"/>
      <point x="290" y="667"/>
      <point x="227" y="667" type="curve" smooth="yes"/>
      <point x="99" y="667" type="line"/>
    </contour>
    <contour>
      <point x="152" y="363" type="line"/>
      <point x="152" y="623" type="line"/>
      <point x="218" y="623" type="line" smooth="yes"/>
      <point x="296" y="623"/>
      <point x="300" y="623"/>
      <point x="318" y="616" type="curve" smooth="yes"/>
      <point x="357" y="602"/>
      <point x="378" y="565"/>
      <point x="378" y="509" type="curve" smooth="yes"/>
      <point x="378" y="457"/>
      <point x="359" y="411"/>
      <point x="327" y="388" type="curve" smooth="yes"/>
      <point x="300" y="369"/>
      <point x="275" y="363"/>
      <point x="216" y="363" type="curve" smooth="yes"/>
    </contour>
  </outline>
</glyph>
<glyph name="S" format="2">
  <advance width="436"/>
  <unicode hex="0053"/>
  <outline>
    <contour>
      <point x="372" y="604" type="line"/>
      <point x="333" y="655"/>
      <point x="286" y="680"/>
      <point x="228" y="680" type="curve" smooth="yes"/>
      <point x="137" y="680"/>
      <point x="65" y="606"/>
      <point x="65" y="513" type="curve" smooth="yes"/>
      <point x="65" y="473"/>
      <point x="80" y="435"/>
      <point x="105" y="406" type="curve" smooth="yes"/>
      <point x="127" y="382"/>
      <point x="145" y="368"/>
      <point x="209" y="325" type="curve" smooth="yes"/>
      <point x="264" y="289"/>
      <point x="282" y="275"/>
      <point x="299" y="257" type="curve" smooth="yes"/>
      <point x="321" y="235"/>
      <point x="333" y="204"/>
      <point x="333" y="168" type="curve" smooth="yes"/>
      <point x="333" y="88"/>
      <point x="280" y="34"/>
      <point x="200" y="34" type="curve" smooth="yes"/>
      <point x="139" y="34"/>
      <point x="89" y="71"/>
      <point x="60" y="137" type="curve"/>
      <point x="34" y="70" type="line"/>
      <point x="80" y="12"/>
      <point x="130" y="-13"/>
      <point x="197" y="-13" type="curve" smooth="yes"/>
      <point x="308" y="-13"/>
      <point x="386" y="64"/>
      <point x="386" y="174" type="curve" smooth="yes"/>
      <point x="386" y="222"/>
      <point x="371" y="260"/>
      <point x="339" y="292" type="curve" smooth="yes"/>
      <point x="315" y="315"/>
      <point x="305" y="323"/>
      <point x="234" y="369" type="curve" smooth="yes"/>
      <point x="145" y="427"/>
      <point x="118" y="462"/>
      <point x="118" y="521" type="curve" smooth="yes"/>
      <point x="118" y="587"/>
      <point x="162" y="633"/>
      <point x="227" y="633" type="curve" smooth="yes"/>
      <point x="280" y="633"/>
      <point x="314" y="609"/>
      <point x="341" y="551" type="curve"/>
    </contour>
  </outline>
</glyph>
<glyph name="T" format="2">
  <advance width="438"/>
  <unicode hex="0054"/>
  <outline>
    <contour>
      <point x="243" y="623" type="line"/>
      <point x="444" y="623" type="line"/>
      <point x="444" y="667" type="line"/>
      <point x="-7" y="667" type="line"/>
      <point x="-7" y="623" type="line"/>
      <point x="190" y="623" type="line"/>
      <point x="190" y="0" type="line"/>
      <point x="243" y="0" type="line"/>
    </contour>
  </outline>
</glyph>
<glyph name="U" format="2">
  <advance width="683"/>
  <unicode hex="0055"/>
  <outline>
    <contour>
      <point x="87.1304" y="667" type="line"/>
      <point x="87.1304" y="269.787" type="line" smooth="yes"/>
      <point x="87.1304" y="174.966"/>
      <point x="93.1013" y="137.806"/>
      <point x="113.004" y="98.0007" type="curve" smooth="yes"/>
      <point x="149.182" y="25.644"/>
      <point x="229.919" y="-13.4678"/>
      <point x="341.248" y="-13.4678" type="curve" smooth="yes"/>
      <point x="446.714" y="-13.4678"/>
      <point x="524.525" y="20.8052"/>
      <point x="563.695" y="85.4344" type="curve" smooth="yes"/>
      <point x="589.463" y="127.06"/>
      <point x="596.401" y="168.148"/>
      <point x="596.401" y="269.787" type="curve" smooth="yes"/>
      <point x="596.401" y="667" type="line"/>
      <point x="533.639" y="667" type="line"/>
      <point x="533.639" y="266.679" type="line" smooth="yes"/>
      <point x="533.639" y="175.697"/>
      <point x="529.246" y="146.601"/>
      <point x="510.669" y="113.854" type="curve"/>
      <point x="481.611" y="60.2095"/>
      <point x="417.128" y="27.7991"/>
      <point x="341.248" y="27.7991" type="curve" smooth="yes"/>
      <point x="271.968" y="27.7991"/>
      <point x="210.794" y="55.6925"/>
      <point x="179.634" y="102.412" type="curve" smooth="yes"/>
      <point x="155.4" y="137.661"/>
      <point x="149.893" y="166.848"/>
      <point x="149.893" y="266.679" type="curve" smooth="yes"/>
      <point x="149.893" y="667" type="line"/>
    </contour>
  </outline>
</glyph>
<glyph name="V" format="2">
  <advance width="568"/>
  <unicode hex="0056"/>
  <outline>
    <contour>
      <point x="64.499" y="667" type="line"/>
      <point x="-2.51981" y="667" type="line"/>
      <point x="253.48" y="0" type="line"/>
      <point x="297.908" y="0" type="line"/>
      <point x="584.908" y="667" type="line"/>
      <point x="526.665" y="667" type="line"/>
      <point x="282.803" y="99.4087" type="line"/>
    </contour>
  </outline>
</glyph>
<glyph name="W" format="2">
  <advance width="901"/>
  <unicode hex="0057"/>
  <outline>
    <contour>
      <point x="61.7008" y="667" type="line"/>
      <point x="3.26802" y="667" type="line"/>
      <point x="201.268" y="0" type="line"/>
      <point x="252.678" y="0" type="line"/>
      <point x="444.527" y="565.848" type="line"/>
      <point x="610.509" y="0" type="line"/>
      <point x="662.981" y="0" type="line"/>
      <point x="893.981" y="667" type="line"/>
      <point x="842.16" y="667" type="line"/>
      <point x="642.018" y="88.0944" type="line"/>
      <point x="470.929" y="667" type="line"/>
      <point x="428.845" y="667" type="line"/>
      <point x="231.815" y="87.7515" type="line"/>
    </contour>
  </outline>
</glyph>
<glyph name="X" format="2">
  <advance width="508"/>
  <unicode hex="0058"/>
  <outline>
    <contour>
      <point x="413.06" y="667" type="line"/>
      <point x="253.758" y="390.093" type="line"/>
      <point x="81.627" y="667" type="line"/>
      <point x="7.44764" y="667" type="line"/>
      <point x="215.12" y="341.514" type="line"/>
      <point x="11.8142" y="0" type="line"/>
      <point x="75.2511" y="0" type="line"/>
      <point x="250.21" y="296.577" type="line"/>
      <point x="430.503" y="0" type="line"/>
      <point x="503.801" y="0" type="line"/>
      <point x="285.562" y="348.381" type="line"/>
      <point x="477.332" y="667" type="line"/>
    </contour>
  </outline>
</glyph>
<glyph name="Y" format="2">
  <advance width="460"/>
  <unicode hex="0059"/>
  <outline>
    <contour>
      <point x="419.086" y="667" type="line"/>
      <point x="233.755" y="357.05" type="line"/>
      <point x="45.2291" y="667" type="line"/>
      <point x="-26.3269" y="667" type="line"/>
      <point x="198.16" y="298.483" type="line"/>
      <point x="198.16" y="0" type="line"/>
      <point x="260.923" y="0" type="line"/>
      <point x="260.923" y="298.441" type="line"/>
      <point x="482.455" y="667" type="line"/>
    </contour>
  </outline>
</glyph>
<glyph name="Z" format="2">
  <advance width="472"/>
  <unicode hex="005A"/>
  <outline>
    <contour>
      <point x="37" y="667" type="line"/>
      <point x="37" y="623" type="line"/>
      <point x="396" y="623" type="line"/>
      <point x="-1" y="47" type="line"/>
      <point x="-1" y="0" type="line"/>
      <point x="489" y="0" type="line"/>
      <point x="489" y="44" type="line"/>
      <point x="54" y="44" type="line"/>
      <point x="450" y="618" type="line"/>
      <point x="450" y="667" type="line"/>
    </contour>
  </outline>
</glyph>
<glyph name="bracketleft" format="2">
  <advance width="256"/>
  <unicode hex="005B"/>
  <outline>
    <contour>
      <point x="127.065" y="-198.271" type="line"/>
      <point x="127.065" y="671.542" type="line"/>
      <point x="226.519" y="679.83" type="line"/>
      <point x="226.519" y="701.187" type="line"/>
      <point x="80.8786" y="701.187" type="line"/>
      <point x="80.8786" y="-227.916" type="line"/>
      <point x="226.519" y="-227.916" type="line"/>
      <point x="226.519" y="-206.559" type="line"/>
    </contour>
  </outline>
</glyph>
<glyph name="backslash" format="2">
  <advance width="382"/>
  <unicode hex="005C"/>
  <outline>
    <contour>
      <point x="-21" y="703" type="line"/>
      <point x="368" y="-232" type="line"/>
      <point x="394" y="-227" type="line"/>
      <point x="6" y="711" type="line"/>
    </contour>
  </outline>
</glyph>
<glyph name="bracketright" format="2">
  <advance width="255"/>
  <unicode hex="005D"/>
  <outline>
    <contour>
      <point x="128.498" y="-198.271" type="line"/>
      <point x="29.0435" y="-206.559" type="line" name="hr01"/>
      <point x="29.0435" y="-227.916" type="line"/>
      <point x="174.684" y="-227.916" type="line"/>
      <point x="174.684" y="701.187" type="line"/>
      <point x="29.0435" y="701.187" type="line"/>
      <point x="29.0435" y="679.83" type="line"/>
      <point x="128.498" y="671.542" type="line"/>
    </contour>
  </outline>
</glyph>
<glyph name="asciicircum" format="2">
  <advance width="430"/>
  <unicode hex="005E"/>
  <outline>
    <contour>
      <point x="81" y="441" type="line"/>
      <point x="213" y="650" type="line"/>
      <point x="349" y="441" type="line"/>
      <point x="386" y="454" type="line"/>
      <point x="224" y="696" type="line"/>
      <point x="200" y="696" type="line"/>
      <point x="44" y="454" type="line"/>
    </contour>
  </outline>
</glyph>
<glyph name="underscore" format="2">
  <advance width="529"/>
  <unicode hex="005F"/>
  <outline>
    <contour>
      <point x="0" y="-69" type="line"/>
      <point x="0" y="-104" type="line"/>
      <point x="529" y="-104" type="line"/>
      <point x="529" y="-69" type="line"/>
    </contour>
  </outline>
</glyph>
<glyph name="grave" format="2">
  <advance width="462"/>
  <unicode hex="0060"/>
  <outline>
    <contour>
      <point x="135.367" y="700.34" type="line"/>
      <point x="82.6808" y="689.669" type="line"/>
      <point x="247.882" y="551.699" type="line"/>
      <point x="259.357" y="553.724" type="line"/>
    </contour>
  </outline>
</glyph>
<glyph name="a" format="2">
  <advance width="530"/>
  <unicode hex="0061"/>
  <outline>
    <contour>
      <point x="452.99" y="439.571" type="line"/>
      <point x="396.25" y="439.571" type="line"/>
      <point x="396.25" y="367.813" type="line"/>
      <point x="340.959" y="426.962"/>
      <point x="298.088" y="450.107"/>
      <point x="243.932" y="450.107" type="curve" smooth="yes"/>
      <point x="127.627" y="450.107"/>
      <point x="45.4107" y="353.973"/>
      <point x="45.4107" y="219.786" type="curve" smooth="yes"/>
      <point x="45.4107" y="102.678"/>
      <point x="114.174" y="-10.5357"/>
      <point x="242.879" y="-10.5357" type="curve" smooth="yes"/>
      <point x="296.067" y="-10.5357"/>
      <point x="342.226" y="13.9036"/>
      <point x="396.25" y="71.7862" type="curve"/>
      <point x="396.25" y="0" type="line" name="hr01"/>
      <point x="452.99" y="0" type="line"/>
    </contour>
    <contour>
      <point x="255.522" y="407.732" type="curve" smooth="yes"/>
      <point x="342.667" y="407.732"/>
      <point x="401.518" y="332.299"/>
      <point x="401.518" y="220.839" type="curve" smooth="yes"/>
      <point x="401.518" y="108.297"/>
      <point x="342.667" y="32.8929"/>
      <point x="255.522" y="32.8929" type="curve" smooth="yes"/>
      <point x="167.245" y="32.8929"/>
      <point x="109.525" y="107.143"/>
      <point x="109.525" y="221.893" type="curve" smooth="yes"/>
      <point x="109.525" y="332.27"/>
      <point x="168.377" y="407.732"/>
    </contour>
  </outline>
</glyph>
<glyph name="b" format="2">
  <advance width="530"/>
  <unicode hex="0062"/>
  <outline>
    <contour>
      <point x="133.865" y="713.5" type="line"/>
      <point x="77.125" y="713.5" type="line"/>
      <point x="77.125" y="0" type="line"/>
      <point x="97.3011" y="0" type="line"/>
      <point x="143.126" y="61.8635" type="line"/>
      <point x="190.638" y="10.9578"/>
      <point x="234.063" y="-10.5357" name="hr01"/>
      <point x="288.29" y="-10.5357" type="curve" smooth="yes"/>
      <point x="342.605" y="-10.5357"/>
      <point x="399.631" y="17.2527"/>
      <point x="435.289" y="60.8178" type="curve" smooth="yes"/>
      <point x="467.56" y="101.157"/>
      <point x="484.704" y="156.493"/>
      <point x="484.704" y="219.786" type="curve" smooth="yes"/>
      <point x="484.704" y="337.28"/>
      <point x="416.234" y="450.107"/>
      <point x="287.236" y="450.107" type="curve" smooth="yes"/>
      <point x="234.048" y="450.107"/>
      <point x="187.889" y="425.668"/>
      <point x="133.865" y="367.785" type="curve"/>
    </contour>
    <contour>
      <point x="274.593" y="407.732" type="curve" smooth="yes"/>
      <point x="362.87" y="407.732"/>
      <point x="420.589" y="333.425"/>
      <point x="420.589" y="220.839" type="curve" smooth="yes"/>
      <point x="420.589" y="108.297"/>
      <point x="361.738" y="32.8929"/>
      <point x="274.593" y="32.8929" type="curve" smooth="yes"/>
      <point x="186.316" y="32.8929"/>
      <point x="128.597" y="107.143"/>
      <point x="128.597" y="221.893" type="curve" smooth="yes"/>
      <point x="128.597" y="332.27"/>
      <point x="187.448" y="407.732"/>
    </contour>
  </outline>
</glyph>
<glyph name="c" format="2">
  <advance width="414"/>
  <unicode hex="0063"/>
  <outline>
    <contour>
      <point x="392" y="323" type="line"/>
      <point x="375" y="404"/>
      <point x="327" y="443"/>
      <point x="244" y="443" type="curve" smooth="yes"/>
      <point x="126" y="443"/>
      <point x="48" y="353"/>
      <point x="48" y="217" type="curve" smooth="yes"/>
      <point x="48" y="83"/>
      <point x="126" y="-9"/>
      <point x="239" y="-9" type="curve" smooth="yes"/>
      <point x="318" y="-9"/>
      <point x="367" y="25"/>
      <point x="393" y="99" type="curve"/>
      <point x="344" y="116" type="line"/>
      <point x="327" y="62"/>
      <point x="296" y="38"/>
      <point x="241" y="38" type="curve" smooth="yes"/>
      <point x="159" y="38"/>
      <point x="102" y="113"/>
      <point x="102" y="220" type="curve" smooth="yes"/>
      <point x="102" y="325"/>
      <point x="158" y="396"/>
      <point x="242" y="396" type="curve" smooth="yes"/>
      <point x="299" y="396"/>
      <point x="327" y="371"/>
      <point x="342" y="308" type="curve"/>
    </contour>
  </outline>
</glyph>
<glyph name="d" format="2">
  <advance width="530"/>
  <unicode hex="0064"/>
  <outline>
    <contour>
      <point x="452.99" y="713.5" type="line"/>
      <point x="396.25" y="713.5" type="line"/>
      <point x="396.25" y="367.785" type="line"/>
      <point x="342.226" y="425.668"/>
      <point x="296.067" y="450.107"/>
      <point x="242.879" y="450.107" type="curve" smooth="yes"/>
      <point x="114.166" y="450.107"/>
      <point x="45.4107" y="336.908"/>
      <point x="45.4107" y="219.786" type="curve" smooth="yes"/>
      <point x="45.4107" y="102.678"/>
      <point x="114.174" y="-10.5357"/>
      <point x="242.879" y="-10.5357" type="curve" smooth="yes"/>
      <point x="296.067" y="-10.5357"/>
      <point x="342.226" y="13.9036"/>
      <point x="396.25" y="71.7862" type="curve"/>
      <point x="396.25" y="0" type="line" name="hr01"/>
      <point x="452.99" y="0" type="line"/>
    </contour>
    <contour>
      <point x="255.522" y="407.732" type="curve" smooth="yes"/>
      <point x="342.667" y="407.732"/>
      <point x="401.518" y="332.299"/>
      <point x="401.518" y="220.839" type="curve" smooth="yes"/>
      <point x="401.518" y="108.297"/>
      <point x="342.667" y="32.8929"/>
      <point x="255.522" y="32.8929" type="curve" smooth="yes"/>
      <point x="167.245" y="32.8929"/>
      <point x="109.525" y="107.143"/>
      <point x="109.525" y="221.893" type="curve" smooth="yes"/>
      <point x="109.525" y="332.27"/>
      <point x="168.377" y="407.732"/>
    </contour>
  </outline>
</glyph>
<glyph name="e" format="2">
  <advance width="473"/>
  <unicode hex="0065"/>
  <outline>
    <contour>
      <point x="426.471" y="211.768" type="line"/>
      <point x="424.469" y="333.799"/>
      <point x="405.284" y="450.107"/>
      <point x="252.361" y="450.107" type="curve" smooth="yes"/>
      <point x="127.789" y="450.107"/>
      <point x="45.4107" y="357.979"/>
      <point x="45.4107" y="219.786" type="curve" smooth="yes"/>
      <point x="45.4107" y="80.5915"/>
      <point x="127.828" y="-10.5357"/>
      <point x="254.468" y="-10.5357" type="curve" smooth="yes"/>
      <point x="332.915" y="-10.5357"/>
      <point x="374.171" y="11.881"/>
      <point x="420.972" y="85.0901" type="curve"/>
      <point x="371.285" y="109.933" type="line"/>
      <point x="342.075" y="55.4795"/>
      <point x="309.039" y="31.8393"/>
      <point x="259.736" y="31.8393" type="curve" smooth="yes"/>
      <point x="219.351" y="31.8393"/>
      <point x="186.432" y="45.6872"/>
      <point x="159.89" y="72.229" type="curve" smooth="yes"/>
      <point x="129.647" y="102.472"/>
      <point x="116.995" y="137.03"/>
      <point x="109.263" y="211.768" type="curve"/>
    </contour>
    <contour>
      <point x="112.692" y="254.143" type="line"/>
      <point x="121.369" y="358.271"/>
      <point x="168.465" y="414.054"/>
      <point x="247.093" y="414.054" type="curve" smooth="yes"/>
      <point x="290.376" y="414.054"/>
      <point x="325.041" y="397.305"/>
      <point x="344.182" y="366.2" type="curve"/>
      <point x="343.855" y="366.792" type="line"/>
      <point x="359.904" y="343.866"/>
      <point x="365.686" y="317.356"/>
      <point x="367.003" y="254.143" type="curve"/>
    </contour>
  </outline>
</glyph>
<glyph name="f" format="2">
  <advance width="265"/>
  <unicode hex="0066"/>
  <outline>
    <contour>
      <point x="264" y="434" type="line"/>
      <point x="131" y="434" type="line"/>
      <point x="131" y="500" type="line" smooth="yes"/>
      <point x="131" y="557"/>
      <point x="135" y="584"/>
      <point x="147" y="608" type="curve" smooth="yes"/>
      <point x="162" y="639"/>
      <point x="187" y="655"/>
      <point x="217" y="655" type="curve" smooth="yes"/>
      <point x="235" y="655"/>
      <point x="246" y="651"/>
      <point x="267" y="638" type="curve"/>
      <point x="285" y="684" type="line"/>
      <point x="266" y="697"/>
      <point x="250" y="701"/>
      <point x="225" y="701" type="curve" smooth="yes"/>
      <point x="179" y="701"/>
      <point x="138" y="679"/>
      <point x="113" y="640" type="curve" smooth="yes"/>
      <point x="94" y="610"/>
      <point x="83" y="560"/>
      <point x="83" y="500" type="curve" smooth="yes"/>
      <point x="83" y="434" type="line"/>
      <point x="27" y="434" type="line"/>
      <point x="27" y="389" type="line"/>
      <point x="83" y="389" type="line"/>
      <point x="83" y="0" type="line"/>
      <point x="131" y="0" type="line"/>
      <point x="131" y="389" type="line"/>
      <point x="264" y="389" type="line"/>
    </contour>
  </outline>
</glyph>
<glyph name="g" format="2">
  <advance width="530"/>
  <unicode hex="0067"/>
  <outline>
    <contour>
      <point x="452.99" y="439.571" type="line"/>
      <point x="396.25" y="439.571" type="line"/>
      <point x="396.25" y="367.785" type="line"/>
      <point x="342.226" y="425.668"/>
      <point x="296.067" y="450.107"/>
      <point x="242.879" y="450.107" type="curve" smooth="yes"/>
      <point x="114.166" y="450.107"/>
      <point x="45.4107" y="336.908"/>
      <point x="45.4107" y="219.786" type="curve" smooth="yes"/>
      <point x="45.4107" y="102.678"/>
      <point x="114.174" y="-10.5357"/>
      <point x="242.879" y="-10.5357" type="curve" smooth="yes"/>
      <point x="296.067" y="-10.5357"/>
      <point x="342.226" y="13.9036"/>
      <point x="396.25" y="71.7862" type="curve"/>
      <point x="396.25" y="1.69643" type="line" smooth="yes"/>
      <point x="396.25" y="-94.2874"/>
      <point x="366.165" y="-199.946"/>
      <point x="249.2" y="-199.946" type="curve" smooth="yes"/>
      <point x="184.18" y="-199.946"/>
      <point x="138.595" y="-163.538"/>
      <point x="111.781" y="-91.8821" type="curve"/>
      <point x="64.9658" y="-127.371" type="line"/>
      <point x="104.308" y="-200.736"/>
      <point x="166.772" y="-242.321"/>
      <point x="252.361" y="-242.321" type="curve" smooth="yes"/>
      <point x="318.918" y="-242.321"/>
      <point x="382.091" y="-209.58" name="hr01"/>
      <point x="417.739" y="-156.13" type="curve" smooth="yes"/>
      <point x="441.911" y="-118.865"/>
      <point x="452.99" y="-74.5178"/>
      <point x="452.99" y="-12" type="curve" smooth="yes"/>
    </contour>
    <contour>
      <point x="255.522" y="407.732" type="curve" smooth="yes"/>
      <point x="342.667" y="407.732"/>
      <point x="401.518" y="332.299"/>
      <point x="401.518" y="220.839" type="curve" smooth="yes"/>
      <point x="401.518" y="108.297"/>
      <point x="342.667" y="32.8929"/>
      <point x="255.522" y="32.8929" type="curve" smooth="yes"/>
      <point x="167.245" y="32.8929"/>
      <point x="109.525" y="107.143"/>
      <point x="109.525" y="221.893" type="curve" smooth="yes"/>
      <point x="109.525" y="333.396"/>
      <point x="168.377" y="407.732"/>
    </contour>
  </outline>
</glyph>
<glyph name="h" format="2">
  <advance width="514"/>
  <unicode hex="0068"/>
  <outline>
    <contour>
      <point x="133.865" y="713.5" type="line"/>
      <point x="77.125" y="713.5" type="line"/>
      <point x="77.125" y="0" type="line"/>
      <point x="133.865" y="0" type="line"/>
      <point x="133.865" y="276.679" type="line" smooth="yes"/>
      <point x="133.865" y="355.643"/>
      <point x="187.939" y="407.732"/>
      <point x="268.272" y="407.732" type="curve" smooth="yes"/>
      <point x="342.355" y="407.732"/>
      <point x="380.554" y="363.588"/>
      <point x="380.554" y="278.786" type="curve" smooth="yes"/>
      <point x="380.554" y="0" type="line"/>
      <point x="437.293" y="0" type="line"/>
      <point x="437.293" y="280.893" type="line" smooth="yes"/>
      <point x="437.293" y="336.772"/>
      <point x="430.413" y="367.556"/>
      <point x="411.839" y="393.926" type="curve" smooth="yes"/>
      <point x="385.647" y="429.819"/>
      <point x="339.128" y="451.161"/>
      <point x="285.129" y="451.161" type="curve" smooth="yes"/>
      <point x="231.01" y="451.161"/>
      <point x="191.691" y="430.6"/>
      <point x="133.865" y="368.919" type="curve"/>
    </contour>
  </outline>
</glyph>
<glyph name="i" format="2">
  <advance width="213"/>
  <unicode hex="0069"/>
  <outline>
    <contour>
      <point x="130" y="434" type="line"/>
      <point x="82" y="434" type="line"/>
      <point x="82" y="0" type="line"/>
      <point x="130" y="0" type="line"/>
    </contour>
    <contour>
      <point x="106" y="656" type="curve" smooth="yes"/>
      <point x="86" y="656"/>
      <point x="67" y="638" name="hr01"/>
      <point x="67" y="617" type="curve" smooth="yes"/>
      <point x="67" y="596"/>
      <point x="85" y="577"/>
      <point x="107" y="577" type="curve" smooth="yes"/>
      <point x="127" y="577"/>
      <point x="146" y="596"/>
      <point x="146" y="617" type="curve" smooth="yes"/>
      <point x="146" y="638"/>
      <point x="128" y="656"/>
    </contour>
  </outline>
</glyph>
<glyph name="j" format="2">
  <advance width="217"/>
  <unicode hex="006A"/>
  <outline>
    <contour>
      <point x="138.865" y="439.571" type="line"/>
      <point x="82.125" y="439.571" type="line"/>
      <point x="82.125" y="-52.0357" type="line" smooth="yes"/>
      <point x="82.125" y="-132.238"/>
      <point x="63.5167" y="-199.946"/>
      <point x="-30.1569" y="-199.946" type="curve" smooth="yes"/>
      <point x="-38.1621" y="-199.946"/>
      <point x="-43.8073" y="-199.561"/>
      <point x="-53.5805" y="-198.009" type="curve"/>
      <point x="-48.9832" y="-228.466" type="line"/>
      <point x="-27.1249" y="-230.844"/>
      <point x="-16.0322" y="-231.786"/>
      <point x="-6.97833" y="-231.786" type="curve" smooth="yes"/>
      <point x="40.9187" y="-231.786"/>
      <point x="81.3825" y="-214.356"/>
      <point x="107.361" y="-183.611" type="curve"/>
      <point x="130.989" y="-154.076"/>
      <point x="138.865" y="-122.16"/>
      <point x="138.865" y="-49.9286" type="curve" smooth="yes"/>
    </contour>
    <contour>
      <point x="107.861" y="675.571" type="curve" smooth="yes"/>
      <point x="84.8607" y="675.571"/>
      <point x="65.2679" y="656.972"/>
      <point x="65.2679" y="635.946" type="curve" smooth="yes"/>
      <point x="65.2679" y="613.035"/>
      <point x="84.0088" y="594.214"/>
      <point x="107.861" y="594.214" type="curve" smooth="yes"/>
      <point x="130.861" y="594.214"/>
      <point x="150.454" y="612.926" name="hr01"/>
      <point x="150.454" y="634.893" type="curve" smooth="yes"/>
      <point x="150.454" y="657.673"/>
      <point x="131.713" y="675.571"/>
    </contour>
  </outline>
</glyph>
<glyph name="k" format="2">
  <advance width="416"/>
  <unicode hex="006B"/>
  <outline>
    <contour>
      <point x="133.865" y="713.5" type="line"/>
      <point x="77.125" y="713.5" type="line"/>
      <point x="77.125" y="0" type="line"/>
      <point x="133.865" y="0" type="line"/>
      <point x="133.865" y="251.9" type="line"/>
      <point x="345.099" y="0" type="line"/>
      <point x="418.552" y="0" type="line"/>
      <point x="209.869" y="243.797" type="line"/>
      <point x="368.874" y="439.571" type="line"/>
      <point x="306.267" y="439.571" type="line"/>
      <point x="133.865" y="223.495" type="line"/>
    </contour>
  </outline>
</glyph>
<glyph name="l" format="2">
  <advance width="211"/>
  <unicode hex="006C"/>
  <outline>
    <contour>
      <point x="133.865" y="713.5" type="line"/>
      <point x="77.125" y="713.5" type="line"/>
      <point x="77.125" y="0" type="line"/>
      <point x="133.865" y="0" type="line"/>
    </contour>
  </outline>
</glyph>
<glyph name="m" format="2">
  <advance width="798"/>
  <unicode hex="006D"/>
  <outline>
    <contour>
      <point x="77.125" y="439.571" type="line"/>
      <point x="77.125" y="0" type="line"/>
      <point x="133.865" y="0" type="line"/>
      <point x="133.865" y="278.786" type="line" smooth="yes"/>
      <point x="133.865" y="356.618"/>
      <point x="184.184" y="407.732"/>
      <point x="261.95" y="407.732" type="curve" smooth="yes"/>
      <point x="338.42" y="407.732"/>
      <point x="373.179" y="369.228"/>
      <point x="373.179" y="284.054" type="curve" smooth="yes"/>
      <point x="373.179" y="0" type="line"/>
      <point x="429.918" y="0" type="line"/>
      <point x="429.918" y="278.786" type="line" smooth="yes"/>
      <point x="429.918" y="358.112"/>
      <point x="473.119" y="407.732"/>
      <point x="554.843" y="407.732" type="curve" smooth="yes"/>
      <point x="631.386" y="407.732"/>
      <point x="665.018" y="369.228"/>
      <point x="665.018" y="284.054" type="curve" smooth="yes"/>
      <point x="665.018" y="0" type="line"/>
      <point x="721.758" y="0" type="line"/>
      <point x="721.758" y="301.964" type="line" smooth="yes"/>
      <point x="721.758" y="394.554"/>
      <point x="664.499" y="450.107"/>
      <point x="571.7" y="450.107" type="curve" smooth="yes"/>
      <point x="511.229" y="450.107"/>
      <point x="466.72" y="428.58"/>
      <point x="416.866" y="374.194" type="curve"/>
      <point x="378.343" y="429.713"/>
      <point x="343.782" y="450.107"/>
      <point x="284.075" y="450.107" type="curve" smooth="yes"/>
      <point x="228.817" y="450.107"/>
      <point x="190.441" y="430.82"/>
      <point x="133.865" y="374.244" type="curve"/>
      <point x="133.865" y="439.571" type="line"/>
    </contour>
  </outline>
</glyph>
<glyph name="n" format="2">
  <advance width="491"/>
  <unicode hex="006E"/>
  <outline>
    <contour>
      <point x="130" y="434" type="line" name="hr02"/>
      <point x="82" y="434" type="line"/>
      <point x="82" y="0" type="line"/>
      <point x="130" y="0" type="line"/>
      <point x="130" y="287" type="line" smooth="yes"/>
      <point x="130" y="351"/>
      <point x="183" y="397" name="hr01"/>
      <point x="256" y="397" type="curve" smooth="yes"/>
      <point x="292" y="397"/>
      <point x="322" y="384"/>
      <point x="341" y="360" type="curve" smooth="yes"/>
      <point x="357" y="338"/>
      <point x="361" y="323"/>
      <point x="361" y="273" type="curve" smooth="yes"/>
      <point x="361" y="0" type="line"/>
      <point x="409" y="0" type="line"/>
      <point x="409" y="273" type="line" smooth="yes"/>
      <point x="409" y="327"/>
      <point x="403" y="355"/>
      <point x="385" y="382" type="curve" smooth="yes"/>
      <point x="360" y="421"/>
      <point x="313" y="444"/>
      <point x="259" y="444" type="curve" smooth="yes"/>
      <point x="208" y="444"/>
      <point x="174" y="428"/>
      <point x="130" y="384" type="curve"/>
    </contour>
  </outline>
</glyph>
<glyph name="o" format="2">
  <advance width="483"/>
  <unicode hex="006F"/>
  <outline>
    <contour>
      <point x="240" y="443" type="curve" smooth="yes"/>
      <point x="129" y="443"/>
      <point x="48" y="350"/>
      <point x="48" y="221" type="curve" smooth="yes"/>
      <point x="48" y="84"/>
      <point x="127" y="-9"/>
      <point x="241" y="-9" type="curve" smooth="yes"/>
      <point x="356" y="-9"/>
      <point x="435" y="83"/>
      <point x="435" y="216" type="curve" smooth="yes"/>
      <point x="435" y="350"/>
      <point x="355" y="443"/>
    </contour>
    <contour>
      <point x="242" y="396" type="curve" smooth="yes"/>
      <point x="324" y="396"/>
      <point x="381" y="323"/>
      <point x="381" y="217" type="curve" smooth="yes"/>
      <point x="381" y="111"/>
      <point x="324" y="38"/>
      <point x="242" y="38" type="curve" smooth="yes"/>
      <point x="157" y="38"/>
      <point x="102" y="110"/>
      <point x="102" y="219" type="curve" smooth="yes"/>
      <point x="102" y="324"/>
      <point x="159" y="396"/>
    </contour>
  </outline>
</glyph>
<glyph name="p" format="2">
  <advance width="530"/>
  <unicode hex="0070"/>
  <outline>
    <contour>
      <point x="133.865" y="439.571" type="line"/>
      <point x="77.125" y="439.571" type="line"/>
      <point x="77.125" y="-231.786" type="line"/>
      <point x="133.865" y="-231.786" type="line"/>
      <point x="133.865" y="71.7862" type="line"/>
      <point x="187.889" y="13.9036"/>
      <point x="234.063" y="-10.5357"/>
      <point x="288.29" y="-10.5357" type="curve" smooth="yes"/>
      <point x="342.605" y="-10.5357"/>
      <point x="399.631" y="17.2527"/>
      <point x="435.289" y="60.8178" type="curve" smooth="yes"/>
      <point x="467.56" y="101.157"/>
      <point x="484.704" y="156.493"/>
      <point x="484.704" y="219.786" type="curve" smooth="yes"/>
      <point x="484.704" y="337.28"/>
      <point x="416.234" y="450.107"/>
      <point x="287.236" y="450.107" type="curve" smooth="yes"/>
      <point x="234.048" y="450.107"/>
      <point x="187.889" y="425.668"/>
      <point x="133.865" y="367.785" type="curve"/>
    </contour>
    <contour>
      <point x="274.593" y="407.732" type="curve" smooth="yes"/>
      <point x="362.87" y="407.732"/>
      <point x="420.589" y="333.425"/>
      <point x="420.589" y="220.839" type="curve" smooth="yes"/>
      <point x="420.589" y="108.297"/>
      <point x="361.738" y="32.8929"/>
      <point x="274.593" y="32.8929" type="curve" smooth="yes"/>
      <point x="186.316" y="32.8929"/>
      <point x="128.597" y="107.143"/>
      <point x="128.597" y="221.893" type="curve" smooth="yes"/>
      <point x="128.597" y="332.27"/>
      <point x="187.448" y="407.732"/>
    </contour>
  </outline>
</glyph>
<glyph name="q" format="2">
  <advance width="530"/>
  <unicode hex="0071"/>
  <outline>
    <contour>
      <point x="396.25" y="-231.786" type="line"/>
      <point x="452.99" y="-231.786" type="line"/>
      <point x="452.99" y="439.571" type="line"/>
      <point x="432.814" y="439.571" type="line"/>
      <point x="386.989" y="377.708" type="line"/>
      <point x="339.477" y="428.614"/>
      <point x="296.067" y="450.107"/>
      <point x="242.879" y="450.107" type="curve" smooth="yes"/>
      <point x="114.166" y="450.107"/>
      <point x="45.4107" y="336.908"/>
      <point x="45.4107" y="219.786" type="curve" smooth="yes"/>
      <point x="45.4107" y="102.678"/>
      <point x="114.174" y="-10.5357"/>
      <point x="242.879" y="-10.5357" type="curve" smooth="yes"/>
      <point x="296.067" y="-10.5357"/>
      <point x="342.226" y="13.9036"/>
      <point x="396.25" y="71.7862" type="curve"/>
    </contour>
    <contour>
      <point x="255.522" y="407.732" type="curve" smooth="yes"/>
      <point x="342.667" y="407.732"/>
      <point x="401.518" y="332.299"/>
      <point x="401.518" y="220.839" type="curve" smooth="yes"/>
      <point x="401.518" y="108.297"/>
      <point x="342.667" y="32.8929"/>
      <point x="255.522" y="32.8929" type="curve" smooth="yes"/>
      <point x="167.245" y="32.8929"/>
      <point x="109.525" y="107.143"/>
      <point x="109.525" y="221.893" type="curve" smooth="yes"/>
      <point x="109.525" y="332.27"/>
      <point x="168.377" y="407.732"/>
    </contour>
  </outline>
</glyph>
<glyph name="r" format="2">
  <advance width="332"/>
  <unicode hex="0072"/>
  <outline>
    <contour>
      <point x="77.125" y="439.571" type="line"/>
      <point x="77.125" y="0" type="line"/>
      <point x="133.865" y="0" type="line"/>
      <point x="133.865" y="259.821" type="line" smooth="yes"/>
      <point x="133.865" y="339.984"/>
      <point x="188.03" y="409.839"/>
      <point x="251.415" y="409.839" type="curve" smooth="yes"/>
      <point x="278.443" y="409.839"/>
      <point x="296.756" y="401.978"/>
      <point x="319.472" y="377.168" type="curve"/>
      <point x="344.942" y="420.326" type="line"/>
      <point x="318.492" y="442.183"/>
      <point x="300.019" y="450.107"/>
      <point x="273.54" y="450.107" type="curve" smooth="yes"/>
      <point x="226.188" y="450.107"/>
      <point x="187.513" y="422.629"/>
      <point x="133.865" y="351.97" type="curve"/>
      <point x="133.865" y="439.571" type="line"/>
    </contour>
  </outline>
</glyph>
<glyph name="t" format="2">
  <advance width="303"/>
  <unicode hex="0074"/>
  <outline>
    <contour>
      <point x="149.454" y="584.359" type="line"/>
      <point x="92.7143" y="561.041" type="line"/>
      <point x="92.7143" y="439.571" type="line"/>
      <point x="17.9107" y="439.571" type="line"/>
      <point x="17.9107" y="397.196" type="line"/>
      <point x="92.7143" y="397.196" type="line"/>
      <point x="92.7143" y="163.946" type="line" smooth="yes"/>
      <point x="92.7143" y="68.9926"/>
      <point x="100.206" y="-10.5357"/>
      <point x="218.54" y="-10.5357" type="curve" smooth="yes"/>
      <point x="237.957" y="-10.5357"/>
      <point x="253.801" y="-7.5775"/>
      <point x="281.114" y="-0.105791" type="curve"/>
      <point x="285.495" y="38.7003" type="line"/>
      <point x="268.367" y="33.1553"/>
      <point x="257.783" y="31.8393"/>
      <point x="242.772" y="31.8393" type="curve" smooth="yes"/>
      <point x="155.32" y="31.8393"/>
      <point x="149.454" y="85.7354"/>
      <point x="149.454" y="161.839" type="curve" smooth="yes"/>
      <point x="149.454" y="397.196" type="line"/>
      <point x="280.097" y="397.196" type="line"/>
      <point x="280.097" y="439.571" type="line"/>
      <point x="149.454" y="439.571" type="line"/>
    </contour>
  </outline>
</glyph>
<glyph name="u" format="2">
  <advance width="514"/>
  <unicode hex="0075"/>
  <outline>
    <contour>
      <point x="380.554" y="0" type="line"/>
      <point x="437.293" y="0" type="line"/>
      <point x="437.293" y="439.571" type="line"/>
      <point x="380.554" y="439.571" type="line"/>
      <point x="380.554" y="162.893" type="line" smooth="yes"/>
      <point x="380.554" y="84.7351"/>
      <point x="327.016" y="31.8393"/>
      <point x="247.2" y="31.8393" type="curve" smooth="yes"/>
      <point x="172.029" y="31.8393"/>
      <point x="133.865" y="75.9464"/>
      <point x="133.865" y="161.839" type="curve" smooth="yes"/>
      <point x="133.865" y="439.571" type="line"/>
      <point x="77.125" y="439.571" type="line"/>
      <point x="77.125" y="159.732" type="line" smooth="yes"/>
      <point x="77.125" y="102.815"/>
      <point x="84.0053" y="72.0156"/>
      <point x="102.579" y="45.6451" type="curve" smooth="yes"/>
      <point x="128.771" y="9.75233"/>
      <point x="175.29" y="-11.5893" name="hr01"/>
      <point x="229.29" y="-11.5893" type="curve" smooth="yes"/>
      <point x="283.404" y="-11.5893"/>
      <point x="322.989" y="10.1574" name="hr02"/>
      <point x="380.554" y="70.2804" type="curve"/>
    </contour>
  </outline>
</glyph>
<glyph name="v" format="2">
  <advance width="423"/>
  <unicode hex="0076"/>
  <outline>
    <contour>
      <point x="187.263" y="0" type="line"/>
      <point x="243.083" y="0" type="line"/>
      <point x="419.911" y="439.571" type="line"/>
      <point x="366.395" y="439.571" type="line"/>
      <point x="218.861" y="69.6364" type="line"/>
      <point x="71.3273" y="439.571" type="line"/>
      <point x="10.4359" y="439.571" type="line"/>
    </contour>
  </outline>
</glyph>
<glyph name="w" format="2">
  <advance width="681"/>
  <unicode hex="0077"/>
  <outline>
    <contour>
      <point x="667.234" y="439.571" type="line"/>
      <point x="613.26" y="439.571" type="line"/>
      <point x="489.178" y="80.7409" type="line"/>
      <point x="375.157" y="439.571" type="line"/>
      <point x="323.553" y="439.571" type="line"/>
      <point x="198.396" y="74.1585" type="line"/>
      <point x="83.2964" y="439.571" type="line"/>
      <point x="23.6965" y="439.571" type="line"/>
      <point x="162.561" y="0" type="line"/>
      <point x="222.582" y="0" type="line"/>
      <point x="344.587" y="355.942" type="line"/>
      <point x="456.519" y="0" type="line"/>
      <point x="512.385" y="0" type="line"/>
    </contour>
  </outline>
</glyph>
<glyph name="x" format="2">
  <advance width="361"/>
  <unicode hex="0078"/>
  <outline>
    <contour>
      <point x="336" y="434" type="line"/>
      <point x="281" y="434" type="line"/>
      <point x="184" y="272" type="line"/>
      <point x="87" y="434" type="line"/>
      <point x="29" y="434" type="line"/>
      <point x="155" y="234" type="line"/>
      <point x="-1" y="0" type="line"/>
      <point x="53" y="0" type="line"/>
      <point x="176" y="199" type="line"/>
      <point x="296" y="0" type="line"/>
      <point x="355" y="0" type="line"/>
      <point x="206" y="236" type="line"/>
    </contour>
  </outline>
</glyph>
<glyph name="y" format="2">
  <advance width="408"/>
  <unicode hex="0079"/>
  <outline>
    <contour>
      <point x="408" y="434" type="line"/>
      <point x="357" y="434" type="line"/>
      <point x="209" y="94" type="line"/>
      <point x="65" y="434" type="line"/>
      <point x="13" y="434" type="line"/>
      <point x="182" y="31" type="line"/>
      <point x="135" y="-74" type="line" smooth="yes"/>
      <point x="100" y="-154"/>
      <point x="66" y="-188"/>
      <point x="23" y="-188" type="curve" smooth="yes"/>
      <point x="3" y="-188"/>
      <point x="-19" y="-180"/>
      <point x="-39" y="-166" type="curve"/>
      <point x="-38" y="-219" type="line"/>
      <point x="-18" y="-228"/>
      <point x="4" y="-233"/>
      <point x="23" y="-233" type="curve" smooth="yes"/>
      <point x="55" y="-233"/>
      <point x="89" y="-218"/>
      <point x="117" y="-190" type="curve" smooth="yes"/>
      <point x="144" y="-163"/>
      <point x="158.223" y="-137.098"/>
      <point x="209" y="-21" type="curve" smooth="yes"/>
    </contour>
  </outline>
</glyph>
<glyph name="z" format="2">
  <advance width="412"/>
  <unicode hex="007A"/>
  <outline>
    <contour>
      <point x="49.5714" y="439.571" type="line"/>
      <point x="49.5714" y="397.196" type="line"/>
      <point x="329.282" y="397.196" type="line"/>
      <point x="19.0179" y="49.2572" type="line"/>
      <point x="19.0179" y="0" type="line"/>
      <point x="393.936" y="0" type="line"/>
      <point x="393.936" y="42.375" type="line"/>
      <point x="77.4164" y="42.375" type="line"/>
      <point x="386.561" y="390.301" type="line"/>
      <point x="386.561" y="439.571" type="line"/>
    </contour>
  </outline>
</glyph>
<glyph name="braceleft" format="2">
  <advance width="260"/>
  <unicode hex="007B"/>
  <outline>
    <contour>
      <point x="236.447" y="697.043" type="line"/>
      <point x="228.894" y="697.043" type="line" smooth="yes"/>
      <point x="112.985" y="697.043"/>
      <point x="103.238" y="630.435"/>
      <point x="103.238" y="529.819" type="curve" smooth="yes"/>
      <point x="103.238" y="446.94" type="line" smooth="yes"/>
      <point x="103.238" y="340.95"/>
      <point x="80.0286" y="302.59"/>
      <point x="12.7202" y="300.269" type="curve"/>
      <point x="22.4318" y="312.262" type="line"/>
      <point x="22.4318" y="306.861" type="line"/>
      <point x="91.1345" y="300.253"/>
      <point x="103.238" y="280.469"/>
      <point x="103.238" y="191.052" type="curve" smooth="yes"/>
      <point x="103.238" y="33.5832" type="line" smooth="yes"/>
      <point x="103.238" y="-9.92869"/>
      <point x="112.663" y="-36.3824"/>
      <point x="135.282" y="-57.1162" type="curve" smooth="yes"/>
      <point x="156.635" y="-77.5799"/>
      <point x="192.755" y="-91.3512"/>
      <point x="222.855" y="-91.3512" type="curve"/>
      <point x="240.988" y="-90.1304" type="line"/>
      <point x="246.505" y="-90.1304" type="line"/>
      <point x="236.447" y="-102.13" type="line"/>
      <point x="236.447" y="-96.181" type="line"/>
      <point x="157.982" y="-82.849"/>
      <point x="149.425" y="-27.5157"/>
      <point x="149.425" y="42.907" type="curve" smooth="yes"/>
      <point x="149.425" y="172.405" type="line" smooth="yes"/>
      <point x="149.425" y="246.045"/>
      <point x="121.807" y="276.706"/>
      <point x="29.7484" y="304.324" type="curve"/>
      <point x="91.5915" y="329.395"/>
      <point x="113.336" y="340.834"/>
      <point x="123.978" y="352.329" type="curve"/>
      <point x="145.655" y="376.833"/>
      <point x="149.425" y="396.286"/>
      <point x="149.425" y="472.84" type="curve" smooth="yes"/>
      <point x="149.425" y="529.819" type="line" smooth="yes"/>
      <point x="149.425" y="606.655"/>
      <point x="153.929" y="636.126"/>
      <point x="171.892" y="661.932" type="curve" smooth="yes"/>
      <point x="188.116" y="685.727"/>
      <point x="206.93" y="697.711"/>
      <point x="236.447" y="702.25" type="curve"/>
    </contour>
  </outline>
</glyph>
<glyph name="bar" format="2">
  <advance width="526"/>
  <unicode hex="007C"/>
  <outline>
    <contour>
      <point x="249.96" y="667" type="line"/>
      <point x="249.96" y="-173.009" type="line"/>
      <point x="276.462" y="-173.009" type="line"/>
      <point x="276.462" y="667" type="line"/>
    </contour>
  </outline>
</glyph>
<glyph name="braceright" format="2">
  <advance width="259"/>
  <unicode hex="007D"/>
  <outline>
    <contour>
      <point x="23.4678" y="702.211" type="line"/>
      <point x="50.1436" y="698.037"/>
      <point x="66.1093" y="688.428"/>
      <point x="83.2045" y="669.196" type="curve"/>
      <point x="104.806" y="643.047"/>
      <point x="110.49" y="612.336"/>
      <point x="110.49" y="529.819" type="curve" smooth="yes"/>
      <point x="110.49" y="472.84" type="line" smooth="yes"/>
      <point x="110.49" y="396.286"/>
      <point x="114.26" y="376.833"/>
      <point x="135.794" y="352.517" type="curve"/>
      <point x="146.579" y="340.834"/>
      <point x="168.324" y="329.395"/>
      <point x="230.167" y="304.324" type="curve"/>
      <point x="138.108" y="276.706"/>
      <point x="110.49" y="246.045"/>
      <point x="110.49" y="172.405" type="curve" smooth="yes"/>
      <point x="110.49" y="42.907" type="line" smooth="yes"/>
      <point x="110.49" y="-52.2725"/>
      <point x="89.9536" y="-84.4961"/>
      <point x="23.4678" y="-96.0894" type="curve"/>
      <point x="23.4678" y="-102.13" type="line"/>
      <point x="13.4095" y="-90.1304" type="line"/>
      <point x="19.3969" y="-90.1304" type="line"/>
      <point x="24.5768" y="-91.1664"/>
      <point x="29.0838" y="-91.1664"/>
      <point x="29.9853" y="-91.1664" type="curve"/>
      <point x="109.891" y="-91.1664"/>
      <point x="156.677" y="-45.884"/>
      <point x="156.677" y="33.5832" type="curve" smooth="yes"/>
      <point x="156.677" y="191.052" type="line" smooth="yes"/>
      <point x="156.677" y="284.56"/>
      <point x="169.385" y="301.877"/>
      <point x="246.793" y="307.653" type="curve"/>
      <point x="237.483" y="295.687" type="line"/>
      <point x="237.483" y="300.887" type="line"/>
      <point x="175.854" y="305.766"/>
      <point x="156.677" y="344.925"/>
      <point x="156.677" y="446.94" type="curve" smooth="yes"/>
      <point x="156.677" y="529.819" type="line" smooth="yes"/>
      <point x="156.677" y="630.399"/>
      <point x="146.936" y="697.043"/>
      <point x="31.0212" y="697.043" type="curve" smooth="yes"/>
      <point x="23.4678" y="697.043" type="line"/>
    </contour>
  </outline>
</glyph>
<glyph name="asciitilde" format="2">
  <advance width="437"/>
  <unicode hex="007E"/>
  <outline>
    <contour>
      <point x="17.9528" y="630.16" type="line"/>
      <point x="50.6784" y="658.406"/>
      <point x="77.1029" y="670.28"/>
      <point x="104.972" y="670.28" type="curve" smooth="yes"/>
      <point x="120.803" y="670.28"/>
      <point x="128.477" y="668.108"/>
      <point x="166.424" y="654.018" type="curve" smooth="yes"/>
      <point x="266.999" y="617.445"/>
      <point x="266.999" y="617.445"/>
      <point x="296.628" y="617.445" type="curve" smooth="yes"/>
      <point x="338.043" y="617.445"/>
      <point x="377.904" y="636.749"/>
      <point x="412.88" y="673.706" type="curve"/>
      <point x="409.712" y="689.151" type="line"/>
      <point x="370.856" y="653.504"/>
      <point x="344.512" y="642.136"/>
      <point x="309.06" y="642.136" type="curve" smooth="yes"/>
      <point x="285.106" y="642.136"/>
      <point x="257.043" y="649.656"/>
      <point x="212.997" y="667.919" type="curve" smooth="yes"/>
      <point x="164.967" y="687.932"/>
      <point x="144.077" y="693.936"/>
      <point x="120.511" y="693.936" type="curve" smooth="yes"/>
      <point x="85.7933" y="693.936"/>
      <point x="52.1221" y="678.699"/>
      <point x="14.7539" y="646.154" type="curve"/>
    </contour>
  </outline>
</glyph>
<glyph name="exclamdown" format="2">
  <advance width="225"/>
  <unicode hex="00A1"/>
  <outline>
    <contour>
      <point x="138.461" y="-152.289" type="line"/>
      <point x="138.461" y="11.5507" type="line"/>
      <point x="126.495" y="312.694" type="line"/>
      <point x="98.0244" y="312.694" type="line" name="hr01"/>
      <point x="86.0585" y="11.5507" type="line"/>
      <point x="86.0585" y="-152.289" type="line"/>
    </contour>
    <contour>
      <point x="112.26" y="529.214" type="curve" smooth="yes"/>
      <point x="87.7197" y="529.214"/>
      <point x="67.4108" y="509.684" name="hr02"/>
      <point x="67.4108" y="485.271" type="curve" smooth="yes"/>
      <point x="67.4108" y="461.794"/>
      <point x="87.804" y="442.364"/>
      <point x="113.296" y="442.364" type="curve" smooth="yes"/>
      <point x="137.836" y="442.364" name="hr03"/>
      <point x="158.144" y="461.794"/>
      <point x="158.144" y="485.271" type="curve" smooth="yes"/>
      <point x="158.144" y="509.684"/>
      <point x="137.751" y="529.214"/>
    </contour>
  </outline>
</glyph>
<glyph name="cent" format="2">
  <advance width="533"/>
  <unicode hex="00A2"/>
  <outline>
    <contour>
      <point x="410.971" y="224.297" type="line"/>
      <point x="381.886" y="174.113"/>
      <point x="355.149" y="158.252"/>
      <point x="300.11" y="155.806" type="curve"/>
      <point x="300.11" y="520.498" type="line"/>
      <point x="356.926" y="518.081"/>
      <point x="387.011" y="500.378"/>
      <point x="411.603" y="452.127" type="curve"/>
      <point x="455.313" y="476.896" type="line"/>
      <point x="425.655" y="530.189"/>
      <point x="381.686" y="552.158"/>
      <point x="300.11" y="553.166" type="curve"/>
      <point x="300.11" y="622.453" type="line"/>
      <point x="271.535" y="622.453" type="line"/>
      <point x="271.535" y="553.869" type="line"/>
      <point x="217.924" y="549.306"/>
      <point x="189.006" y="539.455"/>
      <point x="161.21" y="516.456" type="curve" smooth="yes"/>
      <point x="113.769" y="476.922"/>
      <point x="86.0945" y="409.826"/>
      <point x="86.0945" y="331.946" type="curve" smooth="yes"/>
      <point x="86.0945" y="269.733"/>
      <point x="103.94" y="213.357"/>
      <point x="134.673" y="174.692" type="curve" smooth="yes"/>
      <point x="164.447" y="137.235"/>
      <point x="203.391" y="119.617"/>
      <point x="271.535" y="113.023" type="curve"/>
      <point x="271.535" y="23.8276" type="line"/>
      <point x="300.11" y="23.8276" type="line"/>
      <point x="300.11" y="113.419" type="line"/>
      <point x="374.283" y="117.483"/>
      <point x="422.483" y="144.303"/>
      <point x="454.998" y="197.88" type="curve"/>
    </contour>
    <contour>
      <point x="271.535" y="155.353" type="line"/>
      <point x="183.698" y="178.859"/>
      <point x="147.821" y="230.915"/>
      <point x="147.821" y="331.946" type="curve" smooth="yes"/>
      <point x="147.821" y="445.761"/>
      <point x="187.409" y="506.115"/>
      <point x="271.535" y="519.724" type="curve"/>
    </contour>
  </outline>
</glyph>
<glyph name="sterling" format="2">
  <advance width="529"/>
  <unicode hex="00A3"/>
  <outline>
    <contour>
      <point x="232" y="365" type="line"/>
      <point x="237" y="436" type="line" smooth="yes"/>
      <point x="240" y="484"/>
      <point x="254" y="545"/>
      <point x="268" y="572" type="curve" smooth="yes"/>
      <point x="290" y="614"/>
      <point x="322" y="635"/>
      <point x="366" y="635" type="curve" smooth="yes"/>
      <point x="408" y="635"/>
      <point x="434" y="622"/>
      <point x="463" y="588" type="curve"/>
      <point x="479" y="647" type="line"/>
      <point x="437" y="672"/>
      <point x="405" y="682"/>
      <point x="370" y="682" type="curve" smooth="yes"/>
      <point x="265" y="682"/>
      <point x="197" y="594"/>
      <point x="185" y="446" type="curve" smooth="yes"/>
      <point x="179" y="365" type="line"/>
      <point x="95" y="365" type="line"/>
      <point x="95" y="317" type="line"/>
      <point x="175" y="317" type="line"/>
      <point x="171" y="269" type="line"/>
      <point x="159" y="92"/>
      <point x="140" y="56"/>
      <point x="47" y="46" type="curve"/>
      <point x="47" y="0" type="line"/>
      <point x="447" y="0" type="line"/>
      <point x="447" y="45" type="line"/>
      <point x="156" y="45" type="line"/>
      <point x="198" y="81"/>
      <point x="214" y="133"/>
      <point x="226" y="268" type="curve"/>
      <point x="229" y="317" type="line"/>
      <point x="400" y="317" type="line"/>
      <point x="400" y="365" type="line"/>
    </contour>
  </outline>
</glyph>
<glyph name="currency" format="2">
  <advance width="480"/>
  <unicode hex="00A4"/>
  <outline>
    <contour>
      <point x="22.4918" y="408.806" type="line"/>
      <point x="120.575" y="314.809" type="line"/>
      <point x="94.6855" y="279.506"/>
      <point x="84.0945" y="252.068"/>
      <point x="84.0945" y="217.988" type="curve" smooth="yes"/>
      <point x="84.0945" y="184.62"/>
      <point x="94.5892" y="155.008"/>
      <point x="119.077" y="117.693" type="curve"/>
      <point x="21.7392" y="23.4296" type="line"/>
      <point x="38.2273" y="4.19357" type="line"/>
      <point x="134.993" y="102.996" type="line"/>
      <point x="175.022" y="76.3101"/>
      <point x="203.321" y="66.3028"/>
      <point x="238.757" y="66.3028" type="curve" smooth="yes"/>
      <point x="274.08" y="66.3028"/>
      <point x="302.342" y="76.4316"/>
      <point x="336.104" y="101.191" type="curve"/>
      <point x="432.689" y="1.52323" type="line"/>
      <point x="449.942" y="18.2375" type="line"/>
      <point x="351.892" y="117.309" type="line"/>
      <point x="378.762" y="153.525"/>
      <point x="389.276" y="182.74"/>
      <point x="389.276" y="215.916" type="curve" smooth="yes"/>
      <point x="389.276" y="250.047"/>
      <point x="378.716" y="279.239"/>
      <point x="351.728" y="314.44" type="curve"/>
      <point x="446.036" y="408.749" type="line"/>
      <point x="428.242" y="427.099" type="line"/>
      <point x="334.469" y="333.326" type="line"/>
      <point x="294.492" y="356.645"/>
      <point x="267.164" y="365.529"/>
      <point x="235.649" y="365.529" type="curve" smooth="yes"/>
      <point x="202.226" y="365.529"/>
      <point x="176.024" y="356.626"/>
      <point x="135.961" y="331.03" type="curve"/>
      <point x="40.8503" y="427.164" type="line"/>
    </contour>
    <contour>
      <point x="237.721" y="352.234" type="curve" smooth="yes"/>
      <point x="311.628" y="352.234"/>
      <point x="372.097" y="290.845"/>
      <point x="372.097" y="216.952" type="curve" smooth="yes"/>
      <point x="372.097" y="139.817"/>
      <point x="312.711" y="78.5622"/>
      <point x="238.757" y="78.5622" type="curve" smooth="yes"/>
      <point x="161.632" y="78.5622"/>
      <point x="101.273" y="139.774"/>
      <point x="101.273" y="217.988" type="curve" smooth="yes"/>
      <point x="101.273" y="291.937"/>
      <point x="162.787" y="352.234"/>
    </contour>
  </outline>
</glyph>
<glyph name="yen" format="2">
  <advance width="522"/>
  <unicode hex="00A5"/>
  <outline>
    <contour>
      <point x="436.703" y="667" type="line"/>
      <point x="260.567" y="378.778" type="line"/>
      <point x="89.7686" y="667" type="line"/>
      <point x="20.095" y="667" type="line"/>
      <point x="166.168" y="421.472" type="line"/>
      <point x="35.5832" y="421.472" type="line"/>
      <point x="35.5832" y="393.673" type="line"/>
      <point x="182.91" y="393.673" type="line"/>
      <point x="226.204" y="322.297" type="line"/>
      <point x="226.204" y="286.795" type="line"/>
      <point x="35.5832" y="286.795" type="line"/>
      <point x="35.5832" y="258.996" type="line"/>
      <point x="226.204" y="258.996" type="line"/>
      <point x="226.204" y="0" type="line"/>
      <point x="282.75" y="0" type="line"/>
      <point x="282.75" y="258.996" type="line"/>
      <point x="484.767" y="258.996" type="line"/>
      <point x="484.767" y="286.795" type="line"/>
      <point x="282.75" y="286.795" type="line"/>
      <point x="282.75" y="319.284" type="line"/>
      <point x="329.243" y="393.673" type="line"/>
      <point x="484.767" y="393.673" type="line"/>
      <point x="484.767" y="421.472" type="line"/>
      <point x="346.449" y="421.472" type="line"/>
      <point x="498.739" y="667" type="line"/>
    </contour>
  </outline>
</glyph>
<glyph name="brokenbar" format="2">
  <advance width="526"/>
  <unicode hex="00A6"/>
  <outline>
    <contour>
      <point x="235.456" y="667" type="line"/>
      <point x="235.456" y="346.018" type="line"/>
      <point x="290.966" y="346.018" type="line"/>
      <point x="290.966" y="667" type="line"/>
    </contour>
    <contour>
      <point x="235.456" y="134.505" type="line"/>
      <point x="235.456" y="-173.009" type="line"/>
      <point x="290.966" y="-173.009" type="line"/>
      <point x="290.966" y="134.505" type="line"/>
    </contour>
  </outline>
</glyph>
<glyph name="section" format="2">
  <advance width="538"/>
  <unicode hex="00A7"/>
  <outline>
    <contour>
      <point x="455.381" y="582.52" type="line"/>
      <point x="423.514" y="655.074"/>
      <point x="358.481" y="681.504"/>
      <point x="282.197" y="681.504" type="curve" smooth="yes"/>
      <point x="184.383" y="681.504"/>
      <point x="101.634" y="627.703"/>
      <point x="101.634" y="523.603" type="curve" smooth="yes"/>
      <point x="101.634" y="497.081"/>
      <point x="108.615" y="475.47"/>
      <point x="129.556" y="432.424" type="curve"/>
      <point x="82.8171" y="390.032"/>
      <point x="64.3388" y="354.646" name="hr01"/>
      <point x="64.3388" y="307.082" type="curve" smooth="yes"/>
      <point x="64.3388" y="267.151"/>
      <point x="80.6683" y="226.121"/>
      <point x="106.603" y="203.068" type="curve" smooth="yes"/>
      <point x="129.707" y="181.89"/>
      <point x="142.805" y="174.923"/>
      <point x="231.962" y="140.082" type="curve" smooth="yes"/>
      <point x="333.472" y="100.721"/>
      <point x="333.472" y="100.721"/>
      <point x="352.699" y="89.411" type="curve"/>
      <point x="375.655" y="74.9122"/>
      <point x="386.529" y="51.9843"/>
      <point x="386.529" y="17.0075" type="curve" smooth="yes"/>
      <point x="386.529" y="-62.6299"/>
      <point x="330.674" y="-117.238"/>
      <point x="248.009" y="-117.238" type="curve" smooth="yes"/>
      <point x="157.129" y="-117.238"/>
      <point x="117.836" y="-58.4886"/>
      <point x="100.373" y="20.8096" type="curve" name="hr02"/>
      <point x="40.4639" y="-12.2982" type="line"/>
      <point x="66.5448" y="-115.159"/>
      <point x="142.111" y="-158.505"/>
      <point x="248.009" y="-158.505" type="curve" smooth="yes"/>
      <point x="366.496" y="-158.505"/>
      <point x="452.399" y="-80.6529"/>
      <point x="452.399" y="27.3673" type="curve" smooth="yes"/>
      <point x="452.399" y="63.1117"/>
      <point x="442.058" y="86.2445"/>
      <point x="407.585" y="131.058" type="curve"/>
      <point x="454.236" y="177.709"/>
      <point x="473.119" y="213.605"/>
      <point x="473.119" y="254.247" type="curve" smooth="yes"/>
      <point x="473.119" y="282.74"/>
      <point x="460.836" y="311.536"/>
      <point x="440.049" y="330.433" type="curve"/>
      <point x="414.853" y="354.66"/>
      <point x="390.589" y="366.665"/>
      <point x="313.906" y="395.293" type="curve" smooth="yes"/>
      <point x="252.568" y="418.165"/>
      <point x="236.667" y="425.632"/>
      <point x="213.915" y="439.696" type="curve"/>
      <point x="180.519" y="459.273"/>
      <point x="164.396" y="490.744"/>
      <point x="164.396" y="532.927" type="curve" smooth="yes"/>
      <point x="164.396" y="600.579"/>
      <point x="206.449" y="640.237"/>
      <point x="278.053" y="640.237" type="curve" smooth="yes"/>
      <point x="340.972" y="640.237"/>
      <point x="381.041" y="611.364"/>
      <point x="401.685" y="548.001" type="curve"/>
    </contour>
    <contour>
      <point x="324.51" y="164.668" type="line"/>
      <point x="325.11" y="164.357" type="line"/>
      <point x="298.609" y="174.859" type="line" smooth="yes"/>
      <point x="209.72" y="210.081"/>
      <point x="205.537" y="211.738"/>
      <point x="185.679" y="221.652" type="curve"/>
      <point x="140.411" y="243.155"/>
      <point x="117.777" y="277.938"/>
      <point x="117.777" y="323.658" type="curve" smooth="yes"/>
      <point x="117.777" y="351.256"/>
      <point x="128.227" y="372.626"/>
      <point x="155.659" y="403.977" type="curve"/>
      <point x="201.142" y="381.818"/>
      <point x="217.176" y="375.365"/>
      <point x="278.394" y="352.542" type="curve" smooth="yes"/>
      <point x="344.027" y="328.581"/>
      <point x="361.17" y="319.922"/>
      <point x="382.294" y="305.469" type="curve"/>
      <point x="404.492" y="289.112"/>
      <point x="419.681" y="261.419"/>
      <point x="419.681" y="235.6" type="curve" smooth="yes"/>
      <point x="419.681" y="206.911"/>
      <point x="406.083" y="181.329"/>
      <point x="370.235" y="143.009" type="curve"/>
    </contour>
  </outline>
</glyph>
<glyph name="dieresis" format="2">
  <advance width="491"/>
  <unicode hex="00A8"/>
  <outline>
    <contour>
      <point x="135.087" y="663.892" type="curve" smooth="yes"/>
      <point x="112.547" y="663.892"/>
      <point x="93.3463" y="645.697"/>
      <point x="93.3463" y="625.129" type="curve" smooth="yes"/>
      <point x="93.3463" y="602.71"/>
      <point x="111.712" y="584.294"/>
      <point x="135.087" y="584.294" type="curve" smooth="yes"/>
      <point x="157.627" y="584.294"/>
      <point x="176.828" y="602.601"/>
      <point x="176.828" y="624.093" type="curve" smooth="yes"/>
      <point x="176.828" y="645.584"/>
      <point x="157.627" y="663.892"/>
    </contour>
    <contour>
      <point x="328.816" y="663.892" type="curve" smooth="yes"/>
      <point x="306.276" y="663.892"/>
      <point x="287.075" y="645.697"/>
      <point x="287.075" y="625.129" type="curve" smooth="yes"/>
      <point x="287.075" y="602.71"/>
      <point x="305.441" y="584.294"/>
      <point x="328.816" y="584.294" type="curve" smooth="yes"/>
      <point x="351.356" y="584.294"/>
      <point x="370.557" y="602.601"/>
      <point x="370.557" y="624.093" type="curve" smooth="yes"/>
      <point x="370.557" y="645.584"/>
      <point x="351.356" y="663.892"/>
    </contour>
  </outline>
</glyph>
<glyph name="copyright" format="2">
  <advance width="762"/>
  <unicode hex="00A9"/>
  <outline>
    <contour>
      <point x="540.243" y="479.03" type="line"/>
      <point x="500.537" y="522.686"/>
      <point x="459.592" y="538.538"/>
      <point x="392.975" y="538.538" type="curve" smooth="yes"/>
      <point x="266.413" y="538.538"/>
      <point x="182.369" y="455.268"/>
      <point x="182.369" y="329.874" type="curve" smooth="yes"/>
      <point x="182.369" y="203.747"/>
      <point x="260.428" y="128.462"/>
      <point x="389.867" y="128.462" type="curve" smooth="yes"/>
      <point x="459.395" y="128.462"/>
      <point x="499.651" y="144.336"/>
      <point x="540.147" y="188.058" type="curve"/>
      <point x="510.008" y="215.576" type="line"/>
      <point x="481.963" y="171.461"/>
      <point x="451.026" y="156.261"/>
      <point x="392.975" y="156.261" type="curve" smooth="yes"/>
      <point x="285.761" y="156.261"/>
      <point x="231.663" y="227.797"/>
      <point x="231.663" y="329.874" type="curve" smooth="yes"/>
      <point x="231.663" y="440.834"/>
      <point x="294.614" y="510.739"/>
      <point x="394.011" y="510.739" type="curve" smooth="yes"/>
      <point x="448.548" y="510.739"/>
      <point x="483.04" y="492.332"/>
      <point x="510.036" y="451.45" type="curve"/>
    </contour>
    <contour>
      <point x="385.723" y="680.468" type="curve" smooth="yes"/>
      <point x="189.31" y="680.468"/>
      <point x="33.1874" y="527.254"/>
      <point x="33.1874" y="332.982" type="curve" smooth="yes"/>
      <point x="33.1874" y="142.735"/>
      <point x="190.266" y="-13.4678"/>
      <point x="381.579" y="-13.4678" type="curve" smooth="yes"/>
      <point x="572.876" y="-13.4678"/>
      <point x="728.935" y="141.734"/>
      <point x="728.935" y="332.982" type="curve" smooth="yes"/>
      <point x="728.935" y="523.248"/>
      <point x="573.936" y="680.468"/>
    </contour>
    <contour>
      <point x="384.687" y="644.381" type="curve" smooth="yes"/>
      <point x="548.708" y="644.381"/>
      <point x="683.784" y="503.209"/>
      <point x="683.784" y="334.018" type="curve" smooth="yes"/>
      <point x="683.784" y="162.672"/>
      <point x="547.685" y="23.6552"/>
      <point x="381.579" y="23.6552" type="curve" smooth="yes"/>
      <point x="215.493" y="23.6552"/>
      <point x="78.3378" y="163.768"/>
      <point x="78.3378" y="332.982" type="curve" smooth="yes"/>
      <point x="78.3378" y="507.538"/>
      <point x="213.303" y="644.381"/>
    </contour>
  </outline>
</glyph>
<glyph name="ordfeminine" format="2">
  <advance width="315"/>
  <unicode hex="00AA"/>
  <outline>
    <contour>
      <point x="267" y="530" type="line"/>
      <point x="230" y="530" type="line"/>
      <point x="230" y="502" type="line"/>
      <point x="206" y="525"/>
      <point x="178" y="536"/>
      <point x="148" y="536" type="curve" smooth="yes"/>
      <point x="78" y="536"/>
      <point x="26" y="477"/>
      <point x="26" y="399" type="curve" smooth="yes"/>
      <point x="26" y="320"/>
      <point x="78" y="261"/>
      <point x="149" y="261" type="curve" smooth="yes"/>
      <point x="180" y="261"/>
      <point x="206" y="272"/>
      <point x="230" y="295" type="curve"/>
      <point x="230" y="267" type="line"/>
      <point x="267" y="267" type="line"/>
    </contour>
    <contour>
      <point x="150" y="501" type="curve" smooth="yes"/>
      <point x="200" y="501"/>
      <point x="234" y="460"/>
      <point x="234" y="399" type="curve" smooth="yes"/>
      <point x="234" y="338"/>
      <point x="200" y="296"/>
      <point x="150" y="296" type="curve" smooth="yes"/>
      <point x="100" y="296"/>
      <point x="66" y="337"/>
      <point x="66" y="400" type="curve" smooth="yes"/>
      <point x="66" y="460"/>
      <point x="100" y="501"/>
    </contour>
  </outline>
</glyph>
<glyph name="guillemotleft" format="2">
  <advance width="384"/>
  <unicode hex="00AB"/>
  <outline>
    <contour>
      <point x="333.188" y="0" type="line"/>
      <point x="267.412" y="218.927" type="line"/>
      <point x="328.242" y="431.832" type="line"/>
      <point x="315.648" y="431.832" type="line"/>
      <point x="201.843" y="218.938" type="line"/>
      <point x="315.73" y="0" type="line"/>
    </contour>
    <contour>
      <point x="174.611" y="0" type="line"/>
      <point x="107.862" y="218.897" type="line"/>
      <point x="168.701" y="431.832" type="line"/>
      <point x="157.143" y="431.832" type="line"/>
      <point x="43.3375" y="218.938" type="line"/>
      <point x="157.225" y="0" type="line"/>
    </contour>
  </outline>
</glyph>
<glyph name="logicalnot" format="2">
  <advance width="531"/>
  <unicode hex="00AC"/>
  <outline>
    <contour>
      <point x="12.4318" y="302.334" type="line"/>
      <point x="12.4318" y="280.751" type="line"/>
      <point x="471.372" y="280.751" type="line"/>
      <point x="471.372" y="49.7271" type="line"/>
      <point x="499.947" y="49.7271" type="line"/>
      <point x="499.947" y="302.334" type="line"/>
    </contour>
  </outline>
</glyph>
<glyph name="softhyphen" format="2">
  <advance width="198"/>
  <unicode hex="00AD"/>
  <outline>
    <contour>
      <point x="0" y="252.607" type="line"/>
      <point x="0" y="218.592" type="line"/>
      <point x="197.44" y="218.592" type="line"/>
      <point x="197.44" y="252.607" type="line"/>
    </contour>
  </outline>
</glyph>
<glyph name="registered" format="2">
  <advance width="755"/>
  <unicode hex="00AE"/>
  <outline>
    <contour>
      <point x="266" y="127" type="line"/>
      <point x="317" y="127" type="line"/>
      <point x="317" y="316" type="line"/>
      <point x="356" y="316" type="line"/>
      <point x="475" y="127" type="line"/>
      <point x="530" y="127" type="line"/>
      <point x="408" y="322" type="line"/>
      <point x="454" y="327"/>
      <point x="496" y="383"/>
      <point x="496" y="437" type="curve" smooth="yes"/>
      <point x="496" y="480"/>
      <point x="474" y="516"/>
      <point x="438" y="530" type="curve" smooth="yes"/>
      <point x="421" y="536"/>
      <point x="398" y="539"/>
      <point x="357" y="539" type="curve" smooth="yes"/>
      <point x="266" y="539" type="line"/>
    </contour>
    <contour>
      <point x="317" y="361" type="line"/>
      <point x="317" y="495" type="line"/>
      <point x="350" y="495" type="line"/>
      <point x="379" y="495" type="line" smooth="yes"/>
      <point x="423" y="495"/>
      <point x="441" y="478"/>
      <point x="441" y="438" type="curve" smooth="yes"/>
      <point x="441" y="410"/>
      <point x="430" y="386"/>
      <point x="413" y="375" type="curve" smooth="yes"/>
      <point x="397" y="364"/>
      <point x="384" y="362"/>
      <point x="350" y="362" type="curve"/>
    </contour>
    <contour>
      <point x="382" y="680" type="curve" smooth="yes"/>
      <point x="186" y="680"/>
      <point x="32" y="527"/>
      <point x="32" y="333" type="curve" smooth="yes"/>
      <point x="32" y="143"/>
      <point x="188" y="-13"/>
      <point x="377" y="-13" type="curve" smooth="yes"/>
      <point x="568" y="-13"/>
      <point x="722" y="142"/>
      <point x="722" y="333" type="curve" smooth="yes"/>
      <point x="722" y="523"/>
      <point x="568" y="680"/>
    </contour>
    <contour>
      <point x="381" y="633" type="curve" smooth="yes"/>
      <point x="540" y="633"/>
      <point x="672" y="497"/>
      <point x="672" y="333" type="curve" smooth="yes"/>
      <point x="672" y="168"/>
      <point x="540" y="34"/>
      <point x="378" y="34" type="curve" smooth="yes"/>
      <point x="216" y="34"/>
      <point x="83" y="169"/>
      <point x="83" y="333" type="curve" smooth="yes"/>
      <point x="83" y="501"/>
      <point x="214" y="633"/>
    </contour>
  </outline>
</glyph>
<glyph name="macron" format="2">
  <advance width="490"/>
  <unicode hex="00AF"/>
  <outline>
    <contour>
      <point x="124.462" y="634.885" type="line"/>
      <point x="124.462" y="610.193" type="line"/>
      <point x="365.413" y="610.193" type="line"/>
      <point x="365.413" y="634.885" type="line"/>
    </contour>
  </outline>
</glyph>
<glyph name="degree" format="2">
  <advance width="400"/>
  <unicode hex="00B0"/>
  <outline>
    <contour>
      <point x="203" y="686" type="curve" smooth="yes"/>
      <point x="118" y="686"/>
      <point x="50" y="619"/>
      <point x="50" y="534" type="curve" smooth="yes"/>
      <point x="50" y="448"/>
      <point x="116" y="380"/>
      <point x="200" y="380" type="curve" smooth="yes"/>
      <point x="284" y="380"/>
      <point x="350" y="447"/>
      <point x="350" y="533" type="curve" smooth="yes"/>
      <point x="350" y="619"/>
      <point x="286" y="686"/>
    </contour>
    <contour>
      <point x="202" y="629" type="curve" smooth="yes"/>
      <point x="252" y="629"/>
      <point x="293" y="586"/>
      <point x="293" y="533" type="curve" smooth="yes"/>
      <point x="293" y="479"/>
      <point x="252" y="437"/>
      <point x="200" y="437" type="curve" smooth="yes"/>
      <point x="149" y="437"/>
      <point x="106" y="480"/>
      <point x="106" y="533" type="curve" smooth="yes"/>
      <point x="106" y="586"/>
      <point x="148" y="629"/>
    </contour>
  </outline>
</glyph>
<glyph name="plusminus" format="2">
  <advance width="496"/>
  <unicode hex="00B1"/>
  <outline>
    <contour>
      <point x="8" y="369" type="line"/>
      <point x="8" y="333" type="line"/>
      <point x="227" y="333" type="line"/>
      <point x="227" y="111" type="line"/>
      <point x="266" y="111" type="line"/>
      <point x="266" y="333" type="line"/>
      <point x="489" y="333" type="line"/>
      <point x="489" y="369" type="line"/>
      <point x="266" y="369" type="line"/>
      <point x="266" y="594" type="line"/>
      <point x="227" y="594" type="line"/>
      <point x="227" y="369" type="line"/>
    </contour>
    <contour>
      <point x="8" y="36" type="line"/>
      <point x="8" y="0" type="line"/>
      <point x="489" y="0" type="line"/>
      <point x="489" y="36" type="line"/>
    </contour>
  </outline>
</glyph>
<glyph name="twosuperior" format="2">
  <advance width="343"/>
  <unicode hex="00B2"/>
  <outline>
    <contour>
      <point x="288.642" y="298.19" type="line"/>
      <point x="91.7542" y="298.19" type="line"/>
      <point x="235.623" y="456.785"/>
      <point x="274.138" y="516.293"/>
      <point x="274.138" y="579.546" type="curve" smooth="yes"/>
      <point x="274.138" y="640.305"/>
      <point x="233.288" y="675.288"/>
      <point x="162.987" y="675.288" type="curve" smooth="yes"/>
      <point x="110.219" y="675.288"/>
      <point x="81.7472" y="653.925"/>
      <point x="58.9519" y="599.121" type="curve"/>
      <point x="90.157" y="578.526" type="line"/>
      <point x="99.1234" y="631.574"/>
      <point x="121.48" y="653.705"/>
      <point x="164.023" y="653.705" type="curve" smooth="yes"/>
      <point x="207.561" y="653.705"/>
      <point x="234.168" y="625.352"/>
      <point x="234.168" y="578.51" type="curve" smooth="yes"/>
      <point x="234.168" y="530.852"/>
      <point x="215.937" y="485.123"/>
      <point x="175.187" y="430.431" type="curve" smooth="yes"/>
      <point x="150.027" y="396.885"/>
      <point x="124.256" y="367.862"/>
      <point x="54.943" y="297.454" type="curve"/>
      <point x="54.943" y="276.607" type="line"/>
      <point x="288.642" y="276.607" type="line"/>
    </contour>
  </outline>
</glyph>
<glyph name="threesuperior" format="2">
  <advance width="347"/>
  <unicode hex="00B3"/>
  <outline>
    <contour>
      <point x="114" y="466" type="line"/>
      <point x="140" y="468"/>
      <point x="145" y="468"/>
      <point x="154" y="468" type="curve" smooth="yes"/>
      <point x="205" y="468"/>
      <point x="233" y="439"/>
      <point x="233" y="386" type="curve" smooth="yes"/>
      <point x="233" y="328"/>
      <point x="202" y="293"/>
      <point x="151" y="293" type="curve" smooth="yes"/>
      <point x="116" y="293"/>
      <point x="92" y="307"/>
      <point x="64" y="346" type="curve"/>
      <point x="33" y="316" type="line"/>
      <point x="65" y="278"/>
      <point x="103" y="259"/>
      <point x="149" y="259" type="curve" smooth="yes"/>
      <point x="223" y="259"/>
      <point x="276" y="313"/>
      <point x="276" y="390" type="curve" smooth="yes"/>
      <point x="276" y="446"/>
      <point x="245" y="486"/>
      <point x="193" y="496" type="curve"/>
      <point x="229" y="515"/>
      <point x="249" y="547" name="hr01"/>
      <point x="249" y="585" type="curve" smooth="yes"/>
      <point x="249" y="638"/>
      <point x="212" y="675"/>
      <point x="157" y="675" type="curve" smooth="yes"/>
      <point x="115" y="675"/>
      <point x="91" y="661"/>
      <point x="62" y="619" type="curve"/>
      <point x="96" y="594" type="line"/>
      <point x="111" y="630"/>
      <point x="126" y="643"/>
      <point x="154" y="643" type="curve" smooth="yes"/>
      <point x="187" y="643"/>
      <point x="206" y="622"/>
      <point x="206" y="585" type="curve" smooth="yes"/>
      <point x="206" y="537"/>
      <point x="180" y="511"/>
      <point x="128" y="507" type="curve"/>
      <point x="123" y="507" type="line"/>
      <point x="114" y="506" type="line"/>
    </contour>
  </outline>
</glyph>
<glyph name="acute" format="2">
  <advance width="500"/>
  <unicode hex="00B4"/>
  <outline>
    <contour>
      <point x="343" y="697" type="line"/>
      <point x="210" y="539" type="line"/>
      <point x="237" y="535" type="line"/>
      <point x="409" y="688" type="line"/>
    </contour>
  </outline>
</glyph>
<glyph name="micro" format="2">
  <advance width="496"/>
  <unicode hex="00B5"/>
  <outline>
    <contour>
      <point x="66.808" y="437.464" type="line"/>
      <point x="69.1973" y="305.029"/>
      <point x="71.5743" y="173.216"/>
      <point x="73.9635" y="40.7868" type="curve"/>
      <point x="73.9643" y="24.875" type="line" smooth="yes"/>
      <point x="73.9643" y="-33.2563"/>
      <point x="69.3113" y="-110.525"/>
      <point x="61.6635" y="-182.268" type="curve"/>
      <point x="113.733" y="-182.268" type="line"/>
      <point x="111.484" y="56.1389" type="line"/>
      <point x="154.287" y="10.5746"/>
      <point x="188.847" y="-7.375" name="hr01"/>
      <point x="235.611" y="-7.375" type="curve" smooth="yes"/>
      <point x="283.47" y="-7.375"/>
      <point x="317.538" y="10.7405"/>
      <point x="373.179" y="66.3808" type="curve"/>
      <point x="373.179" y="0" type="line" name="hr02"/>
      <point x="419.383" y="0" type="line"/>
      <point x="419.383" y="437.464" type="line"/>
      <point x="373.179" y="437.464" type="line"/>
      <point x="373.179" y="192.393" type="line" smooth="yes"/>
      <point x="373.179" y="122.73"/>
      <point x="367.41" y="100.1"/>
      <point x="341.028" y="72.6056" type="curve"/>
      <point x="315.471" y="44.7257"/>
      <point x="279.191" y="30.7857"/>
      <point x="236.665" y="30.7857" type="curve" smooth="yes"/>
      <point x="197.355" y="30.7857"/>
      <point x="166.514" y="42.5334"/>
      <point x="144.194" y="64.854" type="curve" smooth="yes"/>
      <point x="118.416" y="90.6321"/>
      <point x="114.9" y="106.517"/>
      <point x="114.9" y="181.857" type="curve" smooth="yes"/>
      <point x="114.9" y="437.464" type="line"/>
    </contour>
  </outline>
</glyph>
<glyph name="paragraph" format="2">
  <advance width="498"/>
  <unicode hex="00B6"/>
  <outline>
    <contour>
      <point x="373.99" y="647.604" type="line"/>
      <point x="373.99" y="-89.0945" type="line"/>
      <point x="397.384" y="-89.0945" type="line"/>
      <point x="397.384" y="650.773" type="line"/>
      <point x="479.227" y="658.025" type="line"/>
      <point x="479.227" y="667" type="line"/>
      <point x="233.398" y="667" type="line" smooth="yes"/>
      <point x="159.482" y="667"/>
      <point x="122.505" y="660.201"/>
      <point x="91.5823" y="641.861" type="curve"/>
      <point x="50.9709" y="616.721"/>
      <point x="24.8636" y="564.684"/>
      <point x="24.8636" y="505.991" type="curve" smooth="yes"/>
      <point x="24.8636" y="444.347"/>
      <point x="52.3248" y="394.9"/>
      <point x="104.305" y="360.574" type="curve" smooth="yes"/>
      <point x="143.73" y="333.962"/>
      <point x="177.894" y="323.839"/>
      <point x="254.852" y="316.032" type="curve"/>
      <point x="254.852" y="-89.0945" type="line"/>
      <point x="278.246" y="-89.0945" type="line"/>
      <point x="278.246" y="637.111" type="line"/>
    </contour>
  </outline>
</glyph>
<glyph name="periodcentered" format="2">
  <advance width="222"/>
  <unicode hex="00B7"/>
  <outline>
    <contour>
      <point x="111" y="281" type="curve" smooth="yes"/>
      <point x="86" y="281"/>
      <point x="63" y="259"/>
      <point x="63" y="234" type="curve" smooth="yes"/>
      <point x="63" y="208"/>
      <point x="85" y="185"/>
      <point x="111" y="185" type="curve" smooth="yes"/>
      <point x="137" y="185"/>
      <point x="159" y="207"/>
      <point x="159" y="233" type="curve" smooth="yes"/>
      <point x="159" y="259"/>
      <point x="137" y="281"/>
    </contour>
  </outline>
</glyph>
<glyph name="cedilla" format="2">
  <advance width="500"/>
  <unicode hex="00B8"/>
  <outline>
    <contour>
      <point x="205" y="-52" type="line"/>
      <point x="238" y="-70"/>
      <point x="248" y="-82"/>
      <point x="248" y="-104" type="curve" smooth="yes"/>
      <point x="248" y="-126"/>
      <point x="234" y="-144"/>
      <point x="203" y="-163" type="curve"/>
      <point x="239" y="-176" type="line"/>
      <point x="276" y="-151"/>
      <point x="298" y="-116"/>
      <point x="298" y="-81" type="curve" smooth="yes"/>
      <point x="298" y="-50"/>
      <point x="284" y="-29"/>
      <point x="252" y="-9" type="curve"/>
    </contour>
  </outline>
</glyph>
<glyph name="onesuperior" format="2">
  <advance width="347"/>
  <unicode hex="00B9"/>
  <outline>
    <contour>
      <point x="233" y="667" type="line"/>
      <point x="216" y="667" type="line"/>
      <point x="189" y="622"/>
      <point x="169" y="612"/>
      <point x="89" y="605" type="curve"/>
      <point x="89" y="579" type="line"/>
      <point x="191" y="581" type="line"/>
      <point x="191" y="267" type="line"/>
      <point x="233" y="267" type="line"/>
    </contour>
  </outline>
</glyph>
<glyph name="ordmasculine" format="2">
  <advance width="348"/>
  <unicode hex="00BA"/>
  <outline>
    <contour>
      <point x="174.397" y="685.054" type="curve" smooth="yes"/>
      <point x="96.1774" y="685.054"/>
      <point x="44.3571" y="631.89"/>
      <point x="44.3571" y="551.661" type="curve" smooth="yes"/>
      <point x="44.3571" y="468.373"/>
      <point x="94.2219" y="415.107"/>
      <point x="174.397" y="415.107" type="curve" smooth="yes"/>
      <point x="252.57" y="415.107"/>
      <point x="303.383" y="468.305"/>
      <point x="303.383" y="549.554" type="curve" smooth="yes"/>
      <point x="303.383" y="631.821"/>
      <point x="252.57" y="685.054"/>
    </contour>
    <contour>
      <point x="174.397" y="662.696" type="curve" smooth="yes"/>
      <point x="227.779" y="662.696"/>
      <point x="264.554" y="617.861"/>
      <point x="264.554" y="550.607" type="curve" smooth="yes"/>
      <point x="264.554" y="482.25"/>
      <point x="227.779" y="437.464"/>
      <point x="174.397" y="437.464" type="curve" smooth="yes"/>
      <point x="118.723" y="437.464"/>
      <point x="83.1862" y="482.201"/>
      <point x="83.1862" y="551.661" type="curve" smooth="yes"/>
      <point x="83.1862" y="617.81"/>
      <point x="119.907" y="662.696"/>
    </contour>
  </outline>
</glyph>
<glyph name="guillemotright" format="2">
  <advance width="383"/>
  <unicode hex="00BB"/>
  <outline>
    <contour>
      <point x="50.0381" y="431.832" type="line"/>
      <point x="115.793" y="213.959" type="line"/>
      <point x="54.9418" y="0" type="line"/>
      <point x="67.5427" y="0" type="line"/>
      <point x="181.362" y="213.901" type="line"/>
      <point x="67.4881" y="431.832" type="line"/>
    </contour>
    <contour>
      <point x="208.543" y="431.832" type="line"/>
      <point x="274.298" y="213.959" type="line"/>
      <point x="213.447" y="0" type="line"/>
      <point x="226.048" y="0" type="line"/>
      <point x="339.867" y="213.901" type="line"/>
      <point x="225.993" y="431.832" type="line"/>
    </contour>
  </outline>
</glyph>
<glyph name="onequarter" format="2">
  <advance width="861"/>
  <unicode hex="00BC"/>
  <outline>
    <contour>
      <point x="229.627" y="667" type="line"/>
      <point x="210.878" y="667" type="line"/>
      <point x="185.389" y="621.575"/>
      <point x="160.513" y="609.039"/>
      <point x="82.9505" y="602.519" type="curve"/>
      <point x="82.9505" y="595.043" type="line"/>
      <point x="191.729" y="599.187" type="line"/>
      <point x="191.729" y="276.607" type="line"/>
      <point x="229.627" y="276.607" type="line"/>
    </contour>
    <contour>
      <point x="664.589" y="672.042" type="line"/>
      <point x="637.697" y="676.524" type="line"/>
      <point x="194.912" y="-4.22085" type="line"/>
      <point x="223.976" y="-9.4524" type="line"/>
    </contour>
    <contour>
      <point x="768.338" y="390.393" type="line"/>
      <point x="720.147" y="390.393" type="line"/>
      <point x="547.07" y="118.703" type="line"/>
      <point x="547.07" y="91.1664" type="line"/>
      <point x="734.583" y="91.1664" type="line"/>
      <point x="734.583" y="0" type="line"/>
      <point x="768.338" y="0" type="line"/>
      <point x="768.338" y="91.1664" type="line"/>
      <point x="827.389" y="91.1664" type="line"/>
      <point x="827.389" y="112.75" type="line"/>
      <point x="768.338" y="112.75" type="line"/>
    </contour>
    <contour>
      <point x="734.583" y="366.883" type="line"/>
      <point x="734.583" y="112.75" type="line"/>
      <point x="580.563" y="112.75" type="line"/>
    </contour>
  </outline>
</glyph>
<glyph name="onehalf" format="2">
  <advance width="860"/>
  <unicode hex="00BD"/>
  <outline>
    <contour>
      <point x="229.627" y="667" type="line"/>
      <point x="210.878" y="667" type="line"/>
      <point x="185.389" y="621.575"/>
      <point x="160.513" y="609.039"/>
      <point x="82.9505" y="602.519" type="curve"/>
      <point x="82.9505" y="595.043" type="line"/>
      <point x="191.729" y="599.187" type="line"/>
      <point x="191.729" y="276.607" type="line"/>
      <point x="229.627" y="276.607" type="line"/>
    </contour>
    <contour>
      <point x="664.589" y="672.042" type="line"/>
      <point x="637.697" y="676.524" type="line"/>
      <point x="194.912" y="-4.22085" type="line"/>
      <point x="223.976" y="-9.4524" type="line"/>
    </contour>
    <contour>
      <point x="805.633" y="21.5832" type="line"/>
      <point x="608.745" y="21.5832" type="line"/>
      <point x="752.614" y="180.178"/>
      <point x="791.129" y="239.685"/>
      <point x="791.129" y="302.939" type="curve" smooth="yes"/>
      <point x="791.129" y="363.698"/>
      <point x="750.279" y="398.681"/>
      <point x="679.978" y="398.681" type="curve" smooth="yes"/>
      <point x="627.23" y="398.681"/>
      <point x="598.75" y="377.247"/>
      <point x="575.948" y="321.64" type="curve"/>
      <point x="607.11" y="301.696" type="line"/>
      <point x="616.077" y="354.745"/>
      <point x="638.471" y="377.097"/>
      <point x="681.014" y="377.097" type="curve" smooth="yes"/>
      <point x="724.552" y="377.097"/>
      <point x="751.159" y="348.745"/>
      <point x="751.159" y="301.903" type="curve" smooth="yes"/>
      <point x="751.159" y="254.245"/>
      <point x="732.928" y="208.516"/>
      <point x="692.178" y="153.824" type="curve" smooth="yes"/>
      <point x="667.018" y="120.278"/>
      <point x="641.247" y="91.2548"/>
      <point x="571.934" y="20.8464" type="curve"/>
      <point x="571.934" y="0" type="line"/>
      <point x="805.633" y="0" type="line"/>
    </contour>
  </outline>
</glyph>
<glyph name="threequarters" format="2">
  <advance width="856"/>
  <unicode hex="00BE"/>
  <outline>
    <contour>
      <point x="116.282" y="474.328" type="line"/>
      <point x="128.964" y="476.369"/>
      <point x="141.009" y="477.588"/>
      <point x="147.663" y="477.588" type="curve" smooth="yes"/>
      <point x="200.482" y="477.588"/>
      <point x="233.348" y="444.04"/>
      <point x="233.348" y="388.925" type="curve" smooth="yes"/>
      <point x="233.348" y="329.809"/>
      <point x="199.415" y="291.975"/>
      <point x="145.591" y="291.975" type="curve" smooth="yes"/>
      <point x="107.065" y="291.975"/>
      <point x="84.4867" y="304.638"/>
      <point x="59.0799" y="344.098" type="curve"/>
      <point x="30.2204" y="323.395" type="line"/>
      <point x="66.5052" y="281.601"/>
      <point x="94.9275" y="268.319"/>
      <point x="142.483" y="268.319" type="curve" smooth="yes"/>
      <point x="219.445" y="268.319"/>
      <point x="273.318" y="320.373"/>
      <point x="273.318" y="395.141" type="curve" smooth="yes"/>
      <point x="273.318" y="441.72"/>
      <point x="236.708" y="476.555"/>
      <point x="171.333" y="493.553" type="curve"/>
      <point x="222.491" y="521.974"/>
      <point x="249.491" y="555.49"/>
      <point x="249.491" y="589.906" type="curve" smooth="yes"/>
      <point x="249.491" y="640.772"/>
      <point x="208.986" y="675.288" name="hr01"/>
      <point x="148.699" y="675.288" type="curve" smooth="yes"/>
      <point x="105.944" y="675.288"/>
      <point x="78.1045" y="659.837"/>
      <point x="55.775" y="623.684" type="curve"/>
      <point x="84.9192" y="606.942" type="line"/>
      <point x="100.472" y="643.473"/>
      <point x="117.895" y="654.741"/>
      <point x="148.699" y="654.741" type="curve" smooth="yes"/>
      <point x="187.178" y="654.741"/>
      <point x="209.52" y="630.755"/>
      <point x="209.52" y="587.834" type="curve" smooth="yes"/>
      <point x="209.52" y="537.018"/>
      <point x="174.47" y="504.351"/>
      <point x="120.727" y="504.351" type="curve" smooth="yes"/>
      <point x="116.282" y="504.351" type="line"/>
    </contour>
    <contour>
      <point x="659.589" y="672.042" type="line"/>
      <point x="632.697" y="676.524" type="line"/>
      <point x="189.912" y="-4.22085" type="line"/>
      <point x="218.976" y="-9.4524" type="line"/>
    </contour>
    <contour>
      <point x="764.374" y="390.393" type="line"/>
      <point x="716.183" y="390.393" type="line"/>
      <point x="543.106" y="118.703" type="line"/>
      <point x="543.106" y="91.1664" type="line"/>
      <point x="730.619" y="91.1664" type="line"/>
      <point x="730.619" y="0" type="line"/>
      <point x="764.374" y="0" type="line"/>
      <point x="764.374" y="91.1664" type="line"/>
      <point x="823.425" y="91.1664" type="line"/>
      <point x="823.425" y="112.75" type="line"/>
      <point x="764.374" y="112.75" type="line"/>
    </contour>
    <contour>
      <point x="730.619" y="366.883" type="line"/>
      <point x="730.619" y="112.75" type="line"/>
      <point x="576.599" y="112.75" type="line"/>
    </contour>
  </outline>
</glyph>
<glyph name="questiondown" format="2">
  <advance width="325"/>
  <unicode hex="00BF"/>
  <outline>
    <contour>
      <point x="255.534" y="-45.6441" type="line"/>
      <point x="241.933" y="-93.2905"/>
      <point x="212.682" y="-118.274"/>
      <point x="168.167" y="-118.274" type="curve" smooth="yes"/>
      <point x="115.592" y="-118.274"/>
      <point x="79.3738" y="-81.1989"/>
      <point x="79.3738" y="-28.5757" type="curve" smooth="yes"/>
      <point x="79.3738" y="19.1175"/>
      <point x="99.8271" y="55.4886"/>
      <point x="160.11" y="114.695" type="curve" smooth="yes"/>
      <point x="220.989" y="173.578"/>
      <point x="239.951" y="206.777"/>
      <point x="239.951" y="255.283" type="curve" smooth="yes"/>
      <point x="239.951" y="285.628"/>
      <point x="232.815" y="306.702"/>
      <point x="211.79" y="331.342" type="curve"/>
      <point x="159.92" y="331.342" type="line"/>
      <point x="178.539" y="304.006"/>
      <point x="186.513" y="276.753"/>
      <point x="186.513" y="248.031" type="curve" smooth="yes"/>
      <point x="186.513" y="216.309"/>
      <point x="172.187" y="187.952"/>
      <point x="141.394" y="154.972" type="curve" smooth="yes"/>
      <point x="73.0201" y="80.3829"/>
      <point x="73.0201" y="80.3829"/>
      <point x="59.3775" y="59.919" type="curve"/>
      <point x="39.7713" y="32.4702"/>
      <point x="28.0075" y="-5.25977"/>
      <point x="28.0075" y="-36.8636" type="curve" smooth="yes"/>
      <point x="28.0075" y="-114.326"/>
      <point x="84.3357" y="-165.757"/>
      <point x="159.879" y="-165.757" type="curve" smooth="yes"/>
      <point x="233.264" y="-165.757"/>
      <point x="278.365" y="-136.91"/>
      <point x="304.926" y="-69.2342" type="curve"/>
    </contour>
    <contour>
      <point x="181.634" y="529.214" type="curve" smooth="yes" name="hr01"/>
      <point x="157.095" y="529.214"/>
      <point x="136.786" y="509.684"/>
      <point x="136.786" y="485.271" type="curve" smooth="yes"/>
      <point x="136.786" y="461.794"/>
      <point x="157.179" y="442.364"/>
      <point x="182.67" y="442.364" type="curve" smooth="yes"/>
      <point x="207.21" y="442.364"/>
      <point x="227.519" y="461.794"/>
      <point x="227.519" y="485.271" type="curve" smooth="yes"/>
      <point x="227.519" y="509.684"/>
      <point x="207.126" y="529.214"/>
    </contour>
  </outline>
</glyph>
<glyph name="Agrave" format="2">
  <advance width="590"/>
  <unicode hex="00C0"/>
  <outline>
    <contour>
      <point x="327.738" y="667" type="line"/>
      <point x="263.735" y="667" type="line"/>
      <point x="-2.26514" y="0" type="line"/>
      <point x="64.397" y="0" type="line"/>
      <point x="147.276" y="223.772" type="line"/>
      <point x="440.99" y="223.772" type="line"/>
      <point x="526.976" y="0" type="line"/>
      <point x="593.738" y="0" type="line"/>
    </contour>
    <contour>
      <point x="423.296" y="267.111" type="line"/>
      <point x="165.245" y="267.111" type="line"/>
      <point x="292.503" y="606.466" type="line"/>
    </contour>
    <contour>
      <point x="196.022" y="886.816" type="line"/>
      <point x="143.336" y="876.146" type="line"/>
      <point x="308.537" y="738.176" type="line"/>
      <point x="320.012" y="740.201" type="line"/>
    </contour>
  </outline>
</glyph>
<glyph name="Aacute" format="2">
  <advance width="590"/>
  <unicode hex="00C1"/>
  <outline>
    <contour>
      <point x="327.738" y="667" type="line"/>
      <point x="263.735" y="667" type="line"/>
      <point x="-2.26514" y="0" type="line"/>
      <point x="64.397" y="0" type="line"/>
      <point x="147.276" y="223.772" type="line"/>
      <point x="440.99" y="223.772" type="line"/>
      <point x="526.976" y="0" type="line"/>
      <point x="593.738" y="0" type="line"/>
    </contour>
    <contour>
      <point x="423.296" y="267.111" type="line"/>
      <point x="165.245" y="267.111" type="line"/>
      <point x="292.503" y="606.466" type="line"/>
    </contour>
    <contour>
      <point x="391.307" y="886.816" type="line"/>
      <point x="267.391" y="740.288" type="line"/>
      <point x="279.794" y="738.162" type="line"/>
      <point x="444.082" y="876.128" type="line"/>
    </contour>
  </outline>
</glyph>
<glyph name="Acircumflex" format="2">
  <advance width="586"/>
  <unicode hex="00C2"/>
  <outline>
    <contour>
      <point x="309" y="667" type="line"/>
      <point x="269" y="667" type="line"/>
      <point x="-2" y="0" type="line"/>
      <point x="62" y="0" type="line"/>
      <point x="152" y="243" type="line"/>
      <point x="432" y="243" type="line"/>
      <point x="528" y="0" type="line"/>
      <point x="588" y="0" type="line"/>
    </contour>
    <contour>
      <point x="410" y="288" type="line"/>
      <point x="171" y="288" type="line"/>
      <point x="288" y="592" type="line"/>
    </contour>
    <contour>
      <point x="318" y="874" type="line"/>
      <point x="269" y="874" type="line"/>
      <point x="143" y="716" type="line"/>
      <point x="170" y="712" type="line"/>
      <point x="294" y="832" type="line"/>
      <point x="418" y="712" type="line"/>
      <point x="443" y="716" type="line"/>
    </contour>
  </outline>
</glyph>
<glyph name="Atilde" format="2">
  <advance width="586"/>
  <unicode hex="00C3"/>
  <outline>
    <contour>
      <point x="309" y="667" type="line"/>
      <point x="269" y="667" type="line"/>
      <point x="-2" y="0" type="line"/>
      <point x="62" y="0" type="line"/>
      <point x="152" y="243" type="line"/>
      <point x="432" y="243" type="line"/>
      <point x="528" y="0" type="line"/>
      <point x="588" y="0" type="line"/>
    </contour>
    <contour>
      <point x="410" y="288" type="line"/>
      <point x="171" y="288" type="line"/>
      <point x="288" y="592" type="line"/>
    </contour>
    <contour>
      <point x="422" y="827" type="line"/>
      <point x="402" y="796"/>
      <point x="394" y="789"/>
      <point x="375" y="789" type="curve" smooth="yes"/>
      <point x="364" y="789"/>
      <point x="346" y="795"/>
      <point x="314" y="808" type="curve" smooth="yes"/>
      <point x="268" y="827"/>
      <point x="262" y="829" name="hr01"/>
      <point x="244" y="829" type="curve" smooth="yes"/>
      <point x="216" y="829"/>
      <point x="195" y="815"/>
      <point x="142" y="762" type="curve"/>
      <point x="159" y="744" type="line"/>
      <point x="196" y="777"/>
      <point x="213" y="787"/>
      <point x="235" y="787" type="curve" smooth="yes"/>
      <point x="254" y="787"/>
      <point x="266" y="783"/>
      <point x="323" y="758" type="curve" smooth="yes"/>
      <point x="347" y="748"/>
      <point x="357" y="745" name="hr02"/>
      <point x="366" y="745" type="curve" smooth="yes"/>
      <point x="391" y="745"/>
      <point x="416" y="768"/>
      <point x="443" y="815" type="curve"/>
    </contour>
  </outline>
</glyph>
<glyph name="Adieresis" format="2">
  <advance width="590"/>
  <unicode hex="00C4"/>
  <outline>
    <contour>
      <point x="327.738" y="667" type="line"/>
      <point x="263.735" y="667" type="line"/>
      <point x="-2.26514" y="0" type="line"/>
      <point x="64.397" y="0" type="line"/>
      <point x="147.276" y="223.772" type="line"/>
      <point x="440.99" y="223.772" type="line"/>
      <point x="526.976" y="0" type="line"/>
      <point x="593.738" y="0" type="line"/>
    </contour>
    <contour>
      <point x="423.296" y="267.111" type="line"/>
      <point x="165.245" y="267.111" type="line"/>
      <point x="292.503" y="606.466" type="line"/>
    </contour>
    <contour>
      <point x="192.138" y="854.513" type="curve" smooth="yes"/>
      <point x="166.545" y="854.513"/>
      <point x="145.217" y="834.068"/>
      <point x="145.217" y="809.534" type="curve" smooth="yes"/>
      <point x="145.217" y="784.061"/>
      <point x="166.627" y="763.519"/>
      <point x="193.174" y="763.519" type="curve" smooth="yes"/>
      <point x="218.767" y="763.519"/>
      <point x="240.095" y="784.061"/>
      <point x="240.095" y="809.534" type="curve" smooth="yes"/>
      <point x="240.095" y="834.068"/>
      <point x="218.686" y="854.513"/>
    </contour>
    <contour>
      <point x="399.335" y="854.513" type="curve" smooth="yes"/>
      <point x="373.741" y="854.513"/>
      <point x="352.414" y="834.068"/>
      <point x="352.414" y="809.534" type="curve" smooth="yes"/>
      <point x="352.414" y="784.061"/>
      <point x="373.823" y="763.519"/>
      <point x="400.371" y="763.519" type="curve" smooth="yes"/>
      <point x="425.964" y="763.519"/>
      <point x="447.291" y="784.061"/>
      <point x="447.291" y="809.534" type="curve" smooth="yes"/>
      <point x="447.291" y="834.068"/>
      <point x="425.882" y="854.513"/>
    </contour>
  </outline>
</glyph>
<glyph name="Aring" format="2">
  <advance width="590"/>
  <unicode hex="00C5"/>
  <outline>
    <contour>
      <point x="327.738" y="667" type="line"/>
      <point x="263.735" y="667" type="line"/>
      <point x="-2.26514" y="0" type="line"/>
      <point x="64.397" y="0" type="line"/>
      <point x="147.276" y="223.772" type="line"/>
      <point x="440.99" y="223.772" type="line"/>
      <point x="526.976" y="0" type="line"/>
      <point x="593.738" y="0" type="line"/>
    </contour>
    <contour>
      <point x="423.296" y="267.111" type="line"/>
      <point x="165.245" y="267.111" type="line"/>
      <point x="292.503" y="606.466" type="line"/>
    </contour>
    <contour>
      <point x="295.736" y="908.384" type="curve" smooth="yes"/>
      <point x="245.225" y="908.384"/>
      <point x="202.196" y="867.219"/>
      <point x="202.196" y="817.822" type="curve" smooth="yes"/>
      <point x="202.196" y="766.46"/>
      <point x="244.289" y="725.187"/>
      <point x="295.736" y="725.187" type="curve" smooth="yes"/>
      <point x="347.183" y="725.187"/>
      <point x="389.276" y="766.407"/>
      <point x="389.276" y="816.786" type="curve" smooth="yes"/>
      <point x="389.276" y="867.165"/>
      <point x="347.183" y="908.384"/>
    </contour>
    <contour>
      <point x="296.772" y="887.837" type="curve" smooth="yes"/>
      <point x="334.456" y="887.837"/>
      <point x="364.846" y="856.674"/>
      <point x="364.846" y="816.786" type="curve" smooth="yes"/>
      <point x="364.846" y="778.144"/>
      <point x="334.456" y="745.735"/>
      <point x="296.772" y="745.735" type="curve" smooth="yes"/>
      <point x="258.072" y="745.735"/>
      <point x="226.627" y="778.049"/>
      <point x="226.627" y="817.822" type="curve" smooth="yes"/>
      <point x="226.627" y="855.33"/>
      <point x="259.281" y="887.837"/>
    </contour>
  </outline>
</glyph>
<glyph name="AE" format="2">
  <advance width="757"/>
  <unicode hex="00C6"/>
  <outline>
    <contour>
      <point x="432.86" y="625.733" type="line"/>
      <point x="687.711" y="625.733" type="line"/>
      <point x="687.711" y="667" type="line"/>
      <point x="338.463" y="667" type="line"/>
      <point x="-32.5365" y="0" type="line"/>
      <point x="30.3476" y="0" type="line"/>
      <point x="140.162" y="202.016" type="line"/>
      <point x="373.205" y="202.016" type="line"/>
      <point x="373.205" y="0" type="line"/>
      <point x="723.971" y="0" type="line"/>
      <point x="723.971" y="41.2669" type="line"/>
      <point x="432.86" y="41.2669" type="line"/>
      <point x="432.86" y="320.118" type="line"/>
      <point x="687.711" y="320.118" type="line"/>
      <point x="687.711" y="361.385" type="line"/>
      <point x="432.86" y="361.385" type="line"/>
    </contour>
    <contour>
      <point x="356.554" y="600.607" type="line"/>
      <point x="373.205" y="595.597" type="line"/>
      <point x="373.205" y="243.283" type="line"/>
      <point x="164.501" y="243.283" type="line"/>
    </contour>
  </outline>
</glyph>
<glyph name="Ccedilla" format="2">
  <advance width="634"/>
  <unicode hex="00C7"/>
  <outline>
    <contour>
      <point x="623.439" y="582.603" type="line"/>
      <point x="561.835" y="654.526"/>
      <point x="482.814" y="680.468"/>
      <point x="388.831" y="680.468" type="curve" smooth="yes"/>
      <point x="184.603" y="680.468"/>
      <point x="50.7991" y="540.189"/>
      <point x="50.7991" y="326.766" type="curve" smooth="yes"/>
      <point x="50.7991" y="111.056"/>
      <point x="174.514" y="-13.4678"/>
      <point x="387.795" y="-13.4678" type="curve" smooth="yes"/>
      <point x="482.254" y="-13.4678"/>
      <point x="561.525" y="12.0763"/>
      <point x="623.511" y="84.4786" type="curve"/>
      <point x="580.488" y="126.018" type="line"/>
      <point x="537.788" y="54.7054"/>
      <point x="473.012" y="27.7991"/>
      <point x="389.867" y="27.7991" type="curve" smooth="yes"/>
      <point x="312.929" y="27.7991"/>
      <point x="234.385" y="59.3781"/>
      <point x="189.81" y="108.289" type="curve" smooth="yes"/>
      <point x="146.687" y="154.646"/>
      <point x="120.813" y="237.501"/>
      <point x="120.813" y="327.802" type="curve" smooth="yes"/>
      <point x="120.813" y="517.443"/>
      <point x="225.206" y="639.201"/>
      <point x="389.867" y="639.201" type="curve" smooth="yes"/>
      <point x="477.795" y="639.201"/>
      <point x="538.135" y="606.983"/>
      <point x="580.397" y="541.788" type="curve"/>
    </contour>
    <contour>
      <point x="326.326" y="-71.7551" type="line"/>
      <point x="349.421" y="-87.734"/>
      <point x="358.486" y="-103.857"/>
      <point x="358.486" y="-126.994" type="curve" smooth="yes"/>
      <point x="358.486" y="-152.72"/>
      <point x="347.985" y="-170.605"/>
      <point x="321.624" y="-187.669" type="curve"/>
      <point x="333.189" y="-192.67" type="line"/>
      <point x="379.71" y="-162.964"/>
      <point x="400.528" y="-135.136"/>
      <point x="400.528" y="-102.13" type="curve" smooth="yes"/>
      <point x="400.528" y="-77.5963"/>
      <point x="390.984" y="-59.6635"/>
      <point x="365.251" y="-39.781" type="curve"/>
    </contour>
  </outline>
</glyph>
<glyph name="Egrave" format="2">
  <advance width="483"/>
  <unicode hex="00C8"/>
  <outline>
    <contour>
      <point x="156.108" y="361.385" type="line"/>
      <point x="156.108" y="625.733" type="line"/>
      <point x="410.96" y="625.733" type="line"/>
      <point x="410.96" y="667" type="line"/>
      <point x="93.3463" y="667" type="line"/>
      <point x="93.3463" y="0" type="line"/>
      <point x="448.255" y="0" type="line"/>
      <point x="448.255" y="41.2669" type="line"/>
      <point x="156.108" y="41.2669" type="line"/>
      <point x="156.108" y="320.118" type="line"/>
      <point x="410.96" y="320.118" type="line"/>
      <point x="410.96" y="361.385" type="line"/>
    </contour>
    <contour>
      <point x="175.23" y="886.816" type="line"/>
      <point x="122.544" y="876.146" type="line"/>
      <point x="287.745" y="738.176" type="line"/>
      <point x="299.22" y="740.201" type="line"/>
    </contour>
  </outline>
</glyph>
<glyph name="Eacute" format="2">
  <advance width="464"/>
  <unicode hex="00C9"/>
  <outline>
    <contour>
      <point x="152" y="364" type="line"/>
      <point x="152" y="623" type="line"/>
      <point x="397" y="623" type="line"/>
      <point x="397" y="667" type="line"/>
      <point x="99" y="667" type="line"/>
      <point x="99" y="0" type="line"/>
      <point x="432" y="0" type="line"/>
      <point x="432" y="44" type="line"/>
      <point x="152" y="44" type="line"/>
      <point x="152" y="320" type="line"/>
      <point x="397" y="320" type="line"/>
      <point x="397" y="364" type="line"/>
    </contour>
    <contour>
      <point x="345" y="872" type="line"/>
      <point x="211" y="715" type="line"/>
      <point x="239" y="711" type="line"/>
      <point x="411" y="864" type="line"/>
    </contour>
  </outline>
</glyph>
<glyph name="Ecircumflex" format="2">
  <advance width="483"/>
  <unicode hex="00CA"/>
  <outline>
    <contour>
      <point x="156.108" y="361.385" type="line"/>
      <point x="156.108" y="625.733" type="line"/>
      <point x="410.96" y="625.733" type="line"/>
      <point x="410.96" y="667" type="line"/>
      <point x="93.3463" y="667" type="line"/>
      <point x="93.3463" y="0" type="line"/>
      <point x="448.255" y="0" type="line"/>
      <point x="448.255" y="41.2669" type="line"/>
      <point x="156.108" y="41.2669" type="line"/>
      <point x="156.108" y="320.118" type="line"/>
      <point x="410.96" y="320.118" type="line"/>
      <point x="410.96" y="361.385" type="line"/>
    </contour>
    <contour>
      <point x="274.949" y="885.592" type="line"/>
      <point x="225.214" y="885.592" type="line"/>
      <point x="105.249" y="741.09" type="line"/>
      <point x="114.851" y="739.289" type="line"/>
      <point x="250.035" y="861.8" type="line"/>
      <point x="387.293" y="739.323" type="line"/>
      <point x="395.085" y="740.882" type="line"/>
    </contour>
  </outline>
</glyph>
<glyph name="Edieresis" format="2">
  <advance width="483"/>
  <unicode hex="00CB"/>
  <outline>
    <contour>
      <point x="156.108" y="361.385" type="line"/>
      <point x="156.108" y="625.733" type="line"/>
      <point x="410.96" y="625.733" type="line"/>
      <point x="410.96" y="667" type="line"/>
      <point x="93.3463" y="667" type="line"/>
      <point x="93.3463" y="0" type="line"/>
      <point x="448.255" y="0" type="line"/>
      <point x="448.255" y="41.2669" type="line"/>
      <point x="156.108" y="41.2669" type="line"/>
      <point x="156.108" y="320.118" type="line"/>
      <point x="410.96" y="320.118" type="line"/>
      <point x="410.96" y="361.385" type="line"/>
    </contour>
    <contour>
      <point x="149.591" y="854.513" type="curve" smooth="yes"/>
      <point x="123.998" y="854.513"/>
      <point x="102.67" y="834.068" name="hr01"/>
      <point x="102.67" y="809.534" type="curve" smooth="yes"/>
      <point x="102.67" y="784.061"/>
      <point x="124.079" y="763.519"/>
      <point x="150.627" y="763.519" type="curve" smooth="yes"/>
      <point x="176.22" y="763.519"/>
      <point x="197.548" y="784.061"/>
      <point x="197.548" y="809.534" type="curve" smooth="yes"/>
      <point x="197.548" y="834.068"/>
      <point x="176.138" y="854.513"/>
    </contour>
    <contour>
      <point x="356.787" y="854.513" type="curve" smooth="yes"/>
      <point x="331.194" y="854.513"/>
      <point x="309.867" y="834.068"/>
      <point x="309.867" y="809.534" type="curve" smooth="yes"/>
      <point x="309.867" y="784.061"/>
      <point x="331.276" y="763.519"/>
      <point x="357.823" y="763.519" type="curve" smooth="yes"/>
      <point x="383.416" y="763.519"/>
      <point x="404.744" y="784.061"/>
      <point x="404.744" y="809.534" type="curve" smooth="yes"/>
      <point x="404.744" y="834.068"/>
      <point x="383.335" y="854.513"/>
    </contour>
  </outline>
</glyph>
<glyph name="Igrave" format="2">
  <advance width="234"/>
  <unicode hex="00CC"/>
  <outline>
    <contour>
      <point x="148.108" y="667" type="line"/>
      <point x="85.3463" y="667" type="line"/>
      <point x="85.3463" y="0" type="line"/>
      <point x="148.108" y="0" type="line"/>
    </contour>
    <contour>
      <point x="38.6882" y="886.176" type="line"/>
      <point x="-14.115" y="869.501" type="line"/>
      <point x="135.937" y="734.088" type="line"/>
      <point x="147.955" y="736.273" type="line"/>
    </contour>
  </outline>
</glyph>
<glyph name="Iacute" format="2">
  <advance width="233"/>
  <unicode hex="00CD"/>
  <outline>
    <contour>
      <point x="148.108" y="667" type="line"/>
      <point x="85.3463" y="667" type="line"/>
      <point x="85.3463" y="0" type="line"/>
      <point x="148.108" y="0" type="line"/>
    </contour>
    <contour>
      <point x="192.085" y="886.714" type="line"/>
      <point x="86.5594" y="740.601" type="line"/>
      <point x="100.458" y="738.218" type="line"/>
      <point x="246.148" y="875.764" type="line"/>
    </contour>
  </outline>
</glyph>
<glyph name="Icircumflex" format="2">
  <advance width="251"/>
  <unicode hex="00CE"/>
  <outline>
    <contour>
      <point x="152" y="667" type="line"/>
      <point x="99" y="667" type="line"/>
      <point x="99" y="0" type="line"/>
      <point x="152" y="0" type="line"/>
    </contour>
    <contour>
      <point x="150" y="874" type="line"/>
      <point x="102" y="874" type="line"/>
      <point x="-25" y="716" type="line"/>
      <point x="3" y="712" type="line"/>
      <point x="126" y="832" type="line"/>
      <point x="250" y="712" type="line"/>
      <point x="276" y="716" type="line"/>
    </contour>
  </outline>
</glyph>
<glyph name="Idieresis" format="2">
  <advance width="257"/>
  <unicode hex="00CF"/>
  <outline>
    <contour>
      <point x="159.108" y="667" type="line"/>
      <point x="96.3463" y="667" type="line"/>
      <point x="96.3463" y="0" type="line"/>
      <point x="159.108" y="0" type="line"/>
    </contour>
    <contour>
      <point x="47.9568" y="854.513" type="curve" smooth="yes"/>
      <point x="22.3636" y="854.513"/>
      <point x="1.03598" y="834.068" name="hr01"/>
      <point x="1.03598" y="809.534" type="curve" smooth="yes"/>
      <point x="1.03598" y="784.061"/>
      <point x="22.4453" y="763.519"/>
      <point x="48.9928" y="763.519" type="curve" smooth="yes"/>
      <point x="74.5859" y="763.519"/>
      <point x="95.9135" y="784.061"/>
      <point x="95.9135" y="809.534" type="curve" smooth="yes"/>
      <point x="95.9135" y="834.068"/>
      <point x="74.5043" y="854.513"/>
    </contour>
    <contour>
      <point x="206.462" y="854.513" type="curve" smooth="yes"/>
      <point x="180.869" y="854.513"/>
      <point x="159.541" y="834.068"/>
      <point x="159.541" y="809.534" type="curve" smooth="yes"/>
      <point x="159.541" y="784.061"/>
      <point x="180.951" y="763.519"/>
      <point x="207.498" y="763.519" type="curve" smooth="yes"/>
      <point x="233.091" y="763.519"/>
      <point x="254.419" y="784.061"/>
      <point x="254.419" y="809.534" type="curve" smooth="yes"/>
      <point x="254.419" y="834.068"/>
      <point x="233.01" y="854.513"/>
    </contour>
  </outline>
</glyph>
<glyph name="Eth" format="2">
  <advance width="685"/>
  <unicode hex="00D0"/>
  <outline>
    <contour>
      <point x="96.3463" y="359.313" type="line"/>
      <point x="20.7196" y="359.313" type="line"/>
      <point x="20.7196" y="324.262" type="line"/>
      <point x="96.3463" y="324.262" type="line"/>
      <point x="96.3463" y="0" type="line"/>
      <point x="301.772" y="0" type="line" smooth="yes"/>
      <point x="378.973" y="0"/>
      <point x="448.535" y="15.9242"/>
      <point x="493.322" y="43.7915" type="curve" smooth="yes"/>
      <point x="581.489" y="97.8943"/>
      <point x="633.588" y="209.111"/>
      <point x="633.588" y="344.378" type="curve" smooth="yes"/>
      <point x="633.588" y="461.575"/>
      <point x="595.577" y="559.698"/>
      <point x="528.682" y="613.595" type="curve" smooth="yes"/>
      <point x="479.233" y="652.165"/>
      <point x="415.694" y="667"/>
      <point x="301.772" y="667" type="curve" smooth="yes"/>
      <point x="96.3463" y="667" type="line"/>
    </contour>
    <contour>
      <point x="159.108" y="359.313" type="line"/>
      <point x="159.108" y="625.733" type="line"/>
      <point x="305.916" y="625.733" type="line" smooth="yes"/>
      <point x="398.403" y="625.733"/>
      <point x="430.701" y="617.976"/>
      <point x="470.456" y="587.074" type="curve" smooth="yes"/>
      <point x="531.091" y="541.598"/>
      <point x="563.574" y="454.275"/>
      <point x="563.574" y="341.27" type="curve" smooth="yes"/>
      <point x="563.574" y="166.448"/>
      <point x="491.427" y="41.2669"/>
      <point x="305.916" y="41.2669" type="curve" smooth="yes"/>
      <point x="159.108" y="41.2669" type="line"/>
      <point x="159.108" y="324.262" type="line"/>
      <point x="351.801" y="324.262" type="line"/>
      <point x="351.801" y="359.313" type="line"/>
    </contour>
  </outline>
</glyph>
<glyph name="Ntilde" format="2">
  <advance width="731"/>
  <unicode hex="00D1"/>
  <outline>
    <contour>
      <point x="636.804" y="667" type="line"/>
      <point x="577.15" y="667" type="line"/>
      <point x="577.15" y="85.1643" type="line"/>
      <point x="158.486" y="667" type="line"/>
      <point x="93.3463" y="667" type="line"/>
      <point x="93.3463" y="0" type="line"/>
      <point x="153" y="0" type="line"/>
      <point x="153" y="581.836" type="line"/>
      <point x="571.665" y="0" type="line"/>
      <point x="636.804" y="0" type="line"/>
    </contour>
    <contour>
      <point x="514.064" y="837.968" type="line" name="hr01"/>
      <point x="494.038" y="808.074"/>
      <point x="479.592" y="798.57"/>
      <point x="457.278" y="798.57" type="curve" smooth="yes"/>
      <point x="442.693" y="798.57"/>
      <point x="417.471" y="806.169"/>
      <point x="382.734" y="821.366" type="curve" smooth="yes"/>
      <point x="339.233" y="841.14"/>
      <point x="331.441" y="843.117"/>
      <point x="313.276" y="843.117" type="curve" smooth="yes"/>
      <point x="287.994" y="843.117"/>
      <point x="266.718" y="828.13"/>
      <point x="218.946" y="777.005" type="curve"/>
      <point x="222.145" y="773.984" type="line"/>
      <point x="258.152" y="807.182"/>
      <point x="276.98" y="817.39"/>
      <point x="300.844" y="817.39" type="curve" smooth="yes"/>
      <point x="326.814" y="817.39"/>
      <point x="370.169" y="798.214"/>
      <point x="394.437" y="786.079" type="curve"/>
      <point x="393.999" y="786.325" type="line"/>
      <point x="427.052" y="771.743"/>
      <point x="430.814" y="770.771"/>
      <point x="440.702" y="770.771" type="curve" smooth="yes"/>
      <point x="465.996" y="770.771"/>
      <point x="497.507" y="797.687"/>
      <point x="519.39" y="834.82" type="curve"/>
    </contour>
  </outline>
</glyph>
<glyph name="Ograve" format="2">
  <advance width="725"/>
  <unicode hex="00D2"/>
  <outline>
    <contour>
      <point x="363" y="680" type="curve" smooth="yes"/>
      <point x="170" y="680"/>
      <point x="53" y="551"/>
      <point x="53" y="339" type="curve" smooth="yes"/>
      <point x="53" y="115"/>
      <point x="166" y="-13"/>
      <point x="363" y="-13" type="curve" smooth="yes"/>
      <point x="557" y="-13"/>
      <point x="672" y="116"/>
      <point x="672" y="334" type="curve" smooth="yes"/>
      <point x="672" y="551"/>
      <point x="557" y="680"/>
    </contour>
    <contour>
      <point x="363" y="637" type="curve" smooth="yes"/>
      <point x="427" y="637"/>
      <point x="492" y="613"/>
      <point x="532" y="575" type="curve" smooth="yes"/>
      <point x="583" y="525"/>
      <point x="613" y="437"/>
      <point x="613" y="334" type="curve" smooth="yes"/>
      <point x="613" y="230"/>
      <point x="584" y="142"/>
      <point x="532" y="92" type="curve" smooth="yes"/>
      <point x="492" y="54"/>
      <point x="427" y="30"/>
      <point x="363" y="30" type="curve" smooth="yes"/>
      <point x="203" y="30"/>
      <point x="112" y="142"/>
      <point x="112" y="338" type="curve" smooth="yes"/>
      <point x="112" y="437"/>
      <point x="143" y="527"/>
      <point x="193" y="575" type="curve" smooth="yes"/>
      <point x="234" y="614"/>
      <point x="297" y="637"/>
    </contour>
    <contour>
      <point x="299" y="872" type="line"/>
      <point x="233" y="864" type="line"/>
      <point x="405" y="711" type="line"/>
      <point x="432" y="715" type="line"/>
    </contour>
  </outline>
</glyph>
<glyph name="Oacute" format="2">
  <advance width="725"/>
  <unicode hex="00D3"/>
  <outline>
    <contour>
      <point x="363" y="680" type="curve" smooth="yes"/>
      <point x="170" y="680"/>
      <point x="53" y="551"/>
      <point x="53" y="339" type="curve" smooth="yes"/>
      <point x="53" y="115"/>
      <point x="166" y="-13"/>
      <point x="363" y="-13" type="curve" smooth="yes"/>
      <point x="557" y="-13"/>
      <point x="672" y="116"/>
      <point x="672" y="334" type="curve" smooth="yes"/>
      <point x="672" y="551"/>
      <point x="557" y="680"/>
    </contour>
    <contour>
      <point x="363" y="637" type="curve" smooth="yes"/>
      <point x="427" y="637"/>
      <point x="492" y="613"/>
      <point x="532" y="575" type="curve" smooth="yes"/>
      <point x="583" y="525"/>
      <point x="613" y="437"/>
      <point x="613" y="334" type="curve" smooth="yes"/>
      <point x="613" y="230"/>
      <point x="584" y="142"/>
      <point x="532" y="92" type="curve" smooth="yes"/>
      <point x="492" y="54"/>
      <point x="427" y="30"/>
      <point x="363" y="30" type="curve" smooth="yes"/>
      <point x="203" y="30"/>
      <point x="112" y="142"/>
      <point x="112" y="338" type="curve" smooth="yes"/>
      <point x="112" y="437"/>
      <point x="143" y="527"/>
      <point x="193" y="575" type="curve" smooth="yes"/>
      <point x="234" y="614"/>
      <point x="297" y="637"/>
    </contour>
    <contour>
      <point x="468" y="872" type="line"/>
      <point x="334" y="715" type="line"/>
      <point x="362" y="711" type="line"/>
      <point x="533" y="864" type="line"/>
    </contour>
  </outline>
</glyph>
<glyph name="Ocircumflex" format="2">
  <advance width="725"/>
  <unicode hex="00D4"/>
  <outline>
    <contour>
      <point x="363" y="680" type="curve" smooth="yes"/>
      <point x="170" y="680"/>
      <point x="53" y="551"/>
      <point x="53" y="339" type="curve" smooth="yes"/>
      <point x="53" y="115"/>
      <point x="166" y="-13"/>
      <point x="363" y="-13" type="curve" smooth="yes"/>
      <point x="557" y="-13"/>
      <point x="672" y="116"/>
      <point x="672" y="334" type="curve" smooth="yes"/>
      <point x="672" y="551"/>
      <point x="557" y="680"/>
    </contour>
    <contour>
      <point x="363" y="637" type="curve" smooth="yes"/>
      <point x="427" y="637"/>
      <point x="492" y="613"/>
      <point x="532" y="575" type="curve" smooth="yes"/>
      <point x="583" y="525"/>
      <point x="613" y="437"/>
      <point x="613" y="334" type="curve" smooth="yes"/>
      <point x="613" y="230"/>
      <point x="584" y="142"/>
      <point x="532" y="92" type="curve" smooth="yes"/>
      <point x="492" y="54"/>
      <point x="427" y="30"/>
      <point x="363" y="30" type="curve" smooth="yes"/>
      <point x="203" y="30"/>
      <point x="112" y="142"/>
      <point x="112" y="338" type="curve" smooth="yes"/>
      <point x="112" y="437"/>
      <point x="143" y="527"/>
      <point x="193" y="575" type="curve" smooth="yes"/>
      <point x="234" y="614"/>
      <point x="297" y="637"/>
    </contour>
    <contour>
      <point x="391" y="874" type="line"/>
      <point x="343" y="874" type="line"/>
      <point x="216" y="716" type="line" name="hr01"/>
      <point x="244" y="712" type="line"/>
      <point x="367" y="832" type="line"/>
      <point x="491" y="712" type="line"/>
      <point x="517" y="716" type="line"/>
    </contour>
  </outline>
</glyph>
<glyph name="Otilde" format="2">
  <advance width="738"/>
  <unicode hex="00D5"/>
  <outline>
    <contour>
      <point x="369.147" y="680.468" type="curve" smooth="yes"/>
      <point x="161.076" y="680.468"/>
      <point x="50.7991" y="540.951"/>
      <point x="50.7991" y="339.198" type="curve" smooth="yes"/>
      <point x="50.7991" y="131.28"/>
      <point x="151.957" y="-13.4678"/>
      <point x="370.183" y="-13.4678" type="curve" smooth="yes"/>
      <point x="582.434" y="-13.4678"/>
      <point x="687.495" y="130.963"/>
      <point x="687.495" y="334.018" type="curve" smooth="yes"/>
      <point x="687.495" y="538.323"/>
      <point x="581.76" y="680.468"/>
    </contour>
    <contour>
      <point x="369.147" y="639.201" type="curve" smooth="yes"/>
      <point x="523.546" y="639.201"/>
      <point x="617.481" y="523.814"/>
      <point x="617.481" y="334.018" type="curve" smooth="yes"/>
      <point x="617.481" y="143.17"/>
      <point x="523.546" y="27.7991"/>
      <point x="369.147" y="27.7991" type="curve" smooth="yes"/>
      <point x="212.589" y="27.7991"/>
      <point x="120.813" y="142.03"/>
      <point x="120.813" y="338.162" type="curve" smooth="yes"/>
      <point x="120.813" y="523.749"/>
      <point x="215.828" y="639.201"/>
    </contour>
    <contour>
      <point x="521.243" y="837.968" type="line"/>
      <point x="501.218" y="808.074"/>
      <point x="486.772" y="798.57" name="hr01"/>
      <point x="464.458" y="798.57" type="curve" smooth="yes"/>
      <point x="449.873" y="798.57"/>
      <point x="424.651" y="806.169"/>
      <point x="389.914" y="821.366" type="curve" smooth="yes"/>
      <point x="346.412" y="841.14"/>
      <point x="338.621" y="843.117"/>
      <point x="320.456" y="843.117" type="curve" smooth="yes"/>
      <point x="295.174" y="843.117"/>
      <point x="273.898" y="828.13"/>
      <point x="226.126" y="777.005" type="curve"/>
      <point x="229.325" y="773.984" type="line"/>
      <point x="265.331" y="807.182"/>
      <point x="284.16" y="817.39"/>
      <point x="308.024" y="817.39" type="curve" smooth="yes"/>
      <point x="333.994" y="817.39"/>
      <point x="377.349" y="798.214"/>
      <point x="401.617" y="786.079" type="curve"/>
      <point x="401.179" y="786.325" type="line"/>
      <point x="434.232" y="771.743"/>
      <point x="437.994" y="770.771"/>
      <point x="447.882" y="770.771" type="curve" smooth="yes"/>
      <point x="473.176" y="770.771"/>
      <point x="504.687" y="797.687"/>
      <point x="526.57" y="834.82" type="curve"/>
    </contour>
  </outline>
</glyph>
<glyph name="Odieresis" format="2">
  <advance width="738"/>
  <unicode hex="00D6"/>
  <outline>
    <contour>
      <point x="369.147" y="680.468" type="curve" smooth="yes"/>
      <point x="161.076" y="680.468"/>
      <point x="50.7991" y="540.951"/>
      <point x="50.7991" y="339.198" type="curve" smooth="yes"/>
      <point x="50.7991" y="131.28"/>
      <point x="151.957" y="-13.4678"/>
      <point x="370.183" y="-13.4678" type="curve" smooth="yes"/>
      <point x="582.434" y="-13.4678"/>
      <point x="687.495" y="130.963"/>
      <point x="687.495" y="334.018" type="curve" smooth="yes"/>
      <point x="687.495" y="538.323"/>
      <point x="581.76" y="680.468"/>
    </contour>
    <contour>
      <point x="369.147" y="639.201" type="curve" smooth="yes"/>
      <point x="523.546" y="639.201"/>
      <point x="617.481" y="523.814"/>
      <point x="617.481" y="334.018" type="curve" smooth="yes"/>
      <point x="617.481" y="143.17"/>
      <point x="523.546" y="27.7991"/>
      <point x="369.147" y="27.7991" type="curve" smooth="yes"/>
      <point x="212.589" y="27.7991"/>
      <point x="120.813" y="142.03"/>
      <point x="120.813" y="338.162" type="curve" smooth="yes"/>
      <point x="120.813" y="523.749"/>
      <point x="215.828" y="639.201"/>
    </contour>
    <contour>
      <point x="265.549" y="854.513" type="curve" smooth="yes"/>
      <point x="239.956" y="854.513"/>
      <point x="218.628" y="834.068"/>
      <point x="218.628" y="809.534" type="curve" smooth="yes"/>
      <point x="218.628" y="784.061"/>
      <point x="240.037" y="763.519"/>
      <point x="266.585" y="763.519" type="curve" smooth="yes"/>
      <point x="292.178" y="763.519"/>
      <point x="313.506" y="784.061"/>
      <point x="313.506" y="809.534" type="curve" smooth="yes"/>
      <point x="313.506" y="834.068"/>
      <point x="292.096" y="854.513"/>
    </contour>
    <contour>
      <point x="472.745" y="854.513" type="curve" smooth="yes"/>
      <point x="447.152" y="854.513"/>
      <point x="425.825" y="834.068"/>
      <point x="425.825" y="809.534" type="curve" smooth="yes"/>
      <point x="425.825" y="784.061"/>
      <point x="447.234" y="763.519"/>
      <point x="473.781" y="763.519" type="curve" smooth="yes"/>
      <point x="499.375" y="763.519"/>
      <point x="520.702" y="784.061"/>
      <point x="520.702" y="809.534" type="curve" smooth="yes"/>
      <point x="520.702" y="834.068"/>
      <point x="499.293" y="854.513"/>
    </contour>
  </outline>
</glyph>
<glyph name="multiply" format="2">
  <advance width="557"/>
  <unicode hex="00D7"/>
  <outline>
    <contour>
      <point x="60" y="587" type="line"/>
      <point x="34" y="561" type="line"/>
      <point x="250" y="339" type="line"/>
      <point x="43" y="123" type="line"/>
      <point x="67" y="96" type="line"/>
      <point x="277" y="312" type="line"/>
      <point x="491" y="97" type="line"/>
      <point x="521" y="124" type="line"/>
      <point x="305" y="339" type="line"/>
      <point x="522" y="561" type="line"/>
      <point x="497" y="589" type="line"/>
      <point x="277" y="366" type="line"/>
    </contour>
  </outline>
</glyph>
<glyph name="Oslash" format="2">
  <advance width="738"/>
  <unicode hex="00D8"/>
  <outline>
    <contour>
      <point x="620.359" y="698.732" type="line"/>
      <point x="562.782" y="625.733" type="line"/>
      <point x="505.857" y="662.953"/>
      <point x="442.063" y="680.468"/>
      <point x="368.111" y="680.468" type="curve" smooth="yes"/>
      <point x="157.995" y="680.468"/>
      <point x="50.7991" y="538.444"/>
      <point x="50.7991" y="336.09" type="curve" smooth="yes"/>
      <point x="50.7991" y="220.488"/>
      <point x="73.478" y="152.194"/>
      <point x="140.435" y="69.0386" type="curve"/>
      <point x="85.8002" y="-2.79568" type="line"/>
      <point x="109.842" y="-23.1385" type="line"/>
      <point x="164.834" y="47.1299" type="line"/>
      <point x="248.156" y="-0.482551"/>
      <point x="292.169" y="-13.4678"/>
      <point x="372.255" y="-13.4678" type="curve" smooth="yes"/>
      <point x="580.915" y="-13.4678"/>
      <point x="687.495" y="130.927"/>
      <point x="687.495" y="330.91" type="curve" smooth="yes"/>
      <point x="687.495" y="450.478"/>
      <point x="661.591" y="523.851"/>
      <point x="590.355" y="604.8" type="curve"/>
      <point x="646.03" y="678.696" type="line"/>
    </contour>
    <contour>
      <point x="551.751" y="558.389" type="line"/>
      <point x="598.006" y="492.658"/>
      <point x="617.481" y="422.958"/>
      <point x="617.481" y="330.91" type="curve" smooth="yes"/>
      <point x="617.481" y="143.219"/>
      <point x="522.466" y="27.7991"/>
      <point x="369.147" y="27.7991" type="curve" smooth="yes"/>
      <point x="306.961" y="27.7991"/>
      <point x="256.81" y="47.2963"/>
      <point x="199.537" y="92.3835" type="curve"/>
    </contour>
    <contour>
      <point x="177.382" y="118.93" type="line"/>
      <point x="136.8" y="190.256"/>
      <point x="120.813" y="252.739"/>
      <point x="120.813" y="334.018" type="curve" smooth="yes"/>
      <point x="120.813" y="523.814"/>
      <point x="214.748" y="639.201"/>
      <point x="369.147" y="639.201" type="curve" smooth="yes"/>
      <point x="424.827" y="639.201"/>
      <point x="469.529" y="624.41"/>
      <point x="531.157" y="583.736" type="curve"/>
    </contour>
  </outline>
</glyph>
<glyph name="Ugrave" format="2">
  <advance width="675"/>
  <unicode hex="00D9"/>
  <outline>
    <contour>
      <point x="92" y="667" type="line"/>
      <point x="92" y="271" type="line" smooth="yes"/>
      <point x="92" y="174"/>
      <point x="97" y="137"/>
      <point x="117" y="97" type="curve" smooth="yes"/>
      <point x="153" y="24"/>
      <point x="227" y="-13"/>
      <point x="336" y="-13" type="curve" smooth="yes"/>
      <point x="440" y="-13"/>
      <point x="511" y="19"/>
      <point x="550" y="83" type="curve" smooth="yes"/>
      <point x="577" y="128"/>
      <point x="583" y="162"/>
      <point x="583" y="271" type="curve" smooth="yes"/>
      <point x="583" y="667" type="line"/>
      <point x="533" y="667" type="line"/>
      <point x="533" y="266" type="line" smooth="yes"/>
      <point x="533" y="177"/>
      <point x="529" y="151"/>
      <point x="511" y="118" type="curve" smooth="yes"/>
      <point x="483" y="66"/>
      <point x="418" y="34"/>
      <point x="339" y="34" type="curve" smooth="yes"/>
      <point x="267" y="34"/>
      <point x="206" y="61"/>
      <point x="175" y="106" type="curve" smooth="yes"/>
      <point x="150" y="141"/>
      <point x="145" y="169"/>
      <point x="145" y="266" type="curve" smooth="yes"/>
      <point x="145" y="667" type="line"/>
    </contour>
    <contour>
      <point x="278" y="872" type="line"/>
      <point x="212" y="864" type="line"/>
      <point x="384" y="711" type="line"/>
      <point x="412" y="715" type="line"/>
    </contour>
  </outline>
</glyph>
<glyph name="Uacute" format="2">
  <advance width="683"/>
  <unicode hex="00DA"/>
  <outline>
    <contour>
      <point x="87.1304" y="667" type="line"/>
      <point x="87.1304" y="269.787" type="line" smooth="yes"/>
      <point x="87.1304" y="174.966"/>
      <point x="93.1013" y="137.806"/>
      <point x="113.004" y="98.0007" type="curve" smooth="yes"/>
      <point x="149.182" y="25.644"/>
      <point x="229.919" y="-13.4678"/>
      <point x="341.248" y="-13.4678" type="curve" smooth="yes"/>
      <point x="446.714" y="-13.4678"/>
      <point x="524.525" y="20.8052"/>
      <point x="563.695" y="85.4344" type="curve" smooth="yes"/>
      <point x="589.463" y="127.06"/>
      <point x="596.401" y="168.148"/>
      <point x="596.401" y="269.787" type="curve" smooth="yes"/>
      <point x="596.401" y="667" type="line"/>
      <point x="533.639" y="667" type="line"/>
      <point x="533.639" y="266.679" type="line" smooth="yes"/>
      <point x="533.639" y="175.697"/>
      <point x="529.246" y="146.601"/>
      <point x="510.669" y="113.854" type="curve"/>
      <point x="481.611" y="60.2095"/>
      <point x="417.128" y="27.7991"/>
      <point x="341.248" y="27.7991" type="curve" smooth="yes"/>
      <point x="271.968" y="27.7991"/>
      <point x="210.794" y="55.6925"/>
      <point x="179.634" y="102.412" type="curve" smooth="yes"/>
      <point x="155.4" y="137.661"/>
      <point x="149.893" y="166.848"/>
      <point x="149.893" y="266.679" type="curve" smooth="yes"/>
      <point x="149.893" y="667" type="line"/>
    </contour>
    <contour>
      <point x="423.35" y="886.816" type="line"/>
      <point x="299.435" y="740.288" type="line"/>
      <point x="311.837" y="738.162" type="line"/>
      <point x="476.125" y="876.128" type="line"/>
    </contour>
  </outline>
</glyph>
<glyph name="Ucircumflex" format="2">
  <advance width="675"/>
  <unicode hex="00DB"/>
  <outline>
    <contour>
      <point x="92" y="667" type="line"/>
      <point x="92" y="271" type="line" smooth="yes"/>
      <point x="92" y="174"/>
      <point x="97" y="137"/>
      <point x="117" y="97" type="curve" smooth="yes"/>
      <point x="153" y="24"/>
      <point x="227" y="-13"/>
      <point x="336" y="-13" type="curve" smooth="yes"/>
      <point x="440" y="-13"/>
      <point x="511" y="19"/>
      <point x="550" y="83" type="curve" smooth="yes"/>
      <point x="577" y="128"/>
      <point x="583" y="162"/>
      <point x="583" y="271" type="curve" smooth="yes"/>
      <point x="583" y="667" type="line"/>
      <point x="533" y="667" type="line"/>
      <point x="533" y="266" type="line" smooth="yes"/>
      <point x="533" y="177"/>
      <point x="529" y="151"/>
      <point x="511" y="118" type="curve" smooth="yes"/>
      <point x="483" y="66"/>
      <point x="418" y="34"/>
      <point x="339" y="34" type="curve" smooth="yes"/>
      <point x="267" y="34"/>
      <point x="206" y="61"/>
      <point x="175" y="106" type="curve" smooth="yes"/>
      <point x="150" y="141"/>
      <point x="145" y="169"/>
      <point x="145" y="266" type="curve" smooth="yes"/>
      <point x="145" y="667" type="line"/>
    </contour>
    <contour>
      <point x="362" y="874" type="line"/>
      <point x="314" y="874" type="line"/>
      <point x="187" y="716" type="line"/>
      <point x="215" y="712" type="line"/>
      <point x="338" y="832" type="line"/>
      <point x="462" y="712" type="line"/>
      <point x="488" y="716" type="line"/>
    </contour>
  </outline>
</glyph>
<glyph name="Udieresis" format="2">
  <advance width="683"/>
  <unicode hex="00DC"/>
  <outline>
    <contour>
      <point x="87.1304" y="667" type="line"/>
      <point x="87.1304" y="269.787" type="line" smooth="yes"/>
      <point x="87.1304" y="174.966"/>
      <point x="93.1013" y="137.806"/>
      <point x="113.004" y="98.0007" type="curve" smooth="yes"/>
      <point x="149.182" y="25.644"/>
      <point x="229.919" y="-13.4678"/>
      <point x="341.248" y="-13.4678" type="curve" smooth="yes"/>
      <point x="446.714" y="-13.4678"/>
      <point x="524.525" y="20.8052"/>
      <point x="563.695" y="85.4344" type="curve" smooth="yes"/>
      <point x="589.463" y="127.06"/>
      <point x="596.401" y="168.148"/>
      <point x="596.401" y="269.787" type="curve" smooth="yes"/>
      <point x="596.401" y="667" type="line"/>
      <point x="533.639" y="667" type="line"/>
      <point x="533.639" y="266.679" type="line" smooth="yes"/>
      <point x="533.639" y="175.697"/>
      <point x="529.246" y="146.601"/>
      <point x="510.669" y="113.854" type="curve"/>
      <point x="481.611" y="60.2095"/>
      <point x="417.128" y="27.7991"/>
      <point x="341.248" y="27.7991" type="curve" smooth="yes"/>
      <point x="271.968" y="27.7991"/>
      <point x="210.794" y="55.6925"/>
      <point x="179.634" y="102.412" type="curve" smooth="yes"/>
      <point x="155.4" y="137.661"/>
      <point x="149.893" y="166.848"/>
      <point x="149.893" y="266.679" type="curve" smooth="yes"/>
      <point x="149.893" y="667" type="line"/>
    </contour>
    <contour>
      <point x="237.649" y="854.513" type="curve" smooth="yes"/>
      <point x="212.056" y="854.513"/>
      <point x="190.729" y="834.068"/>
      <point x="190.729" y="809.534" type="curve" smooth="yes"/>
      <point x="190.729" y="784.061"/>
      <point x="212.138" y="763.519"/>
      <point x="238.685" y="763.519" type="curve" smooth="yes"/>
      <point x="264.279" y="763.519"/>
      <point x="285.606" y="784.061"/>
      <point x="285.606" y="809.534" type="curve" smooth="yes"/>
      <point x="285.606" y="834.068"/>
      <point x="264.197" y="854.513"/>
    </contour>
    <contour>
      <point x="444.846" y="854.513" type="curve" smooth="yes"/>
      <point x="419.253" y="854.513"/>
      <point x="397.925" y="834.068"/>
      <point x="397.925" y="809.534" type="curve" smooth="yes"/>
      <point x="397.925" y="784.061"/>
      <point x="419.334" y="763.519"/>
      <point x="445.882" y="763.519" type="curve" smooth="yes"/>
      <point x="471.475" y="763.519"/>
      <point x="492.803" y="784.061"/>
      <point x="492.803" y="809.534" type="curve" smooth="yes"/>
      <point x="492.803" y="834.068"/>
      <point x="471.393" y="854.513"/>
    </contour>
  </outline>
</glyph>
<glyph name="Yacute" format="2">
  <advance width="460"/>
  <unicode hex="00DD"/>
  <outline>
    <contour>
      <point x="419.086" y="667" type="line"/>
      <point x="233.755" y="357.05" type="line"/>
      <point x="45.2291" y="667" type="line"/>
      <point x="-26.3269" y="667" type="line"/>
      <point x="198.16" y="298.483" type="line"/>
      <point x="198.16" y="0" type="line"/>
      <point x="260.923" y="0" type="line"/>
      <point x="260.923" y="298.441" type="line"/>
      <point x="482.455" y="667" type="line"/>
    </contour>
    <contour>
      <point x="317.86" y="886.816" type="line"/>
      <point x="193.944" y="740.288" type="line"/>
      <point x="206.347" y="738.162" type="line"/>
      <point x="370.635" y="876.128" type="line"/>
    </contour>
  </outline>
</glyph>
<glyph name="Thorn" format="2">
  <advance width="488"/>
  <unicode hex="00DE"/>
  <outline>
    <contour>
      <point x="93.3463" y="0" type="line"/>
      <point x="156.108" y="0" type="line"/>
      <point x="156.108" y="213.412" type="line"/>
      <point x="244.901" y="213.412" type="line" smooth="yes"/>
      <point x="366.436" y="213.412"/>
      <point x="473.119" y="265.355"/>
      <point x="473.119" y="403.429" type="curve" smooth="yes"/>
      <point x="473.119" y="458.376"/>
      <point x="451.727" y="506.718"/>
      <point x="413.804" y="535.89" type="curve" smooth="yes"/>
      <point x="382.003" y="560.945"/>
      <point x="344.223" y="569.618"/>
      <point x="266.657" y="569.618" type="curve" smooth="yes"/>
      <point x="156.108" y="569.618" type="line"/>
      <point x="156.108" y="667" type="line"/>
      <point x="93.3463" y="667" type="line"/>
    </contour>
    <contour>
      <point x="156.108" y="254.679" type="line"/>
      <point x="156.108" y="528.351" type="line"/>
      <point x="268.729" y="528.351" type="line" smooth="yes"/>
      <point x="356.243" y="528.351"/>
      <point x="403.105" y="492.17"/>
      <point x="403.105" y="398.249" type="curve" smooth="yes"/>
      <point x="403.105" y="304.42"/>
      <point x="348.895" y="254.679"/>
      <point x="244.901" y="254.679" type="curve" smooth="yes"/>
    </contour>
  </outline>
</glyph>
